<svg width="244.000000" height="47.000000" viewBox="0 0 244 47" fill="none" xmlns="http://www.w3.org/2000/svg" xmlns:xlink="http://www.w3.org/1999/xlink">
	<desc>
			Created with Pixso.
	</desc>
	<defs/>
	<path id="Vector" d="M2 30L2 45L17 45" stroke="#58AEE6" stroke-opacity="1.000000" stroke-width="4.000000" stroke-linejoin="round" stroke-linecap="round"/>
	<path id="Третье лицо" d="M225.56 26.25Q227.86 27.3 230.64 27.3Q233.45 27.3 235.78 26.23Q236.11 26.08 236.44 25.9Q237.93 25.09 239.06 23.92Q239.87 23.08 240.49 22.04Q240.84 21.45 241.11 20.82Q241.96 18.84 241.96 16.49Q241.96 14.18 241.13 12.21Q240.85 11.56 240.49 10.95Q239.86 9.9 239.04 9.05Q237.92 7.9 236.44 7.1Q236.09 6.91 235.74 6.75Q233.43 5.7 230.64 5.7Q227.89 5.7 225.6 6.73Q225.22 6.9 224.86 7.1Q223.41 7.87 222.32 8.99Q221.45 9.87 220.81 10.96Q220.37 11.69 220.07 12.47Q219.33 14.33 219.33 16.49Q219.33 18.68 220.08 20.57Q220.39 21.32 220.81 22.03Q221.45 23.11 222.3 23.98Q223.4 25.11 224.86 25.9Q225.2 26.09 225.56 26.25ZM27.22 9.29L34.17 9.29L34.17 6L16.41 6L16.41 9.29L23.35 9.29L23.35 27L27.22 27L27.22 9.29ZM50.92 6.9Q48.9 6 46.17 6L37.53 6L37.53 27L41.44 27L41.44 20.94L46.17 20.94Q48.9 20.94 50.92 20.04Q52.53 19.32 53.55 18.1Q53.81 17.79 54.03 17.44Q54.16 17.23 54.28 17Q55.11 15.46 55.11 13.47Q55.11 11.31 54.17 9.7Q54.1 9.59 54.03 9.48Q53.83 9.17 53.6 8.89Q52.58 7.63 50.92 6.9ZM74.55 27L74.55 23.73L62.71 23.73L62.71 17.93L72.84 17.93L72.84 14.73L62.71 14.73L62.71 9.26L74.13 9.26L74.13 6L58.8 6L58.8 27L74.55 27ZM87.19 9.29L94.14 9.29L94.14 6L76.38 6L76.38 9.29L83.32 9.29L83.32 27L87.19 27L87.19 9.29ZM113 14.8Q110.98 13.11 107.19 13.11L101.38 13.11L101.38 6L97.54 6L97.54 27L106.56 27Q110.58 27 112.8 25.15Q113.36 24.68 113.78 24.12Q115.02 22.43 115.02 19.82Q115.02 17.14 113.71 15.52Q113.39 15.13 113 14.8ZM134.76 27L134.76 23.73L122.92 23.73L122.92 17.93L133.05 17.93L133.05 14.73L122.92 14.73L122.92 9.26L134.34 9.26L134.34 6L119.01 6L119.01 27L134.76 27ZM165.34 27L165.34 6L149.88 6L149.58 14.7Q149.41 19.38 148.64 21.55Q148.13 23 147.15 23.49Q146.66 23.73 146.04 23.73Q145.53 23.73 145.14 23.6L144.87 27Q146.23 27.3 147 27.3Q148.61 27.3 149.72 26.55Q150.14 26.27 150.48 25.87Q151.74 24.45 152.31 21.7Q152.89 18.95 153.03 14.54L153.22 9.29L161.5 9.29L161.5 27L165.34 27ZM175.12 6L171.28 6L171.28 27L174.9 27L186.18 12.11L186.18 27L190.02 27L190.02 6L186.4 6L175.12 20.91L175.12 6ZM217.36 31.62L217.36 23.69L214.24 23.69L214.24 6L210.37 6L210.37 23.69L199.78 23.69L199.78 6L195.94 6L195.94 27L213.76 27L213.76 31.62L217.36 31.62ZM233.85 23.22Q232.39 23.87 230.64 23.87Q228.95 23.87 227.52 23.26Q227.18 23.11 226.86 22.93Q226.08 22.49 225.46 21.89Q224.74 21.2 224.23 20.29Q224.02 19.92 223.85 19.53Q223.27 18.14 223.27 16.49Q223.27 14.86 223.85 13.47Q224.01 13.08 224.23 12.71Q224.75 11.78 225.49 11.07Q226.1 10.49 226.86 10.06Q227.18 9.88 227.52 9.74Q228.95 9.12 230.64 9.12Q232.39 9.12 233.85 9.77Q234.14 9.9 234.42 10.06Q235.2 10.5 235.83 11.1Q236.55 11.8 237.07 12.71Q237.28 13.08 237.44 13.47Q238.02 14.86 238.02 16.49Q238.02 18.14 237.44 19.53Q237.27 19.92 237.07 20.29Q236.56 21.18 235.86 21.86Q235.22 22.48 234.42 22.93Q234.14 23.09 233.85 23.22ZM49.86 16.56Q48.54 17.63 45.99 17.63L41.44 17.63L41.44 9.29L45.99 9.29Q48.54 9.29 49.86 10.38Q50.23 10.68 50.5 11.06Q51.18 12.02 51.18 13.47Q51.18 14.89 50.52 15.85Q50.24 16.24 49.86 16.56ZM109.9 22.94Q108.66 23.99 106.39 23.99L101.38 23.99L101.38 16.07L106.39 16.07Q109.27 16.07 110.4 17.48Q111.13 18.39 111.13 19.88Q111.13 21.48 110.35 22.48Q110.15 22.73 109.9 22.94Z" fill="#2D2F30" fill-opacity="1.000000" fill-rule="evenodd"/>
</svg>
