<svg width="278.000000" height="47.000000" viewBox="0 0 278 47" fill="none" xmlns="http://www.w3.org/2000/svg" xmlns:xlink="http://www.w3.org/1999/xlink">
	<desc>
			Created with Pixso.
	</desc>
	<defs/>
	<path id="Vector" d="M2 30L2 45L17 45" stroke="#58AEE6" stroke-opacity="1.000000" stroke-width="4.000000" stroke-linejoin="round" stroke-linecap="round"/>
	<path id="Главное лицо" d="M132.56 26.25Q134.86 27.3 137.64 27.3Q140.45 27.3 142.78 26.23Q143.11 26.08 143.44 25.9Q144.93 25.09 146.06 23.92Q146.87 23.08 147.49 22.04Q147.84 21.45 148.11 20.82Q148.96 18.84 148.96 16.49Q148.96 14.18 148.13 12.21Q147.85 11.56 147.49 10.95Q146.86 9.9 146.04 9.05Q144.92 7.9 143.44 7.1Q143.09 6.91 142.74 6.75Q140.43 5.7 137.64 5.7Q134.89 5.7 132.6 6.73Q132.22 6.9 131.86 7.1Q130.41 7.87 129.32 8.99Q128.45 9.87 127.81 10.96Q127.37 11.69 127.07 12.47Q126.33 14.33 126.33 16.49Q126.33 18.68 127.08 20.57Q127.39 21.32 127.81 22.03Q128.45 23.11 129.3 23.98Q130.4 25.11 131.86 25.9Q132.2 26.09 132.56 26.25ZM259.82 26.25Q262.12 27.3 264.9 27.3Q267.71 27.3 270.04 26.23Q270.37 26.08 270.7 25.9Q272.19 25.09 273.32 23.92Q274.13 23.08 274.75 22.04Q275.1 21.45 275.37 20.82Q276.22 18.84 276.22 16.49Q276.22 14.18 275.39 12.21Q275.11 11.56 274.75 10.95Q274.12 9.9 273.3 9.05Q272.18 7.9 270.7 7.1Q270.35 6.91 270 6.75Q267.69 5.7 264.9 5.7Q262.15 5.7 259.86 6.73Q259.48 6.9 259.12 7.1Q257.67 7.87 256.57 8.99Q255.71 9.87 255.07 10.96Q254.63 11.69 254.33 12.47Q253.59 14.33 253.59 16.49Q253.59 18.68 254.34 20.57Q254.65 21.32 255.07 22.03Q255.71 23.11 256.56 23.98Q257.66 25.11 259.12 25.9Q259.46 26.09 259.82 26.25ZM22.78 9.29L33.18 9.29L33.21 6L18.97 6L18.97 27L22.81 27L22.78 9.29ZM51.79 27L51.79 6L36.33 6L36.03 14.7Q35.86 19.38 35.09 21.55Q34.58 23 33.6 23.49Q33.1 23.73 32.49 23.73Q31.98 23.73 31.59 23.6L31.32 27Q32.68 27.3 33.45 27.3Q35.06 27.3 36.17 26.55Q36.59 26.27 36.93 25.87Q38.19 24.45 38.76 21.7Q39.34 18.95 39.48 14.54L39.66 9.29L47.95 9.29L47.95 27L51.79 27ZM59.04 27L61.11 22.13L71.62 22.13L73.71 27L77.79 27L68.31 6L64.47 6L55.03 27L59.04 27ZM97.89 17.92Q96.84 16.62 94.84 16.07Q96.09 15.55 96.85 14.62Q97 14.44 97.13 14.24Q97.23 14.1 97.31 13.95Q97.93 12.84 97.93 11.39Q97.93 9.93 97.29 8.84Q96.8 8.02 95.94 7.41Q93.97 6 90.43 6L81.04 6L81.04 27L90.99 27Q94.87 27 96.9 25.46Q97.73 24.85 98.22 24.03Q98.95 22.82 98.95 21.17Q98.95 19.57 98.23 18.41Q98.08 18.15 97.89 17.92ZM122.04 27L122.04 6L118.14 6L118.14 14.67L107.29 14.67L107.29 6L103.38 6L103.38 27L107.29 27L107.29 17.99L118.14 17.99L118.14 27L122.04 27ZM169.02 27L169.02 23.73L157.18 23.73L157.18 17.93L167.31 17.93L167.31 14.73L157.18 14.73L157.18 9.26L168.6 9.26L168.6 6L153.27 6L153.27 27L169.02 27ZM199.6 27L199.6 6L184.14 6L183.84 14.7Q183.67 19.38 182.9 21.55Q182.39 23 181.41 23.49Q180.92 23.73 180.3 23.73Q179.79 23.73 179.4 23.6L179.13 27Q180.49 27.3 181.26 27.3Q182.87 27.3 183.98 26.55Q184.4 26.27 184.74 25.87Q186 24.45 186.57 21.7Q187.15 18.95 187.29 14.54L187.48 9.29L195.76 9.29L195.76 27L199.6 27ZM209.38 6L205.54 6L205.54 27L209.16 27L220.44 12.11L220.44 27L224.28 27L224.28 6L220.66 6L209.38 20.91L209.38 6ZM251.62 31.62L251.62 23.69L248.5 23.69L248.5 6L244.63 6L244.63 23.69L234.04 23.69L234.04 6L230.2 6L230.2 27L248.02 27L248.02 31.62L251.62 31.62ZM90.09 14.97L84.88 14.97L84.88 8.99L90.09 8.99Q91.99 8.99 92.98 9.76Q93.27 9.99 93.47 10.27Q93.97 10.96 93.97 12Q93.97 13.04 93.47 13.72Q93.27 14 92.98 14.22Q91.99 14.97 90.09 14.97ZM140.85 23.22Q139.39 23.87 137.64 23.87Q135.95 23.87 134.52 23.26Q134.18 23.11 133.86 22.93Q133.08 22.49 132.46 21.89Q131.74 21.2 131.23 20.29Q131.02 19.92 130.85 19.53Q130.27 18.14 130.27 16.49Q130.27 14.86 130.85 13.47Q131.01 13.08 131.23 12.71Q131.75 11.78 132.49 11.07Q133.1 10.49 133.86 10.06Q134.18 9.88 134.52 9.74Q135.95 9.12 137.64 9.12Q139.39 9.12 140.85 9.77Q141.14 9.9 141.42 10.06Q142.2 10.5 142.83 11.1Q143.55 11.8 144.07 12.71Q144.28 13.08 144.44 13.47Q145.02 14.86 145.02 16.49Q145.02 18.14 144.44 19.53Q144.27 19.92 144.07 20.29Q143.56 21.18 142.86 21.86Q142.22 22.48 141.42 22.93Q141.14 23.09 140.85 23.22ZM268.1 23.22Q266.65 23.87 264.9 23.87Q263.21 23.87 261.78 23.26Q261.44 23.11 261.12 22.93Q260.34 22.49 259.72 21.89Q259 21.2 258.49 20.29Q258.28 19.92 258.11 19.53Q257.53 18.14 257.53 16.49Q257.53 14.86 258.11 13.47Q258.27 13.08 258.49 12.71Q259.01 11.78 259.75 11.07Q260.36 10.49 261.12 10.06Q261.44 9.88 261.78 9.74Q263.21 9.12 264.9 9.12Q266.65 9.12 268.1 9.77Q268.4 9.9 268.68 10.06Q269.46 10.5 270.09 11.1Q270.81 11.8 271.32 12.71Q271.54 13.08 271.7 13.47Q272.28 14.86 272.28 16.49Q272.28 18.14 271.7 19.53Q271.53 19.92 271.32 20.29Q270.82 21.18 270.12 21.86Q269.48 22.48 268.68 22.93Q268.4 23.09 268.1 23.22ZM66.36 9.89L70.32 19.08L62.43 19.08L66.36 9.89ZM94.47 22.72Q93.51 23.99 90.88 23.99L84.88 23.99L84.88 17.82L90.88 17.82Q93.55 17.82 94.5 19.1Q95.01 19.79 95.01 20.87Q95.01 22 94.47 22.72Z" fill="#2D2F30" fill-opacity="1.000000" fill-rule="evenodd"/>
</svg>
