<svg width="36.000000" height="27.000000" viewBox="0 0 36 27" fill="none" xmlns="http://www.w3.org/2000/svg" xmlns:xlink="http://www.w3.org/1999/xlink">
	<desc>
			Created with Pixso.
	</desc>
	<defs/>
	<path id="Vector" d="M2.25 4.5L33.75 4.5C34.34 4.5 34.91 4.26 35.34 3.84C35.76 3.41 36 2.84 36 2.25C36 1.65 35.76 1.08 35.34 0.65C34.91 0.23 34.34 0 33.75 0L2.25 0C1.65 0 1.08 0.23 0.65 0.65C0.23 1.08 0 1.65 0 2.25C0 2.84 0.23 3.41 0.65 3.84C1.08 4.26 1.65 4.5 2.25 4.5ZM20.25 27L33.75 27C34.34 27 34.91 26.76 35.34 26.34C35.76 25.91 36 25.34 36 24.75C36 24.15 35.76 23.58 35.34 23.15C34.91 22.73 34.34 22.5 33.75 22.5L20.25 22.5C19.65 22.5 19.08 22.73 18.65 23.15C18.23 23.58 18 24.15 18 24.75C18 25.34 18.23 25.91 18.65 26.34C19.08 26.76 19.65 27 20.25 27ZM11.25 15.75L33.75 15.75C34.34 15.75 34.91 15.51 35.34 15.09C35.76 14.66 36 14.09 36 13.5C36 12.9 35.76 12.33 35.34 11.9C34.91 11.48 34.34 11.25 33.75 11.25L11.25 11.25C10.65 11.25 10.08 11.48 9.65 11.9C9.23 12.33 9 12.9 9 13.5C9 14.09 9.23 14.66 9.65 15.09C10.08 15.51 10.65 15.75 11.25 15.75Z" fill="#2D2F30" fill-opacity="1.000000" fill-rule="nonzero"/>
</svg>
