<svg width="358.000000" height="70.000000" viewBox="0 0 358 70" fill="none" xmlns="http://www.w3.org/2000/svg" xmlns:xlink="http://www.w3.org/1999/xlink">
	<desc>
			Created with Pixso.
	</desc>
	<defs/>
	<path id="Vector" d="M52.39 26.55L51.71 26.55C51.71 30.13 50.95 33.67 49.47 36.93C47.99 40.2 45.82 43.1 43.12 45.46C40.79 47.5 38.84 49.94 37.37 52.67C35.9 55.4 34.96 58.39 34.61 61.48C34.44 63.42 33.55 65.23 32.12 66.55C30.68 67.86 28.8 68.59 26.85 68.59L26.23 68.59C24.28 68.59 22.4 67.86 20.97 66.55C19.97 65.66 19.24 64.51 18.83 63.24C18.65 62.7 18.54 62.14 18.48 61.57L18.48 61.48C18.35 60.25 18.11 59.03 17.79 57.83C17.62 57.22 17.43 56.61 17.21 55.99C15.73 51.94 13.25 48.32 9.99 45.49C7.29 43.13 5.12 40.21 3.63 36.94C2.15 33.67 1.38 30.12 1.38 26.53C1.38 26.25 1.4 25.96 1.4 25.68C1.84 12.36 12.86 1.56 26.18 1.37L26.55 1.37C33.22 1.37 39.63 4.02 44.35 8.74C49.07 13.47 51.72 19.87 51.72 26.55L53.1 26.55C53.1 23.06 52.41 19.6 51.08 16.38C49.74 13.16 47.79 10.23 45.32 7.76C42.85 5.3 39.92 3.34 36.7 2.01C33.48 0.68 30.02 -0.01 26.53 0L26.16 0C12.08 0.21 0.49 11.55 0.01 25.62C6.1e-5 25.93 0 26.24 0 26.53C-0.01 30.32 0.8 34.07 2.36 37.52C3.93 40.96 6.22 44.04 9.07 46.53C12.15 49.2 14.5 52.62 15.89 56.46C16.11 57.03 16.28 57.62 16.44 58.2C16.75 59.32 16.97 60.47 17.11 61.63L17.11 61.71L17.8 61.63L17.11 61.69C17.17 62.37 17.31 63.04 17.52 63.68C18.01 65.18 18.88 66.52 20.03 67.59C21.72 69.14 23.93 70 26.23 70L26.85 70C29.15 69.99 31.35 69.13 33.04 67.58C34.73 66.04 35.78 63.91 35.98 61.63L35.29 61.56L35.97 61.64C36.31 58.73 37.19 55.91 38.59 53.34C39.98 50.75 41.82 48.44 44.03 46.51C46.88 44.03 49.16 40.96 50.72 37.52C52.28 34.08 53.09 30.34 53.08 26.56L52.39 26.55Z" fill="#FFFFFF" fill-opacity="1.000000" fill-rule="nonzero"/>
	<path id="Vector" d="M30.68 62.51C30.64 62.53 28.97 63.4 26.57 63.4C25.11 63.4 23.67 63.08 22.34 62.48C22.25 62.44 22.16 62.43 22.06 62.43C21.97 62.43 21.87 62.46 21.79 62.5C21.7 62.54 21.63 62.6 21.57 62.67C21.5 62.74 21.46 62.83 21.43 62.92C21.36 63.11 21.36 63.32 21.43 63.51C21.5 63.71 21.64 63.86 21.82 63.96C23.31 64.64 24.93 64.99 26.57 64.99C29.36 64.99 31.24 63.96 31.3 63.93C31.47 63.83 31.6 63.66 31.66 63.46C31.72 63.27 31.71 63.06 31.63 62.87C31.46 62.48 31.03 62.31 30.68 62.51Z" fill="#FFFFFF" fill-opacity="1.000000" fill-rule="nonzero"/>
	<path id="Vector" d="M32.23 56.43C32.22 56.45 29.94 57.37 26.59 57.37C24.62 57.37 22.67 57.05 20.81 56.42C20.43 56.29 20.03 56.53 19.92 56.95C19.82 57.38 20.02 57.82 20.39 57.94C22.39 58.61 24.48 58.96 26.59 58.96C30.22 58.96 32.67 57.94 32.73 57.93C33.09 57.78 33.27 57.31 33.14 56.9C33.11 56.81 33.07 56.72 33.01 56.65C32.95 56.57 32.87 56.51 32.79 56.47C32.7 56.42 32.61 56.4 32.51 56.39C32.42 56.39 32.32 56.4 32.23 56.43Z" fill="#FFFFFF" fill-opacity="1.000000" fill-rule="nonzero"/>
	<path id="Vector" d="M44.83 20.23L41.91 18.51L41.91 13.73C41.91 13.48 41.85 13.23 41.72 13C41.6 12.78 41.43 12.59 41.22 12.45L33.07 7.3C32.84 7.14 32.56 7.06 32.27 7.06C32.04 7.06 31.81 7.11 31.6 7.2L26.71 9.58L21.79 7.2C21.59 7.11 21.36 7.06 21.14 7.06C20.85 7.06 20.57 7.14 20.32 7.3L12.2 12.45C11.98 12.59 11.8 12.78 11.68 13C11.55 13.22 11.49 13.48 11.49 13.73L11.49 18.51L8.58 20.23C8.35 20.37 8.16 20.56 8.03 20.79C7.9 21.02 7.83 21.28 7.83 21.54L7.83 31.7C7.83 31.96 7.9 32.22 8.03 32.45C8.16 32.68 8.35 32.87 8.58 33.01L11.49 34.71L11.49 39.51C11.49 39.76 11.55 40.01 11.68 40.23C11.8 40.46 11.98 40.64 12.2 40.78L20.32 45.94C20.57 46.1 20.85 46.18 21.14 46.18C21.37 46.18 21.59 46.13 21.79 46.02L26.71 43.66L31.6 46.02C31.81 46.13 32.04 46.18 32.27 46.18C32.56 46.18 32.84 46.1 33.07 45.94L41.22 40.78C41.43 40.64 41.6 40.45 41.73 40.23C41.85 40.01 41.91 39.76 41.91 39.51L41.91 34.71L44.83 33.01C45.06 32.87 45.25 32.68 45.38 32.45C45.51 32.22 45.58 31.96 45.58 31.7L45.58 21.54C45.58 21.28 45.51 21.02 45.38 20.79C45.25 20.56 45.06 20.37 44.83 20.23ZM21.26 8.77L21.14 8.56L20.79 8.03L21.26 8.77ZM21.15 44.39L13.24 39.37L13.24 34.61L16.97 32.23L20.22 34.3L20.22 37.46C19.86 37.66 19.58 37.97 19.42 38.34C19.25 38.71 19.22 39.13 19.32 39.52C19.42 39.92 19.65 40.27 19.97 40.51C20.29 40.76 20.69 40.9 21.09 40.9C21.5 40.9 21.89 40.76 22.21 40.51C22.54 40.27 22.76 39.92 22.86 39.52C22.96 39.13 22.93 38.71 22.77 38.34C22.61 37.97 22.32 37.66 21.97 37.46L21.97 34.18C21.97 33.93 21.9 33.68 21.78 33.45C21.66 33.23 21.49 33.04 21.27 32.9L18.6 31.2L21.27 29.51C21.48 29.37 21.66 29.18 21.78 28.96C21.9 28.74 21.96 28.49 21.97 28.24L21.97 20.38C22.32 20.18 22.6 19.88 22.76 19.51C22.92 19.14 22.95 18.73 22.85 18.34C22.75 17.95 22.52 17.6 22.2 17.35C21.89 17.11 21.5 16.97 21.09 16.97C20.69 16.97 20.3 17.11 19.98 17.35C19.66 17.6 19.43 17.95 19.33 18.34C19.23 18.73 19.27 19.14 19.43 19.51C19.59 19.88 19.86 20.18 20.22 20.38L20.22 28.11L12.28 33.15L9.58 31.56L9.58 21.67L12.37 20.02L15.87 22.23L15.87 26.09L14.52 26.95C14.26 26.8 13.96 26.72 13.66 26.72C13.3 26.72 12.95 26.83 12.66 27.03C12.36 27.22 12.12 27.51 11.99 27.84C11.85 28.17 11.81 28.54 11.88 28.89C11.95 29.24 12.13 29.56 12.38 29.82C12.63 30.07 12.96 30.24 13.31 30.31C13.66 30.38 14.03 30.35 14.36 30.21C14.69 30.07 14.97 29.84 15.17 29.54C15.37 29.24 15.48 28.89 15.48 28.53L15.48 28.41L16.92 27.49C17.14 27.36 17.31 27.17 17.43 26.95C17.55 26.73 17.62 26.48 17.61 26.23L17.61 22.1C17.62 21.85 17.55 21.6 17.43 21.38C17.31 21.15 17.14 20.97 16.92 20.83L13.25 18.51L13.25 13.86L16.92 11.53L19.31 13.04L19.31 13.16C19.31 13.52 19.42 13.87 19.62 14.17C19.82 14.46 20.1 14.7 20.43 14.83C20.76 14.97 21.13 15.01 21.48 14.94C21.83 14.87 22.16 14.69 22.41 14.44C22.66 14.19 22.84 13.86 22.91 13.51C22.98 13.16 22.94 12.79 22.8 12.46C22.67 12.13 22.43 11.85 22.13 11.65C21.84 11.45 21.48 11.34 21.13 11.34C20.82 11.34 20.52 11.42 20.26 11.57L18.56 10.5L21.18 8.83L25.82 11.09L25.82 42.15L21.15 44.39ZM41.14 33.15L33.18 28.11L33.18 20.38C33.53 20.18 33.81 19.88 33.97 19.51C34.13 19.14 34.16 18.73 34.06 18.34C33.96 17.95 33.74 17.6 33.42 17.35C33.1 17.11 32.71 16.97 32.31 16.97C31.9 16.97 31.51 17.11 31.19 17.35C30.87 17.6 30.65 17.95 30.55 18.34C30.45 18.73 30.48 19.14 30.64 19.51C30.8 19.88 31.08 20.18 31.43 20.38L31.43 28.24C31.43 28.49 31.5 28.74 31.62 28.97C31.75 29.19 31.92 29.37 32.14 29.51L34.81 31.2L32.14 32.9C31.92 33.04 31.74 33.23 31.62 33.45C31.5 33.67 31.43 33.92 31.43 34.18L31.43 37.46C31.15 37.62 30.91 37.85 30.75 38.12C30.58 38.4 30.5 38.72 30.5 39.04C30.49 39.36 30.57 39.68 30.73 39.96C30.89 40.24 31.12 40.47 31.4 40.63C31.68 40.79 32 40.88 32.32 40.87C32.64 40.87 32.95 40.79 33.23 40.62C33.51 40.46 33.74 40.23 33.89 39.95C34.05 39.67 34.13 39.35 34.13 39.03C34.12 38.71 34.03 38.39 33.86 38.12C33.7 37.84 33.46 37.62 33.18 37.46L33.18 34.3L36.44 32.23L40.17 34.61L40.17 39.37L32.24 44.39L27.6 42.15L27.6 11.09L32.24 8.83L34.86 10.5L33.18 11.57C32.91 11.42 32.62 11.34 32.31 11.34C31.95 11.34 31.6 11.45 31.3 11.65C31 11.85 30.77 12.13 30.63 12.46C30.5 12.79 30.46 13.16 30.53 13.51C30.6 13.86 30.77 14.19 31.03 14.44C31.28 14.69 31.61 14.87 31.96 14.94C32.31 15.01 32.67 14.97 33.01 14.83C33.34 14.7 33.62 14.46 33.82 14.17C34.02 13.87 34.13 13.52 34.13 13.16L34.13 13.04L36.52 11.53L40.19 13.86L40.19 18.51L36.5 20.83C36.29 20.97 36.11 21.15 35.99 21.37C35.86 21.6 35.8 21.85 35.8 22.1L35.8 26.23C35.8 26.48 35.86 26.73 35.99 26.95C36.11 27.17 36.29 27.36 36.5 27.49L37.94 28.41L37.94 28.53C37.94 28.89 38.05 29.24 38.25 29.54C38.45 29.84 38.73 30.07 39.07 30.21C39.4 30.35 39.76 30.38 40.11 30.31C40.47 30.24 40.79 30.07 41.04 29.82C41.3 29.56 41.47 29.24 41.54 28.89C41.61 28.54 41.57 28.17 41.44 27.84C41.3 27.51 41.07 27.22 40.77 27.03C40.47 26.83 40.12 26.72 39.76 26.72C39.46 26.72 39.17 26.8 38.91 26.95L37.56 26.09L37.56 22.23L41.05 20.02L43.84 21.67L43.84 31.56L41.14 33.15Z" fill="#FFFFFF" fill-opacity="1.000000" fill-rule="nonzero"/>
	<path id="Vector" d="M74.36 11.68C74.36 6.83 76.79 4.37 81.67 4.37L93.8 4.37C98.69 4.37 101.11 6.83 101.11 11.68L101.11 27.16C101.11 32.05 98.69 34.47 93.8 34.47L81.67 34.47C76.79 34.47 74.36 32.05 74.36 27.16L74.36 25.09C74.36 24.38 74.72 24.02 75.4 24.02L80 24.02C80.14 24.01 80.29 24.02 80.43 24.07C80.56 24.12 80.69 24.2 80.79 24.3C80.89 24.4 80.97 24.53 81.02 24.66C81.07 24.8 81.08 24.95 81.07 25.09L81.07 26.34C81.07 27.88 81.82 28.62 83.35 28.62L92.12 28.62C93.66 28.62 94.44 27.88 94.44 26.34L94.44 22.13L85.67 22.13C84.95 22.13 84.6 21.81 84.6 21.1L84.6 17.35C84.58 17.21 84.6 17.06 84.64 16.92C84.69 16.79 84.77 16.66 84.87 16.56C84.98 16.46 85.1 16.38 85.24 16.33C85.38 16.28 85.52 16.27 85.67 16.28L94.44 16.28L94.44 12.54C94.44 11 93.66 10.22 92.12 10.22L83.35 10.22C81.82 10.22 81.07 11 81.07 12.54L81.07 13.79C81.07 14.5 80.71 14.82 80 14.82L75.4 14.82C74.72 14.82 74.36 14.5 74.36 13.79L74.36 11.68Z" fill="#FFFFFF" fill-opacity="1.000000" fill-rule="nonzero"/>
	<path id="Vector" d="M114.1 33.01C114.11 33.16 114.1 33.3 114.05 33.44C114 33.58 113.92 33.7 113.82 33.81C113.72 33.91 113.59 33.99 113.46 34.04C113.32 34.08 113.17 34.1 113.03 34.08L108.43 34.08C107.75 34.08 107.39 33.73 107.39 33.01L107.39 5.83C107.37 5.69 107.39 5.55 107.43 5.42C107.48 5.28 107.56 5.16 107.66 5.06C107.76 4.96 107.88 4.89 108.01 4.84C108.14 4.8 108.29 4.78 108.43 4.8L128.08 4.8C128.79 4.8 129.15 5.15 129.15 5.83L129.15 9.61C129.15 10.29 128.79 10.65 128.08 10.65L114.1 10.65L114.1 33.01Z" fill="#FFFFFF" fill-opacity="1.000000" fill-rule="nonzero"/>
	<path id="Vector" d="M139.6 28.2L156.11 28.2C156.79 28.2 157.15 28.55 157.15 29.27L157.15 33.01C157.15 33.73 156.79 34.08 156.11 34.08L133.93 34.08C133.25 34.08 132.89 33.73 132.89 33.01L132.89 5.83C132.88 5.69 132.89 5.55 132.94 5.42C132.98 5.28 133.06 5.16 133.16 5.06C133.26 4.96 133.38 4.89 133.51 4.84C133.65 4.8 133.79 4.78 133.93 4.8L155.69 4.8C156.4 4.8 156.72 5.15 156.72 5.83L156.72 9.61C156.72 10.29 156.4 10.65 155.69 10.65L139.6 10.65L139.6 16.28L151.94 16.28C152.62 16.28 152.98 16.64 152.98 17.35L152.98 21.1C152.98 21.81 152.62 22.13 151.94 22.13L139.6 22.13L139.6 28.2Z" fill="#FFFFFF" fill-opacity="1.000000" fill-rule="nonzero"/>
	<path id="Vector" d="M168.46 25.49L168.46 33.01C168.47 33.16 168.46 33.3 168.41 33.44C168.36 33.58 168.28 33.7 168.18 33.81C168.08 33.91 167.95 33.99 167.82 34.04C167.68 34.08 167.53 34.1 167.39 34.08L162.78 34.08C162.11 34.08 161.75 33.73 161.75 33.01L161.75 5.83C161.73 5.69 161.75 5.55 161.79 5.42C161.84 5.28 161.92 5.16 162.02 5.06C162.11 4.96 162.24 4.89 162.37 4.84C162.5 4.8 162.64 4.78 162.78 4.8L179.94 4.8C184.83 4.8 187.25 7.22 187.25 12.11L187.25 18.17C187.25 23.06 184.83 25.49 179.94 25.49L168.46 25.49ZM168.46 10.65L168.46 19.64L178.27 19.64C179.8 19.64 180.55 18.89 180.55 17.35L180.55 12.97C180.55 11.43 179.8 10.65 178.27 10.65L168.46 10.65Z" fill="#FFFFFF" fill-opacity="1.000000" fill-rule="nonzero"/>
	<path id="Vector" d="M194.14 34.08C193.46 34.08 193.1 33.73 193.1 33.01L193.1 5.83C193.09 5.69 193.1 5.55 193.15 5.42C193.19 5.28 193.27 5.16 193.37 5.06C193.47 4.96 193.59 4.89 193.72 4.84C193.86 4.8 194 4.78 194.14 4.8L198.74 4.8C199.45 4.8 199.81 5.15 199.81 5.83L199.81 28.2L208.16 28.2L208.16 5.83C208.14 5.69 208.15 5.55 208.2 5.42C208.24 5.28 208.32 5.16 208.42 5.06C208.52 4.96 208.64 4.89 208.77 4.84C208.91 4.8 209.05 4.78 209.19 4.8L213.79 4.8C214.5 4.8 214.86 5.15 214.86 5.83L214.86 28.2L223.21 28.2L223.21 5.83C223.19 5.69 223.2 5.55 223.25 5.42C223.3 5.28 223.37 5.16 223.47 5.06C223.57 4.96 223.69 4.89 223.83 4.84C223.96 4.8 224.1 4.78 224.24 4.8L228.84 4.8C229.56 4.8 229.91 5.15 229.91 5.83L229.91 33.01C229.93 33.16 229.91 33.3 229.87 33.44C229.82 33.58 229.74 33.7 229.64 33.81C229.53 33.91 229.41 33.99 229.27 34.04C229.13 34.08 228.99 34.1 228.84 34.08L194.14 34.08Z" fill="#FFFFFF" fill-opacity="1.000000" fill-rule="nonzero"/>
	<path id="Vector" d="M243.29 28.2L259.8 28.2C260.48 28.2 260.84 28.55 260.84 29.27L260.84 33.01C260.84 33.73 260.48 34.08 259.8 34.08L237.65 34.08C237.51 34.1 237.36 34.08 237.22 34.04C237.09 33.99 236.96 33.91 236.86 33.81C236.76 33.7 236.68 33.58 236.63 33.44C236.58 33.3 236.57 33.16 236.58 33.01L236.58 5.83C236.58 5.15 236.94 4.8 237.65 4.8L259.38 4.8C260.09 4.8 260.41 5.15 260.41 5.83L260.41 9.61C260.41 10.29 260.09 10.65 259.38 10.65L243.29 10.65L243.29 16.28L255.63 16.28C256.31 16.28 256.66 16.64 256.66 17.35L256.66 21.1C256.66 21.81 256.31 22.13 255.63 22.13L243.29 22.13L243.29 28.2Z" fill="#FFFFFF" fill-opacity="1.000000" fill-rule="nonzero"/>
	<path id="Vector" d="M264.19 28.62C264.49 28.65 264.8 28.61 265.09 28.51C265.38 28.41 265.64 28.26 265.87 28.05C266.3 27.66 266.59 27.13 266.69 26.56L271.07 5.83C271.22 5.15 271.72 4.8 272.54 4.8L290.12 4.8C290.26 4.78 290.4 4.8 290.54 4.84C290.67 4.89 290.79 4.96 290.89 5.06C290.99 5.16 291.07 5.28 291.11 5.42C291.16 5.55 291.17 5.69 291.16 5.83L291.16 33.01C291.16 33.73 290.8 34.08 290.12 34.08L285.52 34.08C285.38 34.1 285.23 34.08 285.09 34.04C284.95 33.99 284.83 33.91 284.73 33.81C284.62 33.7 284.54 33.58 284.5 33.44C284.45 33.3 284.43 33.16 284.45 33.01L284.45 10.65L276.75 10.65L273.18 27.59C272.72 29.8 271.82 31.48 270.58 32.69C269.33 33.9 267.44 34.47 265.01 34.47L263.16 34.47C262.44 34.47 262.09 34.15 262.09 33.44L262.09 29.66C262.09 28.98 262.44 28.62 263.16 28.62L264.19 28.62Z" fill="#FFFFFF" fill-opacity="1.000000" fill-rule="nonzero"/>
	<path id="Vector" d="M315.63 13.57C320.51 13.57 322.94 16.03 322.94 20.88L322.94 26.73C322.94 31.62 320.51 34.08 315.63 34.08L298.9 34.08C298.18 34.08 297.86 33.73 297.86 33.01L297.86 5.83C297.86 5.15 298.18 4.8 298.9 4.8L303.5 4.8C303.64 4.78 303.78 4.8 303.91 4.84C304.05 4.89 304.17 4.96 304.27 5.06C304.37 5.16 304.44 5.28 304.49 5.42C304.54 5.55 304.55 5.69 304.53 5.83L304.53 13.57L315.63 13.57ZM313.95 28.2C315.48 28.2 316.23 27.45 316.23 25.91L316.23 21.74C316.23 20.21 315.48 19.42 313.95 19.42L304.53 19.42L304.53 28.2L313.95 28.2Z" fill="#FFFFFF" fill-opacity="1.000000" fill-rule="nonzero"/>
	<path id="Vector" d="M328.57 28.2L333.39 5.83C333.53 5.15 334.03 4.8 334.85 4.8L352.4 4.8C353.11 4.8 353.47 5.15 353.47 5.83L353.47 28.2L355.97 28.2C356.64 28.2 357 28.55 357 29.27L357 38.04C357.02 38.18 357 38.32 356.96 38.46C356.91 38.59 356.84 38.71 356.74 38.81C356.64 38.91 356.52 38.99 356.38 39.03C356.25 39.08 356.11 39.09 355.97 39.08L351.37 39.08C350.65 39.08 350.33 38.72 350.33 38.04L350.33 34.08L332.14 34.08L332.14 38.04C332.14 38.72 331.78 39.08 331.07 39.08L326.5 39.08C325.79 39.08 325.43 38.72 325.43 38.04L325.43 29.27C325.42 29.12 325.43 28.98 325.48 28.84C325.53 28.7 325.61 28.58 325.71 28.47C325.81 28.37 325.94 28.29 326.07 28.24C326.21 28.2 326.36 28.18 326.5 28.2L328.57 28.2ZM339.02 10.65C338.38 13.57 337.74 16.5 337.13 19.46C336.53 22.42 335.89 25.31 335.28 28.2L346.76 28.2L346.76 10.65L339.02 10.65Z" fill="#FFFFFF" fill-opacity="1.000000" fill-rule="nonzero"/>
	<path id="Vector" d="M73.15 47.81C73.11 47.76 73.1 47.69 73.1 47.62C73.1 47.55 73.11 47.48 73.15 47.42C73.18 47.37 73.23 47.33 73.29 47.31C73.35 47.28 73.41 47.27 73.47 47.28L75.15 47.28C75.21 47.27 75.27 47.28 75.33 47.31C75.38 47.33 75.43 47.37 75.47 47.42L75.68 47.81L78.11 55.2L78.32 55.2L80.18 47.81C80.2 47.66 80.29 47.52 80.41 47.42C80.54 47.32 80.69 47.27 80.85 47.28L82.39 47.28C82.44 47.28 82.5 47.29 82.55 47.31C82.6 47.34 82.64 47.38 82.67 47.42C82.7 47.48 82.72 47.55 82.73 47.61C82.74 47.68 82.73 47.75 82.71 47.81L79.53 58.91C79.35 59.56 79.13 60.21 78.86 60.83C78.66 61.28 78.39 61.68 78.07 62.05C77.77 62.33 77.42 62.54 77.04 62.69C76.6 62.81 76.14 62.87 75.68 62.87L75.36 62.87C75.29 62.88 75.21 62.87 75.14 62.85C75.07 62.83 75 62.79 74.95 62.74C74.89 62.69 74.85 62.62 74.82 62.55C74.79 62.48 74.78 62.41 74.79 62.33L74.79 61.23C74.78 61.15 74.79 61.08 74.82 61.01C74.85 60.94 74.89 60.87 74.95 60.82C75 60.77 75.07 60.73 75.14 60.71C75.21 60.69 75.29 60.68 75.36 60.69L75.47 60.69C75.66 60.69 75.86 60.66 76.04 60.58C76.19 60.53 76.34 60.44 76.47 60.33C76.59 60.17 76.7 59.99 76.79 59.8C76.91 59.51 77.02 59.21 77.11 58.91L73.15 47.81Z" fill="#FFFFFF" fill-opacity="1.000000" fill-rule="nonzero"/>
	<path id="Vector" d="M86.92 54.09C86.89 54.46 86.99 54.83 87.2 55.13C87.5 55.35 87.87 55.45 88.24 55.41L90.77 55.41L90.77 47.92C90.76 47.85 90.76 47.77 90.78 47.7C90.81 47.63 90.85 47.57 90.9 47.52C90.95 47.46 91.01 47.42 91.09 47.4C91.16 47.38 91.23 47.37 91.3 47.39L92.62 47.39C92.7 47.37 92.77 47.38 92.84 47.4C92.91 47.42 92.98 47.46 93.03 47.52C93.08 47.57 93.12 47.63 93.14 47.7C93.17 47.77 93.17 47.85 93.16 47.92L93.16 62.22C93.17 62.3 93.17 62.37 93.14 62.44C93.12 62.51 93.08 62.58 93.03 62.63C92.98 62.68 92.91 62.72 92.84 62.74C92.77 62.77 92.7 62.77 92.62 62.76L91.3 62.76C91.23 62.77 91.16 62.77 91.09 62.74C91.01 62.72 90.95 62.68 90.9 62.63C90.85 62.58 90.81 62.51 90.78 62.44C90.76 62.37 90.76 62.3 90.77 62.22L90.77 57.59L87.56 57.59C85.53 57.59 84.49 56.59 84.49 54.52L84.49 47.92C84.48 47.85 84.48 47.77 84.51 47.7C84.53 47.63 84.57 47.57 84.62 47.52C84.67 47.46 84.74 47.42 84.81 47.4C84.88 47.38 84.95 47.37 85.03 47.39L86.35 47.39C86.74 47.39 86.92 47.56 86.92 47.92L86.92 54.09Z" fill="#FFFFFF" fill-opacity="1.000000" fill-rule="nonzero"/>
	<path id="Vector" d="M99.12 53.99L103.18 53.99C103.26 53.97 103.33 53.98 103.4 54C103.47 54.02 103.54 54.06 103.59 54.11C103.64 54.17 103.68 54.23 103.7 54.3C103.72 54.37 103.73 54.45 103.72 54.52L103.72 55.63C103.73 55.7 103.72 55.77 103.7 55.84C103.68 55.92 103.64 55.98 103.59 56.03C103.54 56.08 103.47 56.12 103.4 56.15C103.33 56.17 103.26 56.17 103.18 56.16L99.12 56.16L99.12 60.69L104.72 60.69C104.79 60.68 104.86 60.68 104.93 60.71C105 60.73 105.07 60.77 105.12 60.82C105.17 60.87 105.21 60.94 105.24 61.01C105.26 61.08 105.26 61.15 105.25 61.23L105.25 62.33C105.26 62.4 105.26 62.48 105.24 62.55C105.21 62.62 105.17 62.68 105.12 62.74C105.07 62.79 105 62.83 104.93 62.85C104.86 62.87 104.79 62.88 104.72 62.87L97.22 62.87C97.15 62.88 97.08 62.87 97.01 62.85C96.94 62.83 96.87 62.79 96.82 62.74C96.77 62.68 96.73 62.62 96.71 62.55C96.68 62.48 96.68 62.4 96.69 62.33L96.69 47.92C96.68 47.85 96.68 47.77 96.71 47.7C96.73 47.63 96.77 47.57 96.82 47.52C96.87 47.46 96.94 47.42 97.01 47.4C97.08 47.38 97.15 47.37 97.22 47.39L104.5 47.39C104.57 47.37 104.65 47.38 104.72 47.4C104.79 47.42 104.86 47.46 104.91 47.52C104.96 47.57 105 47.63 105.02 47.7C105.04 47.77 105.05 47.85 105.04 47.92L105.04 49.03C105.05 49.1 105.04 49.18 105.02 49.25C105 49.32 104.96 49.38 104.91 49.43C104.86 49.49 104.79 49.52 104.72 49.55C104.65 49.57 104.57 49.57 104.5 49.56L99.12 49.56L99.12 53.99Z" fill="#FFFFFF" fill-opacity="1.000000" fill-rule="nonzero"/>
	<path id="Vector" d="M110.1 53.2L113.49 53.2C115.56 53.2 116.56 54.23 116.56 56.27L116.56 59.69C116.56 61.73 115.56 62.76 113.49 62.76L108.21 62.76C108.14 62.77 108.06 62.77 107.99 62.74C107.92 62.72 107.86 62.68 107.81 62.63C107.75 62.58 107.71 62.51 107.69 62.44C107.67 62.37 107.66 62.3 107.68 62.22L107.68 47.92C107.66 47.85 107.67 47.77 107.69 47.7C107.71 47.63 107.75 47.57 107.81 47.52C107.86 47.46 107.92 47.42 107.99 47.4C108.06 47.38 108.14 47.37 108.21 47.39L115.38 47.39C115.45 47.37 115.53 47.38 115.6 47.4C115.67 47.42 115.73 47.46 115.79 47.52C115.84 47.57 115.88 47.63 115.9 47.7C115.92 47.77 115.93 47.85 115.92 47.92L115.92 49.03C115.93 49.1 115.92 49.18 115.9 49.25C115.88 49.32 115.84 49.38 115.79 49.43C115.73 49.49 115.67 49.52 115.6 49.55C115.53 49.57 115.45 49.57 115.38 49.56L110.1 49.56L110.1 53.2ZM112.85 60.55C113.03 60.57 113.22 60.56 113.39 60.51C113.57 60.46 113.74 60.38 113.88 60.26C114.1 59.98 114.2 59.62 114.17 59.26L114.17 56.73C114.2 56.36 114.1 56 113.88 55.7C113.74 55.58 113.57 55.5 113.39 55.45C113.22 55.4 113.03 55.39 112.85 55.41L110.1 55.41L110.1 60.55L112.85 60.55Z" fill="#FFFFFF" fill-opacity="1.000000" fill-rule="nonzero"/>
	<path id="Vector" d="M119.66 47.92C119.65 47.85 119.65 47.77 119.68 47.7C119.7 47.63 119.74 47.57 119.79 47.52C119.84 47.46 119.91 47.42 119.98 47.4C120.05 47.38 120.12 47.37 120.2 47.39L121.52 47.39C121.87 47.39 122.05 47.56 122.05 47.96L122.05 54.09L126.37 54.09L126.37 47.96C126.37 47.56 126.55 47.39 126.9 47.39L128.22 47.39C128.29 47.37 128.37 47.38 128.44 47.4C128.51 47.42 128.57 47.46 128.63 47.52C128.68 47.57 128.72 47.63 128.74 47.7C128.76 47.77 128.77 47.85 128.76 47.92L128.76 62.33C128.77 62.4 128.76 62.48 128.74 62.55C128.72 62.62 128.68 62.68 128.63 62.74C128.57 62.79 128.51 62.83 128.44 62.85C128.37 62.87 128.29 62.88 128.22 62.87L126.9 62.87C126.83 62.88 126.75 62.87 126.68 62.85C126.61 62.83 126.55 62.79 126.5 62.74C126.44 62.68 126.4 62.62 126.38 62.55C126.36 62.48 126.35 62.4 126.37 62.33L126.37 56.27L122.05 56.27L122.05 62.33C122.06 62.4 122.06 62.48 122.04 62.55C122.01 62.62 121.97 62.68 121.92 62.74C121.87 62.79 121.81 62.83 121.73 62.85C121.66 62.87 121.59 62.88 121.52 62.87L120.2 62.87C120.12 62.88 120.05 62.87 119.98 62.85C119.91 62.83 119.84 62.79 119.79 62.74C119.74 62.68 119.7 62.62 119.68 62.55C119.65 62.48 119.65 62.4 119.66 62.33L119.66 47.92Z" fill="#FFFFFF" fill-opacity="1.000000" fill-rule="nonzero"/>
	<path id="Vector" d="M135.14 62.87C133.07 62.87 132.07 61.87 132.07 59.83L132.07 50.31C132.07 48.28 133.07 47.28 135.14 47.28L138.53 47.28C140.6 47.28 141.63 48.28 141.63 50.31L141.63 59.83C141.63 61.87 140.6 62.87 138.53 62.87L135.14 62.87ZM137.89 60.69C138.25 60.73 138.62 60.62 138.92 60.41C139.14 60.1 139.24 59.74 139.21 59.37L139.21 50.77C139.26 50.59 139.26 50.4 139.21 50.21C139.16 50.03 139.07 49.86 138.93 49.73C138.8 49.59 138.63 49.5 138.45 49.45C138.26 49.4 138.07 49.4 137.89 49.46L135.78 49.46C135.42 49.43 135.05 49.53 134.75 49.74C134.53 50.04 134.43 50.41 134.46 50.77L134.46 59.37C134.41 59.55 134.41 59.75 134.46 59.93C134.51 60.12 134.6 60.28 134.74 60.42C134.87 60.55 135.04 60.65 135.22 60.7C135.41 60.74 135.6 60.74 135.78 60.69L137.89 60.69Z" fill="#FFFFFF" fill-opacity="1.000000" fill-rule="nonzero"/>
	<path id="Vector" d="M149.3 54.84C149.38 54.83 149.46 54.84 149.53 54.86C149.61 54.88 149.68 54.93 149.73 54.98C149.79 55.04 149.83 55.11 149.85 55.18C149.88 55.26 149.88 55.33 149.87 55.41L149.87 56.38C149.88 56.45 149.88 56.53 149.85 56.61C149.83 56.68 149.79 56.75 149.73 56.81C149.68 56.86 149.61 56.9 149.53 56.93C149.46 56.95 149.38 56.96 149.3 56.95L144.38 56.95C144.3 56.96 144.22 56.95 144.15 56.93C144.07 56.9 144 56.86 143.95 56.81C143.89 56.75 143.85 56.68 143.83 56.61C143.8 56.53 143.8 56.45 143.81 56.38L143.81 55.41C143.8 55.33 143.8 55.26 143.83 55.18C143.85 55.11 143.89 55.04 143.95 54.98C144 54.93 144.07 54.88 144.15 54.86C144.22 54.84 144.3 54.83 144.38 54.84L149.3 54.84Z" fill="#FFFFFF" fill-opacity="1.000000" fill-rule="nonzero"/>
	<path id="Vector" d="M158 62.87C157.75 62.87 157.61 62.83 157.54 62.72C157.44 62.61 157.36 62.48 157.33 62.33L154.9 53.31L154.69 53.31L154.69 62.33C154.7 62.4 154.69 62.48 154.67 62.55C154.65 62.62 154.61 62.68 154.56 62.74C154.51 62.79 154.44 62.83 154.37 62.85C154.3 62.87 154.23 62.88 154.15 62.87L152.83 62.87C152.76 62.88 152.68 62.87 152.61 62.85C152.54 62.83 152.47 62.79 152.42 62.74C152.36 62.69 152.32 62.62 152.29 62.55C152.27 62.48 152.26 62.41 152.26 62.33L152.26 47.92C152.26 47.85 152.27 47.77 152.29 47.7C152.32 47.63 152.36 47.57 152.42 47.52C152.47 47.46 152.54 47.43 152.61 47.4C152.68 47.38 152.76 47.38 152.83 47.39L154.79 47.39C154.97 47.36 155.14 47.41 155.29 47.5C155.43 47.6 155.54 47.75 155.58 47.92L158.33 58.16L158.54 58.16L161.29 47.92C161.33 47.75 161.43 47.6 161.58 47.5C161.72 47.41 161.9 47.36 162.07 47.39L164.03 47.39C164.11 47.37 164.18 47.38 164.25 47.4C164.32 47.42 164.39 47.46 164.44 47.52C164.49 47.57 164.53 47.63 164.55 47.7C164.58 47.77 164.58 47.85 164.57 47.92L164.57 62.33C164.58 62.4 164.58 62.48 164.55 62.55C164.53 62.62 164.49 62.68 164.44 62.74C164.39 62.79 164.32 62.83 164.25 62.85C164.18 62.87 164.11 62.88 164.03 62.87L162.71 62.87C162.64 62.88 162.57 62.87 162.49 62.85C162.42 62.83 162.36 62.79 162.31 62.74C162.25 62.68 162.22 62.62 162.19 62.55C162.17 62.48 162.17 62.4 162.18 62.33L162.18 53.31L161.93 53.31L159.54 62.33L159.32 62.72C159.26 62.78 159.19 62.82 159.11 62.84C159.03 62.87 158.94 62.88 158.86 62.87L158 62.87Z" fill="#FFFFFF" fill-opacity="1.000000" fill-rule="nonzero"/>
	<path id="Vector" d="M170.52 53.99L174.59 53.99C174.66 53.97 174.74 53.98 174.81 54C174.88 54.02 174.94 54.06 175 54.11C175.05 54.17 175.09 54.23 175.11 54.3C175.13 54.37 175.14 54.45 175.13 54.52L175.13 55.63C175.14 55.7 175.13 55.77 175.11 55.84C175.09 55.92 175.05 55.98 175 56.03C174.94 56.08 174.88 56.12 174.81 56.15C174.74 56.17 174.66 56.17 174.59 56.16L170.52 56.16L170.52 60.69L176.13 60.69C176.2 60.68 176.27 60.68 176.34 60.71C176.41 60.73 176.48 60.77 176.53 60.82C176.58 60.87 176.62 60.94 176.64 61.01C176.67 61.08 176.67 61.15 176.66 61.23L176.66 62.33C176.67 62.4 176.67 62.48 176.64 62.55C176.62 62.62 176.58 62.68 176.53 62.74C176.48 62.79 176.41 62.83 176.34 62.85C176.27 62.87 176.2 62.88 176.13 62.87L168.63 62.87C168.56 62.88 168.49 62.87 168.42 62.85C168.35 62.83 168.28 62.79 168.23 62.74C168.18 62.68 168.14 62.62 168.11 62.55C168.09 62.48 168.09 62.4 168.1 62.33L168.1 47.92C168.09 47.85 168.09 47.77 168.11 47.7C168.14 47.63 168.18 47.57 168.23 47.52C168.28 47.46 168.35 47.42 168.42 47.4C168.49 47.38 168.56 47.37 168.63 47.39L175.91 47.39C175.98 47.37 176.06 47.38 176.13 47.4C176.2 47.42 176.26 47.46 176.32 47.52C176.37 47.57 176.41 47.63 176.43 47.7C176.45 47.77 176.46 47.85 176.45 47.92L176.45 49.03C176.46 49.1 176.45 49.18 176.43 49.25C176.41 49.32 176.37 49.38 176.32 49.43C176.26 49.49 176.2 49.52 176.13 49.55C176.06 49.57 175.98 49.57 175.91 49.56L170.52 49.56L170.52 53.99Z" fill="#FFFFFF" fill-opacity="1.000000" fill-rule="nonzero"/>
	<path id="Vector" d="M183.26 62.33C183.27 62.4 183.27 62.48 183.24 62.55C183.22 62.62 183.18 62.68 183.13 62.74C183.08 62.79 183.01 62.83 182.94 62.85C182.87 62.87 182.8 62.88 182.72 62.87L181.4 62.87C181.01 62.87 180.83 62.69 180.83 62.33L180.83 49.56L178.09 49.56C178.01 49.57 177.94 49.57 177.87 49.55C177.8 49.52 177.73 49.49 177.68 49.43C177.63 49.38 177.59 49.32 177.57 49.25C177.54 49.18 177.54 49.1 177.55 49.03L177.55 47.92C177.54 47.85 177.54 47.77 177.57 47.7C177.59 47.63 177.63 47.57 177.68 47.52C177.73 47.46 177.8 47.42 177.87 47.4C177.94 47.38 178.01 47.37 178.09 47.39L186.01 47.39C186.08 47.37 186.15 47.38 186.22 47.4C186.29 47.42 186.36 47.46 186.41 47.52C186.46 47.57 186.5 47.63 186.53 47.7C186.55 47.77 186.55 47.85 186.54 47.92L186.54 49.03C186.55 49.1 186.55 49.18 186.53 49.25C186.5 49.32 186.46 49.38 186.41 49.43C186.36 49.49 186.29 49.52 186.22 49.55C186.15 49.57 186.08 49.57 186.01 49.56L183.26 49.56L183.26 62.33Z" fill="#FFFFFF" fill-opacity="1.000000" fill-rule="nonzero"/>
	<path id="Vector" d="M191.39 62.87C189.32 62.87 188.32 61.87 188.32 59.83L188.32 50.31C188.32 48.28 189.32 47.28 191.39 47.28L194.78 47.28C196.85 47.28 197.88 48.28 197.88 50.31L197.88 59.83C197.88 61.87 196.85 62.87 194.78 62.87L191.39 62.87ZM194.14 60.69C194.32 60.74 194.51 60.74 194.7 60.7C194.88 60.65 195.05 60.55 195.18 60.42C195.32 60.28 195.41 60.12 195.46 59.93C195.51 59.75 195.51 59.55 195.46 59.37L195.46 50.77C195.49 50.41 195.39 50.04 195.17 49.74C194.87 49.53 194.51 49.43 194.14 49.46L192.03 49.46C191.67 49.43 191.3 49.53 191 49.74C190.78 50.04 190.68 50.41 190.71 50.77L190.71 59.37C190.66 59.55 190.66 59.75 190.71 59.93C190.76 60.12 190.85 60.28 190.99 60.42C191.12 60.55 191.29 60.65 191.47 60.7C191.66 60.74 191.85 60.74 192.03 60.69L194.14 60.69Z" fill="#FFFFFF" fill-opacity="1.000000" fill-rule="nonzero"/>
	<path id="Vector" d="M202.27 47.92C202.32 47.56 202.5 47.39 202.81 47.39L208.73 47.39C209.12 47.39 209.3 47.56 209.3 47.92L209.3 60.55L209.94 60.55C210.02 60.54 210.1 60.54 210.17 60.57C210.25 60.59 210.31 60.63 210.37 60.69C210.43 60.74 210.47 60.81 210.49 60.89C210.52 60.96 210.52 61.04 210.51 61.12L210.51 65.08C210.51 65.43 210.33 65.61 209.94 65.61L208.62 65.61C208.55 65.63 208.47 65.62 208.4 65.6C208.33 65.58 208.27 65.54 208.21 65.48C208.16 65.43 208.12 65.37 208.1 65.3C208.08 65.23 208.07 65.15 208.08 65.08L208.08 62.76L201.81 62.76L201.81 65.08C201.82 65.15 201.81 65.23 201.79 65.3C201.77 65.37 201.73 65.43 201.68 65.48C201.62 65.54 201.56 65.58 201.49 65.6C201.42 65.62 201.34 65.63 201.27 65.61L199.95 65.61C199.88 65.63 199.8 65.62 199.73 65.6C199.66 65.58 199.6 65.54 199.55 65.48C199.49 65.43 199.45 65.37 199.43 65.3C199.41 65.23 199.4 65.15 199.42 65.08L199.42 61.12C199.41 61.04 199.41 60.97 199.43 60.9C199.46 60.83 199.49 60.76 199.55 60.7C199.6 60.65 199.66 60.61 199.73 60.58C199.8 60.55 199.88 60.54 199.95 60.55L200.49 60.55L202.27 47.92ZM204.45 49.56L202.91 60.55L206.87 60.55L206.87 49.56L204.45 49.56Z" fill="#FFFFFF" fill-opacity="1.000000" fill-rule="nonzero"/>
	<path id="Vector" d="M219.71 52.45L216.11 62.22C216.04 62.37 215.94 62.5 215.82 62.62C215.68 62.73 215.5 62.78 215.33 62.76L213.47 62.76C213.4 62.77 213.32 62.77 213.25 62.74C213.18 62.72 213.12 62.68 213.06 62.63C213.01 62.58 212.97 62.51 212.95 62.44C212.93 62.37 212.92 62.3 212.94 62.22L212.94 47.92C212.92 47.85 212.93 47.77 212.95 47.7C212.97 47.63 213.01 47.57 213.06 47.52C213.12 47.46 213.18 47.42 213.25 47.4C213.32 47.38 213.4 47.37 213.47 47.39L214.79 47.39C214.86 47.37 214.94 47.38 215.01 47.4C215.08 47.42 215.14 47.46 215.2 47.52C215.25 47.57 215.29 47.63 215.31 47.7C215.33 47.77 215.34 47.85 215.33 47.92L215.33 57.69L215.54 57.69L219.18 47.92C219.25 47.78 219.35 47.64 219.46 47.53C219.53 47.47 219.61 47.43 219.7 47.4C219.78 47.38 219.87 47.37 219.96 47.39L221.82 47.39C221.89 47.37 221.96 47.38 222.04 47.4C222.11 47.42 222.17 47.46 222.22 47.52C222.28 47.57 222.31 47.63 222.34 47.7C222.36 47.77 222.36 47.85 222.35 47.92L222.35 62.22C222.36 62.3 222.36 62.37 222.34 62.44C222.31 62.51 222.28 62.58 222.22 62.63C222.17 62.68 222.11 62.72 222.04 62.74C221.96 62.77 221.89 62.77 221.82 62.76L220.5 62.76C220.42 62.77 220.35 62.77 220.28 62.74C220.21 62.72 220.14 62.68 220.09 62.63C220.04 62.58 220 62.51 219.98 62.44C219.95 62.37 219.95 62.3 219.96 62.22L219.96 52.45L219.71 52.45Z" fill="#FFFFFF" fill-opacity="1.000000" fill-rule="nonzero"/>
	<path id="Vector" d="M228.09 54.09C228.07 54.27 228.08 54.46 228.13 54.64C228.18 54.82 228.27 54.98 228.38 55.13C228.67 55.34 229.02 55.44 229.38 55.41L231.91 55.41L231.91 47.92C231.91 47.56 232.09 47.39 232.48 47.39L233.8 47.39C233.87 47.37 233.95 47.38 234.02 47.4C234.09 47.42 234.15 47.46 234.21 47.52C234.26 47.57 234.3 47.63 234.32 47.7C234.34 47.77 234.35 47.85 234.34 47.92L234.34 62.22C234.35 62.3 234.34 62.37 234.32 62.44C234.3 62.51 234.26 62.58 234.21 62.63C234.15 62.68 234.09 62.72 234.02 62.74C233.95 62.77 233.87 62.77 233.8 62.76L232.48 62.76C232.09 62.76 231.91 62.58 231.91 62.22L231.91 57.59L228.74 57.59C226.7 57.59 225.67 56.59 225.67 54.52L225.67 47.92C225.66 47.85 225.66 47.77 225.68 47.7C225.71 47.63 225.75 47.57 225.8 47.52C225.85 47.46 225.91 47.42 225.99 47.4C226.06 47.38 226.13 47.37 226.2 47.39L227.52 47.39C227.6 47.38 227.67 47.38 227.75 47.4C227.82 47.43 227.88 47.46 227.94 47.52C227.99 47.57 228.04 47.63 228.06 47.7C228.09 47.77 228.1 47.85 228.09 47.92L228.09 54.09Z" fill="#FFFFFF" fill-opacity="1.000000" fill-rule="nonzero"/>
	<path id="Vector" d="M240.26 53.99L244.32 53.99C244.72 53.99 244.89 54.16 244.89 54.52L244.89 55.63C244.89 55.98 244.72 56.16 244.32 56.16L240.26 56.16L240.26 60.69L245.86 60.69C246.25 60.69 246.43 60.87 246.43 61.23L246.43 62.33C246.43 62.69 246.25 62.87 245.86 62.87L238.4 62.87C238.33 62.88 238.25 62.87 238.18 62.85C238.11 62.83 238.05 62.79 238 62.74C237.94 62.68 237.91 62.62 237.88 62.55C237.86 62.48 237.86 62.4 237.87 62.33L237.87 47.92C237.86 47.85 237.86 47.77 237.88 47.7C237.91 47.63 237.94 47.57 238 47.52C238.05 47.46 238.11 47.42 238.18 47.4C238.25 47.38 238.33 47.37 238.4 47.39L245.64 47.39C246.04 47.39 246.21 47.56 246.21 47.92L246.21 49.03C246.21 49.38 246.04 49.56 245.64 49.56L240.26 49.56L240.26 53.99Z" fill="#FFFFFF" fill-opacity="1.000000" fill-rule="nonzero"/>
	<path id="Vector" d="M257.95 51.84C257.96 51.92 257.96 51.99 257.93 52.06C257.91 52.13 257.87 52.2 257.82 52.25C257.77 52.3 257.7 52.34 257.63 52.36C257.56 52.39 257.49 52.39 257.41 52.38L256.09 52.38C256.02 52.39 255.95 52.39 255.88 52.36C255.81 52.34 255.74 52.3 255.69 52.25C255.64 52.2 255.6 52.13 255.57 52.06C255.55 51.99 255.55 51.92 255.56 51.84L255.56 50.77C255.6 50.41 255.49 50.04 255.27 49.74C254.97 49.53 254.61 49.43 254.24 49.46L252.35 49.46C251.98 49.43 251.62 49.53 251.31 49.74C251.1 50.04 250.99 50.41 251.03 50.77L251.03 59.37C250.98 59.55 250.98 59.75 251.02 59.93C251.07 60.12 251.17 60.28 251.3 60.42C251.44 60.55 251.6 60.65 251.79 60.7C251.97 60.74 252.17 60.74 252.35 60.69L254.24 60.69C254.42 60.74 254.62 60.74 254.8 60.7C254.98 60.65 255.15 60.55 255.29 60.42C255.42 60.28 255.52 60.12 255.56 59.93C255.61 59.75 255.61 59.55 255.56 59.37L255.56 58.3C255.55 58.23 255.55 58.15 255.57 58.08C255.6 58.01 255.64 57.95 255.69 57.9C255.74 57.84 255.81 57.8 255.88 57.78C255.95 57.76 256.02 57.75 256.09 57.77L257.41 57.77C257.49 57.75 257.56 57.76 257.63 57.78C257.7 57.8 257.77 57.84 257.82 57.9C257.87 57.95 257.91 58.01 257.93 58.08C257.96 58.15 257.96 58.23 257.95 58.3L257.95 59.83C257.95 61.87 256.95 62.87 254.88 62.87L251.71 62.87C249.64 62.87 248.6 61.87 248.6 59.83L248.6 50.31C248.6 48.28 249.64 47.28 251.71 47.28L254.88 47.28C256.95 47.28 257.95 48.28 257.95 50.31L257.95 51.84Z" fill="#FFFFFF" fill-opacity="1.000000" fill-rule="nonzero"/>
	<path id="Vector" d="M263.44 62.33C263.45 62.4 263.45 62.48 263.43 62.55C263.4 62.62 263.37 62.68 263.31 62.74C263.26 62.79 263.2 62.83 263.13 62.85C263.06 62.87 262.98 62.88 262.91 62.87L261.59 62.87C261.51 62.88 261.44 62.87 261.37 62.85C261.3 62.83 261.23 62.79 261.18 62.74C261.13 62.68 261.09 62.62 261.07 62.55C261.04 62.48 261.04 62.4 261.05 62.33L261.05 47.92C261.04 47.85 261.04 47.77 261.07 47.7C261.09 47.63 261.13 47.57 261.18 47.52C261.23 47.46 261.3 47.42 261.37 47.4C261.44 47.38 261.51 47.37 261.59 47.39L262.91 47.39C263.26 47.39 263.44 47.56 263.44 47.96L263.44 53.74L265.23 53.74L267.19 47.96C267.24 47.8 267.33 47.65 267.44 47.53C267.59 47.42 267.78 47.37 267.97 47.39L269.4 47.39C269.47 47.38 269.54 47.39 269.61 47.42C269.68 47.44 269.74 47.48 269.79 47.53C269.84 47.58 269.87 47.65 269.88 47.72C269.88 47.79 269.87 47.86 269.83 47.92L267.29 54.73L270.15 62.33C270.19 62.39 270.2 62.46 270.2 62.53C270.19 62.6 270.16 62.67 270.11 62.72C270.06 62.77 270 62.81 269.93 62.84C269.86 62.86 269.79 62.87 269.72 62.87L268.29 62.87C268.11 62.88 267.94 62.83 267.79 62.72C267.67 62.62 267.57 62.48 267.51 62.33L265.33 55.95L263.44 55.95L263.44 62.33Z" fill="#FFFFFF" fill-opacity="1.000000" fill-rule="nonzero"/>
	<path id="Vector" d="M279.21 52.45L275.57 62.22C275.51 62.37 275.42 62.5 275.32 62.62C275.18 62.73 275 62.78 274.82 62.76L272.93 62.76C272.86 62.77 272.78 62.77 272.71 62.74C272.64 62.72 272.58 62.68 272.52 62.63C272.47 62.58 272.43 62.51 272.41 62.44C272.39 62.37 272.38 62.3 272.39 62.22L272.39 47.92C272.38 47.85 272.39 47.77 272.41 47.7C272.43 47.63 272.47 47.57 272.52 47.52C272.58 47.46 272.64 47.42 272.71 47.4C272.78 47.38 272.86 47.37 272.93 47.39L274.25 47.39C274.64 47.39 274.82 47.56 274.82 47.92L274.82 57.69L275.03 57.69L278.67 47.92C278.73 47.78 278.82 47.65 278.92 47.53C279.06 47.42 279.24 47.37 279.42 47.39L281.28 47.39C281.67 47.39 281.85 47.56 281.85 47.92L281.85 62.22C281.85 62.58 281.67 62.76 281.28 62.76L279.99 62.76C279.6 62.76 279.42 62.58 279.42 62.22L279.42 52.45L279.21 52.45Z" fill="#FFFFFF" fill-opacity="1.000000" fill-rule="nonzero"/>
	<path id="Vector" d="M292.16 52.45L288.55 62.22C288.48 62.37 288.38 62.5 288.27 62.62C288.12 62.73 287.95 62.78 287.77 62.76L285.91 62.76C285.84 62.77 285.76 62.77 285.69 62.74C285.62 62.72 285.55 62.68 285.5 62.63C285.44 62.58 285.4 62.52 285.37 62.45C285.35 62.38 285.34 62.3 285.34 62.22L285.34 47.92C285.34 47.85 285.35 47.77 285.37 47.7C285.4 47.63 285.44 47.57 285.5 47.52C285.55 47.47 285.62 47.43 285.69 47.4C285.76 47.38 285.84 47.38 285.91 47.39L287.23 47.39C287.31 47.37 287.38 47.38 287.45 47.4C287.52 47.42 287.59 47.46 287.64 47.52C287.69 47.57 287.73 47.63 287.75 47.7C287.78 47.77 287.78 47.85 287.77 47.92L287.77 57.7L287.98 57.7L291.62 47.92C291.69 47.78 291.79 47.64 291.91 47.53C291.97 47.47 292.05 47.43 292.14 47.41C292.23 47.38 292.32 47.37 292.41 47.39L294.26 47.39C294.33 47.37 294.41 47.38 294.48 47.4C294.55 47.42 294.61 47.46 294.67 47.52C294.72 47.57 294.76 47.63 294.78 47.7C294.8 47.77 294.81 47.85 294.79 47.92L294.79 62.22C294.81 62.3 294.8 62.37 294.78 62.44C294.76 62.51 294.72 62.58 294.67 62.63C294.61 62.68 294.55 62.72 294.48 62.74C294.41 62.77 294.33 62.77 294.26 62.76L292.94 62.76C292.87 62.77 292.79 62.77 292.72 62.74C292.65 62.72 292.59 62.68 292.53 62.63C292.48 62.58 292.44 62.51 292.42 62.44C292.4 62.37 292.39 62.3 292.41 62.22L292.41 52.45L292.16 52.45ZM290.3 43.64C290.37 43.65 290.45 43.65 290.52 43.63C290.59 43.6 290.65 43.56 290.71 43.51C290.76 43.46 290.8 43.4 290.82 43.32C290.84 43.25 290.85 43.18 290.84 43.11L290.84 42.21C290.83 42.14 290.84 42.06 290.87 41.99C290.89 41.92 290.94 41.86 290.99 41.81C291.05 41.76 291.11 41.72 291.18 41.7C291.26 41.67 291.33 41.67 291.41 41.68L292.26 41.68C292.65 41.68 292.83 41.86 292.83 42.21L292.83 43.32C292.85 43.6 292.81 43.88 292.71 44.15C292.61 44.41 292.46 44.65 292.26 44.85C292.06 45.04 291.81 45.19 291.55 45.28C291.29 45.37 291.01 45.41 290.73 45.39L289.41 45.39C288.85 45.42 288.3 45.22 287.88 44.85C287.69 44.65 287.54 44.4 287.45 44.14C287.36 43.88 287.32 43.6 287.34 43.32L287.34 42.21C287.33 42.14 287.33 42.07 287.35 42C287.38 41.93 287.42 41.86 287.47 41.81C287.52 41.76 287.59 41.72 287.66 41.7C287.73 41.67 287.8 41.67 287.88 41.68L288.77 41.68C288.84 41.67 288.91 41.67 288.99 41.7C289.06 41.72 289.12 41.76 289.17 41.81C289.23 41.86 289.26 41.93 289.29 42C289.31 42.07 289.31 42.14 289.3 42.21L289.3 43.11C289.3 43.46 289.48 43.64 289.87 43.64L290.3 43.64Z" fill="#FFFFFF" fill-opacity="1.000000" fill-rule="nonzero"/>
	<path id="Vector" d="M311.06 61.44L312.81 63.29C312.86 63.34 312.91 63.4 312.94 63.47C312.97 63.54 312.99 63.61 312.99 63.69C312.99 63.76 312.98 63.84 312.95 63.91C312.91 63.97 312.87 64.03 312.81 64.08L311.95 64.97C311.85 65.07 311.71 65.14 311.56 65.15C311.41 65.14 311.27 65.08 311.17 64.97L309.21 62.76L302.82 62.76C302.75 62.77 302.67 62.77 302.6 62.74C302.53 62.72 302.47 62.68 302.41 62.63C302.36 62.58 302.32 62.51 302.3 62.44C302.28 62.37 302.27 62.3 302.29 62.22L302.29 47.92C302.27 47.85 302.28 47.77 302.3 47.7C302.32 47.63 302.36 47.57 302.41 47.52C302.47 47.46 302.53 47.42 302.6 47.4C302.67 47.38 302.75 47.37 302.82 47.39L304.14 47.39C304.21 47.37 304.29 47.38 304.36 47.4C304.43 47.42 304.49 47.46 304.55 47.52C304.6 47.57 304.64 47.63 304.66 47.7C304.68 47.77 304.69 47.85 304.68 47.92L304.68 60.55L308.63 60.55L308.63 47.92C308.63 47.56 308.81 47.39 309.21 47.39L310.53 47.39C310.6 47.37 310.67 47.38 310.74 47.4C310.81 47.42 310.88 47.46 310.93 47.52C310.98 47.57 311.02 47.63 311.04 47.7C311.07 47.77 311.07 47.85 311.06 47.92L311.06 61.44Z" fill="#FFFFFF" fill-opacity="1.000000" fill-rule="nonzero"/>
	<path id="Vector" d="M317.05 53.99L321.12 53.99C321.19 53.97 321.27 53.98 321.34 54C321.41 54.03 321.48 54.06 321.53 54.11C321.59 54.17 321.63 54.23 321.66 54.3C321.68 54.37 321.7 54.45 321.69 54.52L321.69 55.63C321.7 55.7 321.68 55.78 321.66 55.85C321.63 55.92 321.59 55.98 321.53 56.03C321.48 56.08 321.41 56.12 321.34 56.14C321.27 56.17 321.19 56.17 321.12 56.16L317.05 56.16L317.05 60.69L322.65 60.69C323.04 60.69 323.22 60.87 323.22 61.23L323.22 62.33C323.22 62.69 323.04 62.87 322.65 62.87L315.2 62.87C315.12 62.88 315.05 62.87 314.98 62.85C314.91 62.83 314.84 62.79 314.79 62.74C314.74 62.68 314.7 62.62 314.68 62.55C314.66 62.48 314.65 62.4 314.66 62.33L314.66 47.92C314.65 47.85 314.66 47.77 314.68 47.7C314.7 47.63 314.74 47.57 314.79 47.52C314.84 47.46 314.91 47.42 314.98 47.4C315.05 47.38 315.12 47.37 315.2 47.39L322.44 47.39C322.51 47.38 322.59 47.38 322.66 47.4C322.73 47.43 322.8 47.46 322.85 47.52C322.91 47.57 322.95 47.63 322.98 47.7C323 47.77 323.01 47.85 323.01 47.92L323.01 49.03C323.01 49.1 323 49.18 322.98 49.25C322.95 49.32 322.91 49.38 322.85 49.43C322.8 49.48 322.73 49.52 322.66 49.54C322.59 49.57 322.51 49.57 322.44 49.56L317.05 49.56L317.05 53.99Z" fill="#FFFFFF" fill-opacity="1.000000" fill-rule="nonzero"/>
	<path id="Vector" d="M325.65 47.92C325.64 47.85 325.64 47.77 325.66 47.7C325.69 47.63 325.73 47.57 325.78 47.52C325.83 47.46 325.89 47.42 325.97 47.4C326.04 47.38 326.11 47.37 326.18 47.39L327.5 47.39C327.86 47.39 328.04 47.56 328.04 47.96L328.04 54.09L332.32 54.09L332.32 47.96C332.31 47.88 332.31 47.8 332.34 47.73C332.36 47.65 332.4 47.58 332.46 47.53C332.51 47.47 332.58 47.43 332.66 47.4C332.73 47.38 332.81 47.37 332.89 47.39L334.21 47.39C334.28 47.37 334.36 47.38 334.43 47.4C334.5 47.42 334.56 47.46 334.61 47.52C334.67 47.57 334.71 47.63 334.73 47.7C334.75 47.77 334.76 47.85 334.74 47.92L334.74 62.33C334.76 62.4 334.75 62.48 334.73 62.55C334.71 62.62 334.67 62.68 334.61 62.74C334.56 62.79 334.5 62.83 334.43 62.85C334.36 62.87 334.28 62.88 334.21 62.87L332.89 62.87C332.82 62.88 332.74 62.87 332.67 62.85C332.6 62.83 332.53 62.79 332.47 62.74C332.42 62.69 332.38 62.62 332.35 62.55C332.32 62.48 332.31 62.41 332.32 62.33L332.32 56.27L328.04 56.27L328.04 62.33C328.05 62.4 328.05 62.48 328.02 62.55C328 62.62 327.96 62.68 327.91 62.74C327.86 62.79 327.79 62.83 327.72 62.85C327.65 62.87 327.58 62.88 327.5 62.87L326.18 62.87C326.11 62.88 326.04 62.87 325.97 62.85C325.89 62.83 325.83 62.79 325.78 62.74C325.73 62.68 325.69 62.62 325.66 62.55C325.64 62.48 325.64 62.4 325.65 62.33L325.65 47.92Z" fill="#FFFFFF" fill-opacity="1.000000" fill-rule="nonzero"/>
	<path id="Vector" d="M342.45 62.33C342.45 62.69 342.27 62.87 341.88 62.87L340.56 62.87C340.49 62.88 340.41 62.87 340.34 62.85C340.27 62.83 340.2 62.79 340.15 62.74C340.1 62.68 340.06 62.62 340.04 62.55C340.02 62.48 340.01 62.4 340.02 62.33L340.02 49.56L337.28 49.56C337.2 49.57 337.13 49.57 337.06 49.55C336.99 49.52 336.92 49.49 336.87 49.43C336.82 49.38 336.78 49.32 336.76 49.25C336.73 49.18 336.73 49.1 336.74 49.03L336.74 47.92C336.73 47.85 336.73 47.77 336.76 47.7C336.78 47.63 336.82 47.57 336.87 47.52C336.92 47.46 336.99 47.42 337.06 47.4C337.13 47.38 337.2 47.37 337.28 47.39L345.2 47.39C345.27 47.37 345.34 47.38 345.41 47.4C345.48 47.42 345.55 47.46 345.6 47.52C345.65 47.57 345.69 47.63 345.71 47.7C345.74 47.77 345.74 47.85 345.73 47.92L345.73 49.03C345.74 49.1 345.74 49.18 345.71 49.25C345.69 49.32 345.65 49.38 345.6 49.43C345.55 49.49 345.48 49.52 345.41 49.55C345.34 49.57 345.27 49.57 345.2 49.56L342.45 49.56L342.45 62.33Z" fill="#FFFFFF" fill-opacity="1.000000" fill-rule="nonzero"/>
	<path id="Vector" d="M347.73 47.92C347.72 47.85 347.72 47.77 347.74 47.7C347.77 47.63 347.8 47.57 347.86 47.52C347.91 47.46 347.97 47.42 348.04 47.4C348.11 47.38 348.19 47.37 348.26 47.39L353.65 47.39C355.68 47.39 356.72 48.42 356.72 50.49L356.72 55.06C356.72 57.12 355.68 58.16 353.65 58.16L350.12 58.16L350.12 62.33C350.13 62.4 350.12 62.48 350.1 62.55C350.08 62.62 350.04 62.68 349.99 62.74C349.94 62.79 349.87 62.83 349.8 62.85C349.73 62.87 349.66 62.88 349.58 62.87L348.26 62.87C348.19 62.88 348.11 62.87 348.04 62.85C347.97 62.83 347.91 62.79 347.86 62.74C347.8 62.68 347.77 62.62 347.74 62.55C347.72 62.48 347.72 62.4 347.73 62.33L347.73 47.92ZM350.12 49.56L350.12 55.95L352.97 55.95C353.34 55.98 353.71 55.88 354.01 55.66C354.22 55.48 354.29 55.13 354.29 54.59L354.29 50.92C354.29 50.42 354.22 50.06 354.01 49.88C353.87 49.76 353.7 49.67 353.52 49.61C353.34 49.56 353.16 49.54 352.97 49.56L350.12 49.56Z" fill="#FFFFFF" fill-opacity="1.000000" fill-rule="nonzero"/>
</svg>
