<svg width="30.000000" height="30.000000" viewBox="0 0 30 30" fill="none" xmlns="http://www.w3.org/2000/svg" xmlns:xlink="http://www.w3.org/1999/xlink">
	<desc>
			Created with Pixso.
	</desc>
	<defs/>
	<path id="Vector" d="M27.04 25.39L2.95 25.39C2.17 25.39 1.41 25.08 0.86 24.52C0.31 23.97 0 23.22 0 22.43L0 7.56C0 6.77 0.31 6.02 0.86 5.47C1.41 4.91 2.17 4.6 2.95 4.6L27.04 4.6C27.82 4.6 28.58 4.91 29.13 5.47C29.68 6.02 29.99 6.77 30 7.56L30 22.43C29.99 23.22 29.68 23.97 29.13 24.52C28.58 25.08 27.82 25.39 27.04 25.39ZM2.95 5.73C2.46 5.73 2 5.92 1.66 6.27C1.32 6.61 1.12 7.07 1.12 7.56L1.12 22.43C1.12 22.92 1.32 23.38 1.66 23.72C2 24.07 2.46 24.26 2.95 24.26L27.04 24.26C27.53 24.26 27.99 24.07 28.33 23.72C28.67 23.38 28.87 22.92 28.87 22.43L28.87 7.56C28.87 7.07 28.67 6.61 28.33 6.27C27.99 5.92 27.53 5.73 27.04 5.73L2.95 5.73Z" fill="#58AEE6" fill-opacity="1.000000" fill-rule="nonzero"/>
	<path id="Vector" d="M15 18.32C14.86 18.32 14.72 18.27 14.62 18.18L1.02 6.17L1.76 5.32L15 17L28.23 5.32L28.97 6.17L15.37 18.18C15.27 18.27 15.13 18.32 15 18.32Z" fill="#58AEE6" fill-opacity="1.000000" fill-rule="nonzero"/>
	<path id="Vector" d="M0.71 23.62L9.85 13.2L10.7 13.95L1.56 24.36L0.71 23.62ZM19.32 13.94L20.17 13.19L29.31 23.6L28.46 24.35L19.32 13.94Z" fill="#58AEE6" fill-opacity="1.000000" fill-rule="nonzero"/>
</svg>
