<svg width="34.074219" height="40.000000" viewBox="0 0 34.0742 40" fill="none" xmlns="http://www.w3.org/2000/svg" xmlns:xlink="http://www.w3.org/1999/xlink">
	<desc>
			Created with Pixso.
	</desc>
	<defs/>
	<path id="Vector" d="M19.64 37.03L3.7 37.03C2.72 37.03 1.77 36.64 1.08 35.95C0.39 35.25 0 34.31 0 33.33L0 3.7C0 3.21 0.09 2.73 0.28 2.28C0.46 1.83 0.74 1.42 1.08 1.08C1.42 0.73 1.83 0.46 2.28 0.28C2.73 0.09 3.21 -0.01 3.7 0L20 0C20.1 0 20.21 0.02 20.3 0.06C20.4 0.11 20.49 0.17 20.56 0.25L29.45 10.62C29.56 10.76 29.62 10.93 29.62 11.11L29.62 24.59C32.26 25.94 34.07 28.68 34.07 31.85C34.07 36.34 30.42 40 25.92 40C24.72 40 23.53 39.73 22.45 39.22C21.36 38.71 20.4 37.96 19.64 37.03ZM25.92 25.18C29.6 25.18 32.59 28.17 32.59 31.85C32.59 35.53 29.6 38.51 25.92 38.51C22.24 38.51 19.25 35.53 19.25 31.85C19.25 28.17 22.24 25.18 25.92 25.18ZM25.18 33.02L25.18 28.88C25.18 28.69 25.26 28.5 25.4 28.36C25.54 28.22 25.72 28.14 25.92 28.14C26.12 28.14 26.31 28.22 26.44 28.36C26.58 28.5 26.66 28.69 26.66 28.88L26.66 33.02L27.49 32.19C27.63 32.06 27.82 31.98 28.01 31.98C28.21 31.99 28.39 32.06 28.53 32.2C28.67 32.34 28.75 32.52 28.75 32.72C28.75 32.91 28.67 33.1 28.54 33.24L26.45 35.33C26.31 35.47 26.12 35.55 25.92 35.55C25.72 35.55 25.54 35.47 25.4 35.33L23.3 33.24C23.17 33.1 23.09 32.91 23.09 32.72C23.1 32.52 23.17 32.34 23.31 32.2C23.45 32.06 23.63 31.99 23.83 31.98C24.02 31.98 24.21 32.06 24.35 32.19L25.18 33.02ZM19.25 1.48L3.7 1.48C3.11 1.48 2.54 1.71 2.13 2.13C1.71 2.54 1.48 3.11 1.48 3.7L1.48 33.33C1.48 33.92 1.71 34.48 2.13 34.9C2.54 35.32 3.11 35.55 3.7 35.55L18.66 35.55C17.94 34.14 17.65 32.55 17.82 30.97C18 29.4 18.62 27.9 19.63 26.68C20.63 25.45 21.98 24.55 23.49 24.07C25 23.6 26.62 23.58 28.14 24.01L28.14 11.85L22.96 11.85C21.98 11.85 21.03 11.46 20.34 10.76C19.64 10.07 19.25 9.13 19.25 8.14L19.25 1.48ZM6.66 20.74L22.96 20.74C23.15 20.74 23.34 20.66 23.48 20.52C23.62 20.38 23.7 20.19 23.7 20C23.7 19.8 23.62 19.61 23.48 19.47C23.34 19.33 23.15 19.25 22.96 19.25L6.66 19.25C6.46 19.25 6.28 19.33 6.14 19.47C6 19.61 5.92 19.8 5.92 20C5.92 20.19 6 20.38 6.14 20.52C6.28 20.66 6.46 20.74 6.66 20.74ZM6.66 16.29L22.96 16.29C23.15 16.29 23.34 16.21 23.48 16.07C23.62 15.94 23.7 15.75 23.7 15.55C23.7 15.35 23.62 15.17 23.48 15.03C23.34 14.89 23.15 14.81 22.96 14.81L6.66 14.81C6.46 14.81 6.28 14.89 6.14 15.03C6 15.17 5.92 15.35 5.92 15.55C5.92 15.75 6 15.94 6.14 16.07C6.28 16.21 6.46 16.29 6.66 16.29ZM6.66 11.85L14.07 11.85C14.27 11.85 14.45 11.77 14.59 11.63C14.73 11.49 14.81 11.3 14.81 11.11C14.81 10.91 14.73 10.72 14.59 10.58C14.45 10.44 14.27 10.37 14.07 10.37L6.66 10.37C6.46 10.37 6.28 10.44 6.14 10.58C6 10.72 5.92 10.91 5.92 11.11C5.92 11.3 6 11.49 6.14 11.63C6.28 11.77 6.46 11.85 6.66 11.85ZM20.74 2.74L20.74 8.14C20.74 8.73 20.97 9.3 21.39 9.71C21.8 10.13 22.37 10.37 22.96 10.37L27.27 10.37L20.74 2.74Z" fill="#585858" fill-opacity="1.000000" fill-rule="evenodd"/>
</svg>
