<svg width="30.000000" height="30.000000" viewBox="0 0 30 30" fill="none" xmlns="http://www.w3.org/2000/svg" xmlns:xlink="http://www.w3.org/1999/xlink">
	<desc>
			Created with Pixso.
	</desc>
	<defs/>
	<path id="Vector" d="M21.63 9.36C16.27 6.1 18.78 1.5 18.89 1.31C18.97 1.18 19.01 1.03 19.01 0.87C19.01 0.72 18.97 0.57 18.89 0.43C18.81 0.3 18.7 0.19 18.57 0.11C18.44 0.04 18.28 -6.11e-5 18.13 0C15.37 0 13.22 0.78 11.72 2.32C9.15 4.96 9.27 9.07 9.32 10.82C9.33 11.02 9.33 11.19 9.33 11.31C9.33 12.61 9.54 13.82 9.72 14.88C9.84 15.56 9.95 16.15 9.96 16.61C9.98 17.11 9.89 17.23 9.89 17.23C9.88 17.25 9.77 17.3 9.48 17.3C9.14 17.3 8.9 17.19 8.68 16.95C7.83 16 7.78 13.4 7.94 11.99C7.95 11.87 7.94 11.74 7.9 11.62C7.87 11.51 7.8 11.4 7.72 11.3C7.64 11.21 7.54 11.14 7.42 11.09C7.31 11.04 7.19 11.01 7.06 11.01C4.78 11.01 3.08 14.74 3.08 18.08C3.08 19.65 3.39 21.18 4.02 22.64C4.62 24.06 5.47 25.33 6.56 26.44C8.84 28.73 11.83 30 14.99 30C18.17 30 21.17 28.75 23.42 26.49C25.67 24.23 26.91 21.24 26.91 18.08C26.91 14.04 23.75 10.65 21.63 9.36ZM14.99 28.24C9.49 28.24 4.84 23.58 4.84 18.08C4.84 16.74 5.16 15.33 5.71 14.22C5.84 13.96 5.98 13.74 6.11 13.55C6.12 15 6.35 16.98 7.37 18.12C7.92 18.74 8.65 19.06 9.48 19.06C10.25 19.06 10.84 18.83 11.23 18.36C11.96 17.49 11.74 16.21 11.46 14.58C11.28 13.58 11.09 12.46 11.09 11.31C11.09 11.16 11.08 10.98 11.08 10.77C11.03 9.11 10.93 5.65 12.98 3.55C13.89 2.6 15.18 2.03 16.8 1.83C16.62 2.44 16.46 3.21 16.45 4.07C16.44 5.98 17.17 8.7 20.72 10.86C22.43 11.91 25.15 14.79 25.15 18.08C25.15 23.68 20.6 28.24 14.99 28.24Z" fill="#FFFFFF" fill-opacity="1.000000" fill-rule="nonzero"/>
</svg>
