<svg width="1961.244141" height="154.619141" viewBox="0 0 1961.24 154.619" fill="none" xmlns="http://www.w3.org/2000/svg" xmlns:xlink="http://www.w3.org/1999/xlink">
	<desc>
			Created with Pixso.
	</desc>
	<defs/>
	<rect id="ribbon" width="1960.000000" height="71.000000" transform="translate(3.031494 0.000000) rotate(2.447049)" fill="#FFFFFF" fill-opacity="1.000000"/>
	<path id="учись с драйвингскул" d="M180.5 32.73Q181.45 31.86 181.68 30.19L179.69 30.1Q179.52 31.34 178.86 31.78Q178.21 32.22 177.11 32.18Q175.86 32.12 175.32 31.66Q174.77 31.19 174.7 29.89L172.74 29.8Q172.78 31.63 173.72 32.58Q174.65 33.54 177 33.64Q179.27 33.74 180.35 32.86Q180.43 32.8 180.5 32.73ZM61.45 32.88Q62.81 32.1 64.66 32.18C65.43 32.21 66.13 32.33 66.77 32.55Q67.73 32.88 68.51 33.28L69.45 31.49Q67.48 30.4 64.77 30.29Q62.13 30.17 60.23 31.21Q59.39 31.66 58.72 32.3Q57.88 33.1 57.31 34.18Q56.28 36.12 56.17 38.71Q56.05 41.39 56.84 43.42Q57.36 44.75 58.28 45.71Q58.75 46.21 59.34 46.6Q61.04 47.76 63.65 47.87C64.6 47.91 65.41 47.89 66.1 47.8Q66.74 47.73 67.36 47.57Q67.73 47.48 68.1 47.36L68.18 45.49Q67.21 45.74 66.19 45.89C65.51 45.98 64.8 46.02 64.05 45.98Q61.77 45.89 60.41 44.71Q60.02 44.37 59.7 43.94Q58.31 42.01 58.45 38.83Q58.58 35.62 60.24 33.84Q60.79 33.26 61.45 32.88ZM101.74 34.6Q103.1 33.82 104.95 33.9Q106.1 33.95 107.06 34.27Q108.02 34.6 108.8 35L109.74 33.22Q107.77 32.12 105.06 32.01Q102.42 31.89 100.52 32.93Q99.68 33.39 99.01 34.02Q98.17 34.82 97.6 35.9Q96.57 37.84 96.46 40.43Q96.34 43.11 97.13 45.14Q97.65 46.47 98.56 47.43Q99.04 47.93 99.63 48.33Q101.33 49.48 103.94 49.59Q105.36 49.65 106.39 49.52Q107.03 49.45 107.65 49.29Q108.02 49.2 108.39 49.08L108.47 47.21Q107.49 47.46 106.48 47.61Q105.46 47.75 104.34 47.71Q102.06 47.61 100.7 46.44Q100.31 46.09 99.99 45.66Q98.6 43.74 98.73 40.55Q98.87 37.34 100.53 35.56Q101.08 34.98 101.74 34.6ZM261.09 41.41Q262.45 40.63 264.31 40.71Q265.46 40.76 266.42 41.08Q267.38 41.41 268.15 41.81L269.1 40.03Q267.13 38.93 264.42 38.82Q261.78 38.7 259.88 39.74C258.62 40.43 257.64 41.42 256.95 42.71Q255.93 44.65 255.82 47.24Q255.7 49.92 256.49 51.95C257.02 53.3 257.85 54.36 258.99 55.14Q260.69 56.29 263.3 56.4Q264.72 56.46 265.74 56.33Q266.39 56.26 267.01 56.1Q267.38 56.01 267.74 55.89L267.82 54.02Q266.85 54.27 265.84 54.42Q264.82 54.56 263.7 54.52Q261.41 54.42 260.06 53.25Q259.67 52.9 259.35 52.47Q257.96 50.55 258.09 47.36Q258.23 44.15 259.89 42.37Q260.43 41.79 261.09 41.41ZM161.63 46.51L163.47 51.89L165.7 51.99L159.77 34.51L157.83 34.43L150.4 51.33L152.58 51.43L154.85 46.22L161.63 46.51ZM9.26 43.27Q10.09 42.16 10.93 40.5L16.92 28.48L14.64 28.38L10.11 37.7Q10.01 37.93 9.85 38.3Q9.69 38.66 9.58 38.92L9.48 38.92Q9.38 38.58 9.22 38.2Q9.07 37.82 8.97 37.58L4.6 27.95L2.22 27.85L8.27 40.86Q7.54 42.3 6.74 42.84Q5.93 43.38 4.59 43.33Q3.99 43.3 3.44 43.15Q2.89 42.99 2.42 42.75L2.33 44.89Q2.81 45.07 3.39 45.19Q3.97 45.32 4.65 45.35Q6.27 45.42 7.35 44.9Q8.44 44.38 9.26 43.27ZM29.44 46.16L31.6 46.26L32.33 29.13L30.17 29.04L29.82 37.34Q28.38 37.73 27.24 37.95Q26.11 38.17 24.69 38.11Q23.06 38.04 22.36 37.32Q22.32 37.29 22.29 37.25Q21.66 36.53 21.72 35.22L21.99 28.69L19.84 28.6L19.55 35.44Q19.48 37.06 20.21 38.13Q20.43 38.45 20.73 38.72Q22 39.89 24.4 39.99Q25.88 40.05 27.1 39.81Q28.33 39.56 29.74 39.14L29.44 46.16ZM40.02 29.46L38 29.38L37.27 46.5L39.67 46.6L49.73 32.76L49.82 32.77Q49.78 33.12 49.7 33.96Q49.62 34.8 49.53 35.8Q49.46 36.81 49.42 37.7L49.02 47L51.04 47.09L51.77 29.96L49.37 29.86L39.34 43.63L39.25 43.63Q39.31 43.25 39.38 42.44Q39.45 41.62 39.52 40.64Q39.58 39.65 39.62 38.86L40.02 29.46ZM73.55 30.9L72.82 48.02L78.45 48.26Q81.59 48.39 83.18 47.08Q83.78 46.59 84.17 45.97Q84.82 44.93 84.88 43.51Q84.93 42.43 84.57 41.49Q84.48 41.25 84.36 41.02L84.36 41.01Q83.78 39.89 82.4 39.18Q81.01 38.47 78.61 38.37L75.4 38.23L75.71 30.99L73.55 30.9ZM132.46 48.64L133.11 33.44L125.2 33.1Q125.02 35 124.55 37.02Q124.08 39.04 123.4 41.04Q122.71 43.04 121.85 44.85Q120.99 46.66 120.07 48.11L118.75 48.06L118.48 54.49L120.54 54.57L120.73 50.07L132.5 50.57L132.31 55.08L134.37 55.16L134.65 48.74L132.46 48.64ZM148.52 35.42Q147.04 34.04 143.68 33.89L139.15 33.7L138.42 50.82L140.58 50.91L140.86 44.25L142.83 44.33Q145.39 44.44 146.92 43.74Q148.41 43.06 149.1 41.9Q149.12 41.86 149.14 41.83Q149.44 41.3 149.62 40.74Q149.86 40.01 149.89 39.21Q149.97 37.44 149.18 36.22Q148.9 35.79 148.52 35.42ZM171.81 35.09L169.8 35.01L169.07 52.13L171.47 52.23L181.53 38.4L181.62 38.4Q181.58 38.76 181.5 39.6Q181.41 40.43 181.33 41.44Q181.25 42.44 181.21 43.33L180.82 52.63L182.84 52.72L183.57 35.6L181.17 35.49L171.14 49.26L171.04 49.26Q171.11 48.88 171.18 48.07Q171.25 47.25 171.31 46.27Q171.38 45.29 171.41 44.5L171.81 35.09ZM198.9 37.2Q197.3 36.18 194.08 36.05L189.19 35.84L188.46 52.96L194.48 53.22Q197.23 53.34 198.88 52.13Q199.43 51.73 199.81 51.21Q200.57 50.16 200.63 48.61Q200.69 47.26 200.22 46.4Q200 45.98 199.68 45.65Q199.34 45.3 198.9 45.05Q198.04 44.56 196.97 44.34L196.98 44.22Q198.45 44.01 199.32 43.17Q199.39 43.11 199.45 43.04Q199.63 42.84 199.78 42.63Q200.35 41.77 200.4 40.57Q200.47 38.91 199.7 37.92Q199.37 37.5 198.9 37.2ZM207.81 36.63L205.8 36.55L205.07 53.67L207.47 53.77L217.52 39.93L217.62 39.94Q217.58 40.29 217.5 41.13Q217.41 41.97 217.33 42.97Q217.25 43.98 217.21 44.87L216.82 54.17L218.84 54.26L219.57 37.14L217.17 37.03L207.14 50.8L207.04 50.8Q207.11 50.42 207.18 49.61Q207.25 48.79 207.31 47.81Q207.38 46.82 207.41 46.03L207.81 36.63ZM235.39 54.97L237.55 55.06L238.29 37.94L236.13 37.84L235.82 45.08L227.04 44.71L227.35 37.47L225.19 37.38L224.46 54.5L226.62 54.59L226.96 46.61L235.73 46.98L235.39 54.97ZM253.54 40.51L253.62 38.59L243.96 38.18L243.23 55.3L245.39 55.39L246.03 40.19L253.54 40.51ZM282.37 56.97L284.95 57.08L277.56 47.95L285.35 39.95L282.91 39.84L275 47.82L275.35 39.52L273.19 39.43L272.46 56.55L274.62 56.64L274.99 47.96L282.37 56.97ZM293.99 55.44Q294.82 54.33 295.66 52.67L301.65 40.64L299.37 40.55L294.84 49.86L294.57 50.47Q294.42 50.83 294.31 51.09L294.21 51.09Q294.1 50.75 293.95 50.37Q293.8 49.99 293.7 49.75L289.33 40.12L286.95 40.01L293 53.03Q292.27 54.46 291.47 55.01Q290.66 55.55 289.32 55.49Q288.72 55.47 288.17 55.32Q287.62 55.16 287.15 54.92L287.06 57.06Q287.53 57.24 288.12 57.36Q288.7 57.48 289.38 57.51Q291 57.58 292.08 57.07Q293.17 56.54 293.99 55.44ZM313.21 58.29L315.37 58.38L316.1 41.26L306.72 40.86Q306.28 43.51 305.85 45.85Q305.43 48.18 305.07 49.93Q304.73 51.68 304.49 52.59Q304.29 53.44 304.01 54.31Q303.74 55.17 303.29 55.74Q303.07 56.03 302.77 56.16Q302.48 56.3 302.12 56.28Q301.74 56.26 301.41 56.17Q301.08 56.07 300.82 55.94L300.74 57.74Q301.05 57.87 301.47 57.97Q301.88 58.07 302.29 58.09Q303.51 58.14 304.29 57.6Q305.07 57.05 305.57 55.95Q306.08 54.84 306.46 53.25Q306.78 52.01 307.12 50.25Q307.45 48.49 307.8 46.54Q308.15 44.6 308.44 42.83L313.86 43.07L313.21 58.29ZM141.23 35.64L143.41 35.73Q145.69 35.83 146.71 36.69Q146.95 36.89 147.13 37.13Q147.71 37.93 147.66 39.21Q147.59 40.7 146.81 41.48Q146.6 41.68 146.34 41.84Q145.11 42.58 142.67 42.48L140.94 42.4L141.23 35.64ZM197.25 42.78Q196.41 43.45 194.21 43.36L191.04 43.22L191.27 37.78L194.1 37.9Q196.28 37.99 197.25 38.65Q197.55 38.85 197.75 39.12Q198.2 39.74 198.16 40.71Q198.11 41.88 197.51 42.54Q197.39 42.67 197.25 42.78ZM126.41 38.25Q126.86 36.52 127.01 35.13L130.9 35.29L130.33 48.55L122.35 48.21Q123.17 46.95 123.93 45.28Q124.68 43.61 125.33 41.8Q125.97 39.99 126.41 38.25ZM159.16 38.59Q159.31 39.11 159.37 39.3L161.06 44.56L155.65 44.33L157.81 39.23Q157.97 38.83 158.22 38.13Q158.47 37.43 158.67 36.7Q158.75 36.99 158.88 37.54Q159.01 38.08 159.16 38.59ZM190.7 51.23L190.96 45.02L194.25 45.16Q196.62 45.26 197.51 46.13Q197.84 46.45 198.04 46.85Q198.37 47.5 198.34 48.34Q198.29 49.38 197.8 50.12Q197.61 50.4 197.35 50.63Q196.43 51.48 194.15 51.38L190.7 51.23ZM82.02 45.28Q80.99 46.52 78.32 46.41L75.06 46.27L75.32 40.1L78.27 40.23Q80.48 40.32 81.59 41.04Q81.92 41.25 82.15 41.54Q82.7 42.24 82.65 43.42Q82.6 44.57 82.02 45.28Z" fill="#2D2F30" fill-opacity="1.000000" fill-rule="evenodd"/>
	<path id="учись с драйвингскул" d="M589.12 50.2Q590.08 49.32 590.31 47.65L588.32 47.56Q588.15 48.81 587.49 49.25Q586.84 49.69 585.73 49.64Q584.49 49.59 583.94 49.12Q583.4 48.65 583.33 47.35L581.36 47.27Q581.41 49.09 582.34 50.05Q583.28 51 585.62 51.1Q587.9 51.2 588.98 50.32Q589.05 50.26 589.12 50.2ZM470.07 50.34Q471.43 49.56 473.29 49.64C474.06 49.67 474.76 49.8 475.4 50.02Q476.36 50.34 477.13 50.74L478.08 48.96Q476.11 47.86 473.4 47.75Q470.76 47.64 468.86 48.67Q468.02 49.13 467.35 49.76Q466.51 50.56 465.93 51.64Q464.91 53.58 464.8 56.17Q464.68 58.85 465.47 60.88Q465.99 62.21 466.9 63.17Q467.38 63.67 467.97 64.07Q469.67 65.22 472.28 65.33C473.23 65.37 474.04 65.35 474.72 65.26Q475.37 65.19 475.99 65.03Q476.36 64.94 476.73 64.82L476.8 62.95Q475.83 63.2 474.82 63.35C474.14 63.45 473.43 63.48 472.68 63.45Q470.39 63.35 469.04 62.18Q468.65 61.83 468.33 61.4Q466.94 59.48 467.07 56.29Q467.21 53.08 468.87 51.3Q469.41 50.72 470.07 50.34ZM510.36 52.06Q511.72 51.28 513.58 51.36Q514.73 51.41 515.69 51.74Q516.65 52.07 517.42 52.46L518.37 50.68Q516.4 49.59 513.69 49.47Q511.05 49.36 509.15 50.39Q508.31 50.85 507.64 51.48Q506.8 52.28 506.22 53.36Q505.2 55.3 505.09 57.89Q504.97 60.57 505.76 62.6Q506.28 63.93 507.19 64.89Q507.67 65.39 508.26 65.79Q509.96 66.94 512.57 67.05Q513.99 67.11 515.01 66.99Q515.66 66.91 516.28 66.76Q516.65 66.66 517.01 66.54L517.09 64.68Q516.12 64.92 515.11 65.07Q514.09 65.22 512.97 65.17Q510.68 65.07 509.33 63.9Q508.94 63.56 508.62 63.12Q507.23 61.2 507.36 58.01Q507.5 54.8 509.16 53.02Q509.7 52.44 510.36 52.06ZM669.72 58.87Q671.08 58.09 672.94 58.17Q674.09 58.22 675.04 58.55Q676 58.88 676.78 59.27L677.72 57.49Q675.75 56.4 673.04 56.28Q670.4 56.17 668.5 57.2C667.24 57.89 666.27 58.88 665.58 60.17Q664.55 62.11 664.44 64.7Q664.33 67.39 665.11 69.41C665.64 70.76 666.48 71.83 667.61 72.6Q669.32 73.75 671.93 73.86Q673.34 73.92 674.37 73.8Q675.01 73.72 675.64 73.57Q676.01 73.47 676.37 73.35L676.45 71.49Q675.48 71.73 674.46 71.88Q673.45 72.03 672.32 71.98Q670.04 71.88 668.69 70.71Q668.29 70.37 667.98 69.93Q666.58 68.01 666.72 64.82Q666.86 61.61 668.52 59.83Q669.06 59.25 669.72 58.87ZM570.26 63.97L572.09 69.36L574.32 69.45L568.4 51.97L566.45 51.89L559.03 68.8L561.21 68.89L563.47 63.68L570.26 63.97ZM417.89 60.74Q418.72 59.63 419.56 57.96L425.55 45.94L423.27 45.84L418.74 55.16Q418.64 55.4 418.47 55.76Q418.32 56.13 418.21 56.39L418.11 56.38Q418 56.04 417.85 55.67Q417.7 55.29 417.59 55.04L413.23 45.41L410.85 45.31L416.9 58.32Q416.17 59.76 415.36 60.31Q414.56 60.85 413.21 60.79Q412.62 60.76 412.07 60.61Q411.52 60.45 411.05 60.22L410.96 62.35Q411.43 62.54 412.01 62.65Q412.6 62.78 413.27 62.81Q414.9 62.88 415.98 62.36Q417.06 61.84 417.89 60.74ZM438.07 63.63L440.23 63.72L440.96 46.6L438.8 46.5L438.45 54.81Q437.01 55.2 435.87 55.42Q434.73 55.63 433.32 55.57Q431.69 55.5 430.99 54.79Q430.95 54.75 430.91 54.71Q430.29 54 430.34 52.68L430.62 46.15L428.47 46.06L428.18 52.9Q428.11 54.52 428.84 55.59Q429.06 55.91 429.36 56.18Q430.62 57.35 433.02 57.45Q434.51 57.52 435.73 57.27Q436.96 57.02 438.37 56.6L438.07 63.63ZM448.64 46.93L446.63 46.84L445.9 63.96L448.3 64.06L458.36 50.23L458.45 50.23Q458.41 50.59 458.33 51.43Q458.25 52.26 458.16 53.27Q458.08 54.27 458.05 55.16L457.65 64.46L459.67 64.55L460.4 47.43L458 47.32L447.97 61.09L447.88 61.09Q447.94 60.71 448.01 59.9Q448.08 59.08 448.14 58.1Q448.21 57.12 448.24 56.33L448.64 46.93ZM482.18 48.36L481.44 65.48L487.08 65.72Q490.22 65.86 491.81 64.55Q492.41 64.06 492.79 63.44Q493.45 62.39 493.51 60.98Q493.55 59.89 493.2 58.96Q493.1 58.71 492.99 58.48L492.98 58.47Q492.41 57.35 491.02 56.64Q489.63 55.93 487.24 55.83L484.03 55.69L484.34 48.45L482.18 48.36ZM541.09 66.11L541.74 50.9L533.83 50.57Q533.65 52.46 533.18 54.48Q532.71 56.5 532.03 58.51Q531.34 60.51 530.48 62.32Q529.62 64.13 528.7 65.58L527.38 65.52L527.11 71.95L529.17 72.04L529.36 67.53L541.13 68.03L540.94 72.54L543 72.63L543.27 66.2L541.09 66.11ZM557.14 52.89Q555.67 51.5 552.31 51.36L547.78 51.16L547.04 68.28L549.2 68.38L549.49 61.71L551.46 61.79Q554.02 61.9 555.55 61.2Q557.03 60.52 557.72 59.36Q557.75 59.33 557.77 59.29Q558.07 58.76 558.25 58.2Q558.48 57.47 558.52 56.67Q558.59 54.9 557.81 53.68Q557.53 53.25 557.14 52.89ZM580.44 52.56L578.43 52.47L577.7 69.59L580.09 69.7L590.15 55.86L590.25 55.86Q590.21 56.22 590.12 57.06Q590.04 57.89 589.96 58.9Q589.88 59.9 589.84 60.79L589.44 70.1L591.46 70.18L592.2 53.06L589.8 52.96L579.76 66.73L579.67 66.72Q579.73 66.34 579.8 65.53Q579.87 64.71 579.94 63.73Q580.01 62.75 580.04 61.96L580.44 52.56ZM607.52 54.66Q605.93 53.65 602.71 53.51L597.82 53.3L597.09 70.42L603.1 70.68Q605.86 70.8 607.51 69.6Q608.06 69.2 608.43 68.67Q609.19 67.62 609.26 66.07Q609.32 64.72 608.85 63.86Q608.62 63.45 608.31 63.12Q607.97 62.76 607.52 62.51Q606.67 62.02 605.6 61.8L605.61 61.69Q607.08 61.48 607.95 60.64Q608.01 60.57 608.08 60.5Q608.26 60.31 608.4 60.09Q608.98 59.24 609.03 58.03Q609.1 56.38 608.32 55.38Q608 54.97 607.52 54.66ZM616.44 54.1L614.43 54.01L613.69 71.13L616.09 71.24L626.15 57.4L626.25 57.4Q626.21 57.76 626.12 58.6Q626.04 59.43 625.96 60.44Q625.88 61.44 625.84 62.33L625.44 71.63L627.46 71.72L628.19 54.6L625.79 54.5L615.76 68.27L615.67 68.26Q615.73 67.88 615.8 67.07Q615.87 66.25 615.94 65.27Q616 64.29 616.04 63.5L616.44 54.1ZM644.02 72.43L646.18 72.52L646.91 55.4L644.75 55.31L644.44 62.55L635.67 62.17L635.98 54.93L633.82 54.84L633.09 71.96L635.25 72.05L635.59 64.07L644.36 64.44L644.02 72.43ZM662.17 57.97L662.25 56.05L652.58 55.64L651.85 72.76L654.01 72.86L654.66 57.65L662.17 57.97ZM690.99 74.44L693.58 74.55L686.19 65.42L693.98 57.41L691.53 57.31L683.63 65.28L683.98 56.98L681.82 56.89L681.09 74.01L683.25 74.11L683.62 65.42L690.99 74.44ZM702.62 72.9Q703.45 71.8 704.29 70.13L710.28 58.11L708 58.01L703.47 67.33L703.2 67.93Q703.04 68.29 702.93 68.55L702.84 68.55Q702.73 68.21 702.58 67.83Q702.43 67.45 702.32 67.21L697.95 57.58L695.58 57.48L701.63 70.49Q700.9 71.93 700.09 72.47Q699.29 73.01 697.94 72.96Q697.35 72.93 696.79 72.78Q696.25 72.62 695.78 72.38L695.69 74.52Q696.16 74.7 696.74 74.82Q697.33 74.95 698 74.98Q699.63 75.05 700.71 74.53Q701.79 74.01 702.62 72.9ZM721.84 75.75L724 75.85L724.73 58.72L715.35 58.32Q714.9 60.97 714.48 63.31Q714.05 65.65 713.7 67.4Q713.35 69.15 713.12 70.05Q712.92 70.9 712.64 71.77Q712.36 72.63 711.92 73.21Q711.69 73.49 711.4 73.63Q711.11 73.76 710.75 73.74Q710.37 73.73 710.03 73.63Q709.7 73.53 709.45 73.4L709.37 75.2Q709.68 75.33 710.09 75.43Q710.51 75.53 710.91 75.55Q712.14 75.6 712.92 75.06Q713.7 74.52 714.2 73.41Q714.71 72.3 715.09 70.71Q715.4 69.47 715.74 67.71Q716.08 65.95 716.43 64Q716.78 62.06 717.07 60.3L722.49 60.53L721.84 75.75ZM549.86 53.1L552.04 53.2Q554.32 53.29 555.34 54.15Q555.57 54.35 555.75 54.6Q556.34 55.4 556.28 56.67Q556.22 58.16 555.44 58.94Q555.23 59.15 554.97 59.3Q553.74 60.04 551.29 59.94L549.57 59.87L549.86 53.1ZM605.88 60.24Q605.03 60.92 602.83 60.82L599.67 60.69L599.9 55.24L602.73 55.36Q604.91 55.46 605.88 56.11Q606.18 56.31 606.38 56.59Q606.83 57.2 606.79 58.18Q606.74 59.34 606.14 60Q606.02 60.13 605.88 60.24ZM535.04 55.71Q535.49 53.98 535.64 52.59L539.53 52.76L538.96 66.02L530.97 65.67Q531.8 64.41 532.55 62.74Q533.31 61.07 533.95 59.26Q534.59 57.45 535.04 55.71ZM567.79 56.06Q567.94 56.57 568 56.76L569.69 62.02L564.28 61.79L566.44 56.69Q566.6 56.29 566.84 55.6Q567.09 54.9 567.29 54.16Q567.38 54.45 567.5 55Q567.64 55.55 567.79 56.06ZM599.32 68.69L599.59 62.48L602.87 62.62Q605.25 62.73 606.13 63.59Q606.47 63.92 606.67 64.31Q607 64.96 606.97 65.8Q606.92 66.84 606.42 67.58Q606.23 67.86 605.98 68.09Q605.06 68.94 602.78 68.84L599.32 68.69ZM490.64 62.74Q489.62 63.98 486.94 63.87L483.68 63.73L483.95 57.57L486.9 57.69Q489.1 57.79 490.22 58.51Q490.55 58.72 490.77 59Q491.33 59.71 491.28 60.88Q491.23 62.03 490.64 62.74Z" fill="#2D2F30" fill-opacity="1.000000" fill-rule="evenodd"/>
	<path id="учись с драйвингскул" d="M997.75 67.66Q998.71 66.78 998.94 65.11L996.95 65.03Q996.78 66.27 996.12 66.71Q995.47 67.15 994.36 67.1Q993.11 67.05 992.57 66.58Q992.03 66.11 991.96 64.81L989.99 64.73Q990.04 66.55 990.97 67.51Q991.9 68.46 994.25 68.56Q996.53 68.66 997.61 67.78Q997.68 67.72 997.75 67.66ZM878.7 67.8Q880.06 67.02 881.92 67.1C882.68 67.13 883.39 67.26 884.03 67.48Q884.99 67.81 885.76 68.2L886.7 66.42Q884.73 65.33 882.02 65.21Q879.38 65.1 877.49 66.13Q876.65 66.59 875.98 67.22Q875.14 68.02 874.56 69.1Q873.53 71.04 873.42 73.63Q873.31 76.32 874.1 78.34Q874.62 79.68 875.53 80.63Q876.01 81.13 876.59 81.53Q878.3 82.68 880.91 82.79C881.85 82.83 882.67 82.81 883.35 82.73Q883.99 82.65 884.62 82.5Q884.99 82.4 885.35 82.28L885.43 80.42Q884.46 80.66 883.44 80.81C882.77 80.91 882.05 80.94 881.31 80.91Q879.02 80.81 877.67 79.64Q877.27 79.3 876.96 78.86Q875.56 76.94 875.7 73.76Q875.84 70.54 877.5 68.77Q878.04 68.18 878.7 67.8ZM918.99 69.53Q920.35 68.74 922.21 68.82Q923.36 68.87 924.32 69.2Q925.27 69.53 926.05 69.93L926.99 68.14Q925.02 67.05 922.31 66.93Q919.67 66.82 917.77 67.85Q916.94 68.31 916.27 68.95Q915.43 69.75 914.85 70.82Q913.82 72.76 913.71 75.36Q913.6 78.04 914.39 80.07Q914.91 81.4 915.82 82.35Q916.3 82.85 916.88 83.25Q918.59 84.4 921.2 84.51Q922.61 84.58 923.64 84.45Q924.28 84.37 924.91 84.22Q925.28 84.13 925.64 84.01L925.72 82.14Q924.75 82.39 923.73 82.54Q922.72 82.68 921.59 82.63Q919.31 82.53 917.96 81.36Q917.56 81.02 917.25 80.59Q915.85 78.66 915.99 75.48Q916.13 72.26 917.79 70.49Q918.33 69.91 918.99 69.53ZM1078.35 76.34Q1079.71 75.55 1081.56 75.63Q1082.72 75.68 1083.68 76.01Q1084.64 76.34 1085.41 76.74L1086.35 74.95Q1084.38 73.86 1081.67 73.74Q1079.03 73.63 1077.14 74.66C1075.88 75.35 1074.9 76.34 1074.21 77.64Q1073.18 79.57 1073.06 82.17Q1072.96 84.85 1073.75 86.88C1074.28 88.23 1075.11 89.29 1076.24 90.06Q1077.94 91.21 1080.56 91.32Q1081.98 91.39 1083 91.26Q1083.64 91.18 1084.27 91.03Q1084.64 90.94 1085 90.82L1085.07 88.95Q1084.11 89.2 1083.09 89.35Q1082.07 89.49 1080.96 89.44Q1078.67 89.34 1077.31 88.17Q1076.92 87.83 1076.61 87.4Q1075.21 85.47 1075.35 82.29Q1075.49 79.07 1077.15 77.3Q1077.68 76.72 1078.35 76.34ZM978.89 81.43L980.72 86.82L982.95 86.91L977.02 69.44L975.08 69.35L967.65 86.26L969.84 86.35L972.1 81.14L978.89 81.43ZM826.52 78.2Q827.35 77.09 828.18 75.43L834.18 63.4L831.9 63.3L827.37 72.62Q827.26 72.86 827.1 73.23Q826.94 73.59 826.83 73.85L826.74 73.85Q826.63 73.51 826.48 73.13Q826.33 72.75 826.22 72.5L821.85 62.87L819.48 62.77L825.52 75.79Q824.79 77.22 823.99 77.77Q823.19 78.31 821.84 78.25Q821.24 78.23 820.69 78.07Q820.15 77.92 819.68 77.68L819.59 79.81Q820.06 80 820.64 80.12Q821.23 80.24 821.9 80.27Q823.53 80.34 824.61 79.82Q825.69 79.3 826.52 78.2ZM846.7 81.09L848.86 81.18L849.59 64.06L847.43 63.97L847.07 72.27Q845.64 72.66 844.5 72.88Q843.36 73.1 841.95 73.03Q840.32 72.96 839.61 72.25Q839.58 72.21 839.54 72.17Q838.91 71.46 838.97 70.15L839.25 63.62L837.09 63.53L836.8 70.36Q836.73 71.98 837.47 73.05Q837.69 73.37 837.98 73.65Q839.25 74.81 841.65 74.92Q843.14 74.98 844.36 74.73Q845.58 74.49 847 74.07L846.7 81.09ZM857.27 64.39L855.26 64.3L854.53 81.43L856.93 81.53L866.98 67.69L867.08 67.69Q867.04 68.05 866.96 68.89Q866.87 69.72 866.79 70.73Q866.71 71.74 866.67 72.63L866.28 81.93L868.29 82.01L869.03 64.89L866.63 64.79L856.6 78.56L856.5 78.55Q856.57 78.18 856.64 77.36Q856.71 76.54 856.77 75.56Q856.84 74.58 856.87 73.79L857.27 64.39ZM890.8 65.82L890.07 82.94L895.71 83.18Q898.85 83.32 900.44 82.01Q901.03 81.52 901.42 80.9Q902.07 79.85 902.13 78.44Q902.18 77.35 901.82 76.42Q901.73 76.17 901.61 75.94L901.61 75.94Q901.04 74.81 899.65 74.1Q898.26 73.39 895.87 73.29L892.65 73.15L892.96 65.91L890.8 65.82ZM949.72 83.57L950.37 68.37L942.46 68.03Q942.28 69.92 941.8 71.94Q941.34 73.96 940.65 75.97Q939.97 77.97 939.11 79.78Q938.25 81.59 937.32 83.04L936.01 82.98L935.73 89.41L937.79 89.5L937.99 84.99L949.76 85.49L949.57 90L951.63 90.09L951.9 83.66L949.72 83.57ZM965.77 70.35Q964.29 68.96 960.93 68.82L956.4 68.62L955.67 85.75L957.83 85.84L958.12 79.17L960.08 79.26Q962.65 79.37 964.18 78.66Q965.66 77.98 966.35 76.83Q966.37 76.79 966.39 76.75Q966.69 76.23 966.88 75.66Q967.11 74.93 967.15 74.13Q967.22 72.36 966.44 71.15Q966.16 70.71 965.77 70.35ZM989.07 70.02L987.05 69.93L986.32 87.06L988.72 87.16L998.78 73.32L998.87 73.32Q998.83 73.68 998.75 74.52Q998.67 75.36 998.58 76.36Q998.51 77.37 998.47 78.26L998.07 87.56L1000.1 87.65L1000.83 70.52L998.42 70.42L988.39 84.19L988.3 84.19Q988.36 83.81 988.43 83Q988.5 82.18 988.57 81.19Q988.63 80.21 988.67 79.42L989.07 70.02ZM1016.16 72.13Q1014.56 71.11 1011.34 70.97L1006.45 70.76L1005.72 87.89L1011.74 88.14Q1014.49 88.26 1016.14 87.06Q1016.69 86.66 1017.06 86.14Q1017.82 85.09 1017.89 83.53Q1017.95 82.19 1017.48 81.33Q1017.26 80.91 1016.94 80.58Q1016.6 80.23 1016.15 79.97Q1015.3 79.48 1014.23 79.27L1014.24 79.15Q1015.71 78.94 1016.58 78.1Q1016.65 78.03 1016.71 77.96Q1016.89 77.77 1017.04 77.55Q1017.61 76.7 1017.66 75.49Q1017.73 73.84 1016.96 72.85Q1016.63 72.43 1016.16 72.13ZM1025.06 71.56L1023.06 71.47L1022.33 88.6L1024.73 88.7L1034.78 74.86L1034.88 74.86Q1034.84 75.22 1034.76 76.06Q1034.67 76.9 1034.59 77.9Q1034.51 78.91 1034.47 79.8L1034.06 89.1L1036.09 89.18L1036.82 72.06L1034.43 71.96L1024.4 85.73L1024.3 85.72Q1024.36 85.35 1024.43 84.53Q1024.5 83.72 1024.56 82.73Q1024.64 81.75 1024.67 80.96L1025.06 71.56ZM1052.65 89.89L1054.81 89.98L1055.54 72.86L1053.38 72.77L1053.06 80.01L1044.3 79.64L1044.61 72.39L1042.44 72.3L1041.72 89.42L1043.88 89.52L1044.22 81.53L1052.99 81.91L1052.65 89.89ZM1070.8 75.44L1070.88 73.52L1061.22 73.1L1060.48 90.23L1062.64 90.32L1063.29 75.12L1070.8 75.44ZM1099.63 91.9L1102.21 92.01L1094.81 82.88L1102.61 74.87L1100.16 74.77L1092.26 82.75L1092.61 74.45L1090.44 74.35L1089.72 91.48L1091.88 91.57L1092.25 82.89L1099.63 91.9ZM1111.25 90.37Q1112.07 89.26 1112.92 87.59L1118.91 75.57L1116.63 75.47L1112.1 84.79L1111.82 85.39Q1111.68 85.76 1111.56 86.02L1111.47 86.01Q1111.36 85.67 1111.21 85.3Q1111.06 84.92 1110.94 84.67L1106.59 75.04L1104.21 74.94L1110.26 87.95Q1109.53 89.39 1108.72 89.94Q1107.92 90.48 1106.56 90.42Q1105.98 90.39 1105.43 90.24Q1104.88 90.08 1104.41 89.85L1104.31 91.98Q1104.79 92.17 1105.37 92.29Q1105.96 92.41 1106.63 92.44Q1108.26 92.51 1109.34 91.99Q1110.42 91.47 1111.25 90.37ZM1130.47 93.22L1132.63 93.31L1133.36 76.19L1123.98 75.79Q1123.54 78.44 1123.11 80.77Q1122.68 83.11 1122.32 84.86Q1121.98 86.61 1121.75 87.51Q1121.55 88.37 1121.27 89.24Q1121 90.1 1120.55 90.67Q1120.32 90.96 1120.03 91.09Q1119.74 91.22 1119.38 91.21Q1119 91.19 1118.67 91.09Q1118.34 90.99 1118.07 90.86L1118 92.66Q1118.31 92.79 1118.72 92.89Q1119.14 93 1119.55 93.01Q1120.77 93.07 1121.55 92.53Q1122.32 91.98 1122.82 90.87Q1123.34 89.76 1123.72 88.17Q1124.03 86.94 1124.37 85.17Q1124.71 83.41 1125.06 81.47Q1125.41 79.52 1125.69 77.76L1131.12 77.99L1130.47 93.22ZM958.48 70.57L960.67 70.66Q962.94 70.76 963.96 71.62Q964.2 71.82 964.38 72.06Q964.97 72.86 964.91 74.13Q964.85 75.63 964.07 76.4Q963.86 76.61 963.6 76.77Q962.37 77.51 959.92 77.4L958.19 77.33L958.48 70.57ZM1014.51 77.71Q1013.67 78.38 1011.46 78.28L1008.3 78.15L1008.53 72.71L1011.36 72.83Q1013.54 72.92 1014.51 73.58Q1014.81 73.78 1015.01 74.05Q1015.46 74.66 1015.42 75.64Q1015.37 76.8 1014.77 77.47Q1014.65 77.6 1014.51 77.71ZM943.66 73.18Q944.11 71.44 944.27 70.05L948.15 70.22L947.59 83.48L939.6 83.14Q940.42 81.88 941.18 80.21Q941.94 78.53 942.58 76.73Q943.22 74.91 943.66 73.18ZM976.41 73.52Q976.56 74.03 976.62 74.22L978.32 79.48L972.9 79.25L975.07 74.15Q975.23 73.76 975.47 73.06Q975.72 72.36 975.92 71.62Q976 71.91 976.13 72.46Q976.27 73.01 976.41 73.52ZM1007.96 86.16L1008.22 79.95L1011.5 80.09Q1013.88 80.19 1014.77 81.05Q1015.1 81.38 1015.3 81.77Q1015.63 82.43 1015.6 83.26Q1015.55 84.31 1015.05 85.04Q1014.86 85.32 1014.61 85.56Q1013.69 86.4 1011.41 86.31L1007.96 86.16ZM899.27 80.2Q898.24 81.45 895.57 81.33L892.31 81.19L892.57 75.03L895.52 75.15Q897.73 75.25 898.85 75.97Q899.18 76.18 899.4 76.47Q899.95 77.17 899.9 78.34Q899.85 79.49 899.27 80.2Z" fill="#2D2F30" fill-opacity="1.000000" fill-rule="evenodd"/>
	<path id="учись с драйвингскул" d="M1406.38 85.12Q1407.34 84.24 1407.57 82.57L1405.58 82.49Q1405.41 83.73 1404.75 84.17Q1404.1 84.61 1402.99 84.57Q1401.74 84.51 1401.2 84.04Q1400.66 83.57 1400.59 82.28L1398.62 82.19Q1398.67 84.02 1399.6 84.97Q1400.53 85.93 1402.88 86.03Q1405.16 86.12 1406.24 85.24Q1406.31 85.19 1406.38 85.12ZM1287.32 85.27Q1288.68 84.48 1290.55 84.56C1291.31 84.6 1292.02 84.72 1292.66 84.94Q1293.62 85.27 1294.39 85.67L1295.34 83.88Q1293.37 82.79 1290.66 82.67Q1288.01 82.56 1286.12 83.59Q1285.28 84.05 1284.61 84.69Q1283.77 85.49 1283.18 86.57Q1282.17 88.5 1282.06 91.1Q1281.93 93.78 1282.73 95.81Q1283.25 97.14 1284.16 98.09Q1284.64 98.59 1285.22 98.99Q1286.93 100.14 1289.54 100.26C1290.48 100.3 1291.3 100.27 1291.98 100.19Q1292.63 100.12 1293.25 99.96Q1293.62 99.87 1293.98 99.75L1294.06 97.88Q1293.09 98.13 1292.07 98.28C1291.4 98.37 1290.68 98.4 1289.93 98.37Q1287.65 98.27 1286.3 97.1Q1285.91 96.76 1285.59 96.33Q1284.19 94.4 1284.32 91.22Q1284.47 88 1286.13 86.23Q1286.67 85.65 1287.32 85.27ZM1327.62 86.99Q1328.98 86.21 1330.84 86.29Q1331.99 86.33 1332.95 86.66Q1333.91 86.99 1334.68 87.39L1335.63 85.6Q1333.65 84.51 1330.94 84.4Q1328.3 84.28 1326.41 85.32Q1325.57 85.77 1324.9 86.41Q1324.06 87.21 1323.48 88.29Q1322.46 90.23 1322.34 92.82Q1322.23 95.5 1323.02 97.53Q1323.54 98.86 1324.45 99.82Q1324.93 100.32 1325.51 100.71Q1327.22 101.87 1329.83 101.98Q1331.25 102.04 1332.27 101.91Q1332.92 101.84 1333.54 101.68Q1333.91 101.59 1334.27 101.47L1334.35 99.6Q1333.38 99.85 1332.37 100Q1331.35 100.14 1330.23 100.09Q1327.94 100 1326.59 98.82Q1326.19 98.48 1325.88 98.05Q1324.48 96.12 1324.62 92.94Q1324.76 89.73 1326.42 87.95Q1326.96 87.37 1327.62 86.99ZM1486.98 93.8Q1488.34 93.02 1490.2 93.1Q1491.34 93.14 1492.3 93.47Q1493.26 93.8 1494.04 94.2L1494.98 92.41Q1493.01 91.32 1490.3 91.21Q1487.66 91.09 1485.76 92.13C1484.5 92.82 1483.53 93.81 1482.84 95.1Q1481.81 97.04 1481.7 99.63Q1481.59 102.31 1482.37 104.34C1482.9 105.69 1483.73 106.75 1484.87 107.52Q1486.57 108.68 1489.19 108.79Q1490.6 108.85 1491.63 108.72Q1492.27 108.65 1492.9 108.49Q1493.27 108.4 1493.63 108.28L1493.71 106.41Q1492.74 106.66 1491.72 106.81Q1490.71 106.95 1489.58 106.9Q1487.3 106.81 1485.95 105.63Q1485.55 105.29 1485.24 104.86Q1483.84 102.94 1483.98 99.75Q1484.11 96.54 1485.77 94.76Q1486.32 94.18 1486.98 93.8ZM1387.52 98.89L1389.35 104.28L1391.58 104.38L1385.65 86.9L1383.71 86.82L1376.29 103.72L1378.47 103.82L1380.73 98.6L1387.52 98.89ZM1235.15 95.66Q1235.98 94.55 1236.81 92.89L1242.81 80.86L1240.53 80.77L1236 90.09Q1235.89 90.32 1235.73 90.69Q1235.57 91.05 1235.46 91.31L1235.37 91.31Q1235.26 90.97 1235.11 90.59Q1234.96 90.21 1234.85 89.97L1230.49 80.34L1228.11 80.24L1234.16 93.25Q1233.43 94.68 1232.62 95.23Q1231.81 95.77 1230.47 95.71Q1229.88 95.69 1229.32 95.54Q1228.78 95.38 1228.31 95.14L1228.22 97.28Q1228.68 97.46 1229.27 97.58Q1229.86 97.71 1230.53 97.73Q1232.16 97.8 1233.24 97.29Q1234.31 96.76 1235.15 95.66ZM1255.32 98.55L1257.49 98.65L1258.22 81.52L1256.06 81.43L1255.69 89.73Q1254.27 90.12 1253.13 90.34Q1251.99 90.56 1250.57 90.5Q1248.94 90.43 1248.25 89.71Q1248.21 89.67 1248.17 89.63Q1247.55 88.92 1247.6 87.61L1247.88 81.08L1245.73 80.99L1245.43 87.83Q1245.37 89.45 1246.1 90.51Q1246.31 90.84 1246.61 91.11Q1247.88 92.28 1250.28 92.38Q1251.77 92.44 1252.99 92.2Q1254.21 91.95 1255.63 91.53L1255.32 98.55ZM1265.9 81.85L1263.89 81.76L1263.16 98.89L1265.56 98.99L1275.62 85.15L1275.71 85.16Q1275.67 85.51 1275.59 86.35Q1275.5 87.19 1275.42 88.19Q1275.34 89.2 1275.3 90.09L1274.91 99.39L1276.93 99.48L1277.66 82.35L1275.26 82.25L1265.23 96.02L1265.13 96.02Q1265.19 95.64 1265.27 94.83Q1265.34 94.01 1265.4 93.03Q1265.47 92.04 1265.5 91.25L1265.9 81.85ZM1299.43 83.28L1298.69 100.41L1304.34 100.65Q1307.48 100.78 1309.06 99.47Q1309.66 98.98 1310.05 98.36Q1310.69 97.32 1310.76 95.9Q1310.81 94.82 1310.46 93.88Q1310.36 93.64 1310.24 93.41L1310.24 93.4Q1309.67 92.28 1308.28 91.57Q1306.89 90.86 1304.5 90.75L1301.28 90.62L1301.59 83.38L1299.43 83.28ZM1358.35 101.03L1359 85.83L1351.09 85.49Q1350.91 87.38 1350.44 89.4Q1349.97 91.43 1349.28 93.43Q1348.6 95.43 1347.74 97.24Q1346.88 99.05 1345.96 100.5L1344.64 100.45L1344.36 106.87L1346.42 106.96L1346.62 102.46L1358.39 102.96L1358.2 107.47L1360.26 107.55L1360.53 101.13L1358.35 101.03ZM1374.4 87.81Q1372.93 86.42 1369.57 86.28L1365.03 86.09L1364.3 103.21L1366.46 103.3L1366.75 96.63L1368.71 96.72Q1371.28 96.83 1372.81 96.13Q1374.29 95.45 1374.98 94.29Q1375 94.25 1375.03 94.21Q1375.33 93.69 1375.51 93.13Q1375.74 92.39 1375.78 91.6Q1375.85 89.83 1375.07 88.61Q1374.79 88.18 1374.4 87.81ZM1397.7 87.48L1395.69 87.4L1394.95 104.52L1397.35 104.62L1407.41 90.78L1407.5 90.79Q1407.47 91.14 1407.38 91.98Q1407.3 92.82 1407.22 93.83Q1407.14 94.83 1407.1 95.72L1406.7 105.02L1408.72 105.11L1409.45 87.99L1407.05 87.88L1397.02 101.65L1396.93 101.65Q1396.99 101.27 1397.06 100.46Q1397.13 99.64 1397.2 98.66Q1397.26 97.68 1397.3 96.88L1397.7 87.48ZM1424.78 89.59Q1423.18 88.57 1419.97 88.44L1415.08 88.23L1414.34 105.35L1420.36 105.61Q1423.12 105.72 1424.77 104.52Q1425.31 104.12 1425.69 103.6Q1426.45 102.55 1426.52 101Q1426.58 99.65 1426.11 98.79Q1425.88 98.37 1425.57 98.04Q1425.23 97.69 1424.78 97.44Q1423.93 96.94 1422.86 96.73L1422.86 96.61Q1424.34 96.4 1425.2 95.56Q1425.27 95.5 1425.34 95.43Q1425.52 95.23 1425.66 95.01Q1426.24 94.16 1426.29 92.96Q1426.36 91.3 1425.58 90.31Q1425.26 89.89 1424.78 89.59ZM1433.7 89.02L1431.68 88.94L1430.95 106.06L1433.35 106.16L1443.41 92.32L1443.5 92.33Q1443.47 92.68 1443.38 93.52Q1443.3 94.36 1443.22 95.36Q1443.14 96.37 1443.1 97.26L1442.7 106.56L1444.72 106.65L1445.45 89.52L1443.05 89.42L1433.02 103.19L1432.93 103.19Q1432.99 102.81 1433.06 102Q1433.13 101.18 1433.2 100.2Q1433.26 99.21 1433.3 98.42L1433.7 89.02ZM1461.28 107.36L1463.44 107.45L1464.17 90.32L1462.01 90.23L1461.7 97.47L1452.93 97.1L1453.24 89.86L1451.08 89.76L1450.34 106.89L1452.5 106.98L1452.85 98.99L1461.62 99.37L1461.28 107.36ZM1479.43 92.9L1479.51 90.98L1469.84 90.57L1469.11 107.69L1471.27 107.78L1471.92 92.58L1479.43 92.9ZM1508.25 109.36L1510.84 109.47L1503.45 100.34L1511.24 92.34L1508.79 92.23L1500.89 100.21L1501.24 91.91L1499.08 91.82L1498.35 108.94L1500.51 109.03L1500.88 100.35L1508.25 109.36ZM1519.88 107.83Q1520.71 106.72 1521.54 105.06L1527.54 93.03L1525.26 92.93L1520.73 102.25L1520.46 102.86Q1520.3 103.22 1520.19 103.48L1520.1 103.48Q1519.99 103.14 1519.84 102.76Q1519.69 102.38 1519.58 102.13L1515.21 92.51L1512.84 92.4L1518.88 105.42Q1518.15 106.85 1517.35 107.4Q1516.55 107.94 1515.2 107.88Q1514.6 107.86 1514.05 107.7Q1513.51 107.55 1513.04 107.31L1512.95 109.45Q1513.42 109.63 1514 109.75Q1514.59 109.87 1515.26 109.9Q1516.89 109.97 1517.97 109.46Q1519.05 108.93 1519.88 107.83ZM1539.1 110.68L1541.26 110.77L1541.99 93.65L1532.61 93.25Q1532.16 95.9 1531.73 98.24Q1531.31 100.57 1530.96 102.32Q1530.61 104.07 1530.38 104.98Q1530.18 105.83 1529.9 106.7Q1529.62 107.56 1529.18 108.13Q1528.95 108.42 1528.66 108.55Q1528.37 108.69 1528.01 108.67Q1527.63 108.65 1527.29 108.56Q1526.96 108.46 1526.71 108.33L1526.63 110.12Q1526.93 110.25 1527.35 110.35Q1527.77 110.46 1528.17 110.48Q1529.4 110.53 1530.18 109.99Q1530.96 109.44 1531.46 108.34Q1531.97 107.23 1532.34 105.64Q1532.66 104.4 1533 102.64Q1533.34 100.88 1533.69 98.93Q1534.03 96.99 1534.33 95.22L1539.75 95.45L1539.1 110.68ZM1367.12 88.03L1369.3 88.12Q1371.58 88.22 1372.59 89.08Q1372.83 89.28 1373.01 89.52Q1373.6 90.32 1373.54 91.59Q1373.48 93.09 1372.7 93.86Q1372.49 94.07 1372.23 94.23Q1371 94.97 1368.55 94.86L1366.83 94.79L1367.12 88.03ZM1423.14 95.17Q1422.29 95.84 1420.09 95.75L1416.92 95.61L1417.16 90.17L1419.98 90.29Q1422.17 90.38 1423.14 91.04Q1423.44 91.24 1423.64 91.51Q1424.09 92.12 1424.05 93.1Q1424 94.27 1423.39 94.93Q1423.28 95.06 1423.14 95.17ZM1352.29 90.64Q1352.74 88.91 1352.9 87.52L1356.78 87.68L1356.22 100.94L1348.23 100.6Q1349.06 99.34 1349.81 97.67Q1350.57 96 1351.21 94.19Q1351.85 92.37 1352.29 90.64ZM1385.05 90.98Q1385.19 91.49 1385.26 91.68L1386.95 96.95L1381.53 96.72L1383.7 91.62Q1383.86 91.22 1384.1 90.52Q1384.35 89.82 1384.55 89.09Q1384.63 89.38 1384.76 89.93Q1384.9 90.47 1385.05 90.98ZM1416.58 103.62L1416.85 97.41L1420.13 97.55Q1422.51 97.65 1423.39 98.52Q1423.73 98.84 1423.93 99.24Q1424.26 99.89 1424.22 100.73Q1424.18 101.77 1423.68 102.5Q1423.49 102.78 1423.24 103.02Q1422.31 103.87 1420.04 103.77L1416.58 103.62ZM1307.9 97.66Q1306.88 98.91 1304.19 98.79L1300.93 98.66L1301.19 92.49L1304.15 92.62Q1306.36 92.71 1307.48 93.43Q1307.81 93.64 1308.03 93.93Q1308.57 94.63 1308.53 95.81Q1308.49 96.96 1307.9 97.66Z" fill="#2D2F30" fill-opacity="1.000000" fill-rule="evenodd"/>
	<path id="учись с драйвингскул" d="M1815.01 102.59Q1815.97 101.71 1816.2 100.04L1814.2 99.95Q1814.03 101.19 1813.38 101.64Q1812.72 102.08 1811.62 102.03Q1810.37 101.98 1809.83 101.51Q1809.28 101.04 1809.22 99.74L1807.25 99.65Q1807.3 101.48 1808.23 102.44Q1809.16 103.39 1811.51 103.49Q1813.79 103.59 1814.87 102.71Q1814.94 102.65 1815.01 102.59ZM1695.96 102.73Q1697.32 101.95 1699.18 102.03C1699.94 102.06 1700.65 102.19 1701.28 102.4Q1702.24 102.73 1703.02 103.13L1703.96 101.35Q1701.99 100.25 1699.28 100.14Q1696.64 100.02 1694.74 101.06Q1693.91 101.52 1693.24 102.15Q1692.4 102.95 1691.82 104.03Q1690.79 105.97 1690.68 108.56Q1690.57 111.24 1691.35 113.27Q1691.88 114.6 1692.79 115.56Q1693.27 116.06 1693.85 116.46Q1695.56 117.61 1698.17 117.72C1699.11 117.76 1699.93 117.74 1700.61 117.65Q1701.25 117.58 1701.88 117.42Q1702.25 117.33 1702.61 117.21L1702.69 115.34Q1701.72 115.59 1700.7 115.74C1700.03 115.84 1699.31 115.87 1698.56 115.84Q1696.28 115.74 1694.93 114.57Q1694.53 114.22 1694.22 113.79Q1692.82 111.87 1692.96 108.68Q1693.1 105.47 1694.76 103.69Q1695.3 103.11 1695.96 102.73ZM1736.25 104.45Q1737.61 103.67 1739.47 103.75Q1740.61 103.8 1741.57 104.13Q1742.53 104.45 1743.31 104.85L1744.25 103.07Q1742.28 101.98 1739.57 101.86Q1736.93 101.75 1735.03 102.78Q1734.2 103.24 1733.53 103.87Q1732.68 104.67 1732.11 105.75Q1731.08 107.69 1730.97 110.28Q1730.86 112.96 1731.64 114.99Q1732.16 116.32 1733.08 117.28Q1733.56 117.78 1734.14 118.18Q1735.85 119.33 1738.46 119.44Q1739.87 119.5 1740.9 119.38Q1741.54 119.3 1742.17 119.14Q1742.54 119.05 1742.9 118.93L1742.98 117.07Q1742.01 117.31 1740.99 117.46Q1739.98 117.61 1738.85 117.56Q1736.57 117.46 1735.22 116.29Q1734.82 115.95 1734.51 115.51Q1733.11 113.59 1733.25 110.4Q1733.38 107.19 1735.04 105.41Q1735.59 104.83 1736.25 104.45ZM1895.6 111.26Q1896.97 110.48 1898.82 110.56Q1899.97 110.61 1900.93 110.94Q1901.89 111.26 1902.66 111.66L1903.61 109.88Q1901.64 108.79 1898.93 108.67Q1896.29 108.56 1894.39 109.59C1893.13 110.28 1892.15 111.27 1891.47 112.56Q1890.44 114.5 1890.33 117.09Q1890.21 119.77 1891 121.8C1891.53 123.15 1892.36 124.22 1893.5 124.99Q1895.2 126.14 1897.81 126.25Q1899.23 126.31 1900.26 126.19Q1900.9 126.11 1901.52 125.95Q1901.89 125.86 1902.26 125.74L1902.34 123.88Q1901.36 124.12 1900.35 124.27Q1899.33 124.42 1898.21 124.37Q1895.92 124.27 1894.57 123.1Q1894.18 122.76 1893.86 122.32Q1892.47 120.4 1892.6 117.21Q1892.74 114 1894.4 112.22Q1894.94 111.64 1895.6 111.26ZM1796.14 116.36L1797.98 121.74L1800.21 121.84L1794.28 104.36L1792.34 104.28L1784.91 121.19L1787.1 121.28L1789.36 116.07L1796.14 116.36ZM1643.78 113.13Q1644.6 112.02 1645.44 110.35L1651.43 98.33L1649.16 98.23L1644.62 107.55Q1644.52 107.78 1644.36 108.15Q1644.2 108.52 1644.09 108.78L1644 108.77Q1643.89 108.43 1643.74 108.06Q1643.59 107.67 1643.48 107.43L1639.11 97.8L1636.74 97.7L1642.78 110.71Q1642.05 112.15 1641.25 112.69Q1640.45 113.24 1639.1 113.18Q1638.5 113.15 1637.95 113Q1637.41 112.84 1636.94 112.6L1636.85 114.74Q1637.32 114.93 1637.9 115.04Q1638.49 115.17 1639.16 115.2Q1640.79 115.27 1641.87 114.75Q1642.95 114.23 1643.78 113.13ZM1663.95 116.02L1666.11 116.11L1666.85 98.99L1664.69 98.89L1664.33 107.19Q1662.9 107.58 1661.75 107.81Q1660.62 108.02 1659.21 107.96Q1657.57 107.89 1656.87 107.17Q1656.83 107.14 1656.8 107.1Q1656.17 106.39 1656.23 105.07L1656.51 98.54L1654.35 98.45L1654.06 105.29Q1653.99 106.91 1654.73 107.98Q1654.95 108.3 1655.24 108.57Q1656.51 109.74 1658.91 109.84Q1660.4 109.91 1661.62 109.66Q1662.84 109.41 1664.25 108.99L1663.95 116.02ZM1674.53 99.31L1672.52 99.23L1671.78 116.35L1674.19 116.45L1684.24 102.61L1684.34 102.62Q1684.3 102.97 1684.21 103.82Q1684.13 104.65 1684.05 105.66Q1683.97 106.66 1683.93 107.55L1683.53 116.85L1685.55 116.94L1686.29 99.82L1683.89 99.71L1673.85 113.48L1673.76 113.48Q1673.82 113.1 1673.89 112.29Q1673.96 111.47 1674.03 110.49Q1674.09 109.51 1674.13 108.72L1674.53 99.31ZM1708.06 100.75L1707.33 117.87L1712.97 118.11Q1716.1 118.25 1717.7 116.94Q1718.29 116.45 1718.68 115.83Q1719.33 114.78 1719.39 113.37Q1719.44 112.28 1719.08 111.34Q1718.99 111.1 1718.87 110.87L1718.87 110.86Q1718.29 109.74 1716.91 109.03Q1715.52 108.32 1713.13 108.22L1709.91 108.08L1710.22 100.84L1708.06 100.75ZM1766.98 118.5L1767.63 103.29L1759.72 102.95Q1759.54 104.85 1759.06 106.87Q1758.6 108.89 1757.91 110.89Q1757.23 112.89 1756.36 114.71Q1755.51 116.52 1754.58 117.97L1753.27 117.91L1752.99 124.34L1755.05 124.43L1755.24 119.92L1767.02 120.42L1766.82 124.93L1768.88 125.02L1769.16 118.59L1766.98 118.5ZM1783.03 105.28Q1781.55 103.89 1778.19 103.74L1773.66 103.55L1772.93 120.67L1775.09 120.77L1775.37 114.1L1777.34 114.18Q1779.91 114.29 1781.44 113.59Q1782.92 112.91 1783.61 111.75Q1783.63 111.72 1783.65 111.68Q1783.95 111.15 1784.13 110.59Q1784.37 109.86 1784.4 109.06Q1784.48 107.29 1783.7 106.07Q1783.42 105.64 1783.03 105.28ZM1806.33 104.95L1804.31 104.86L1803.58 121.98L1805.98 122.09L1816.04 108.25L1816.13 108.25Q1816.09 108.61 1816.01 109.45Q1815.93 110.28 1815.84 111.29Q1815.77 112.29 1815.73 113.18L1815.33 122.49L1817.35 122.57L1818.08 105.45L1815.68 105.35L1805.65 119.12L1805.56 119.11Q1805.62 118.73 1805.69 117.92Q1805.76 117.1 1805.83 116.12Q1805.89 115.14 1805.92 114.35L1806.33 104.95ZM1833.41 107.05Q1831.81 106.04 1828.6 105.9L1823.7 105.69L1822.97 122.81L1828.99 123.07Q1831.75 123.19 1833.39 121.98Q1833.94 121.59 1834.32 121.06Q1835.08 120.01 1835.15 118.46Q1835.2 117.11 1834.73 116.25Q1834.51 115.84 1834.19 115.51Q1833.85 115.15 1833.41 114.9Q1832.56 114.41 1831.49 114.19L1831.49 114.07Q1832.97 113.87 1833.83 113.03Q1833.9 112.96 1833.96 112.89Q1834.14 112.7 1834.29 112.48Q1834.86 111.62 1834.91 110.42Q1834.98 108.77 1834.21 107.77Q1833.88 107.36 1833.41 107.05ZM1842.33 106.49L1840.31 106.4L1839.58 123.52L1841.98 123.62L1852.04 109.79L1852.13 109.79Q1852.09 110.15 1852.01 110.99Q1851.93 111.82 1851.84 112.83Q1851.76 113.83 1851.73 114.72L1851.33 124.02L1853.35 124.11L1854.08 106.99L1851.68 106.88L1841.65 120.65L1841.56 120.65Q1841.62 120.27 1841.69 119.46Q1841.76 118.64 1841.82 117.66Q1841.89 116.68 1841.92 115.89L1842.33 106.49ZM1869.91 124.82L1872.07 124.91L1872.8 107.79L1870.64 107.69L1870.33 114.94L1861.55 114.56L1861.86 107.32L1859.7 107.23L1858.97 124.35L1861.13 124.44L1861.47 116.46L1870.25 116.83L1869.91 124.82ZM1888.05 110.36L1888.13 108.44L1878.47 108.03L1877.74 125.15L1879.9 125.24L1880.55 110.04L1888.05 110.36ZM1916.88 126.83L1919.47 126.94L1912.08 117.81L1919.87 109.8L1917.42 109.69L1909.51 117.67L1909.87 109.37L1907.71 109.28L1906.97 126.4L1909.14 126.49L1909.51 117.81L1916.88 126.83ZM1928.5 125.29Q1929.33 124.18 1930.17 122.52L1936.16 110.5L1933.89 110.4L1929.35 119.72L1929.09 120.32Q1928.93 120.68 1928.82 120.94L1928.73 120.94Q1928.62 120.6 1928.46 120.22Q1928.32 119.84 1928.21 119.6L1923.84 109.97L1921.46 109.87L1927.51 122.88Q1926.78 124.32 1925.98 124.86Q1925.17 125.4 1923.83 125.35Q1923.23 125.32 1922.68 125.17Q1922.14 125.01 1921.67 124.77L1921.57 126.91Q1922.05 127.09 1922.63 127.21Q1923.22 127.34 1923.89 127.37Q1925.52 127.43 1926.59 126.92Q1927.68 126.4 1928.5 125.29ZM1947.72 128.14L1949.88 128.24L1950.62 111.11L1941.24 110.71Q1940.79 113.36 1940.36 115.7Q1939.94 118.03 1939.59 119.78Q1939.24 121.53 1939.01 122.44Q1938.81 123.29 1938.53 124.16Q1938.25 125.02 1937.8 125.6Q1937.58 125.88 1937.29 126.02Q1937 126.15 1936.64 126.13Q1936.26 126.12 1935.92 126.02Q1935.59 125.92 1935.33 125.79L1935.26 127.59Q1935.56 127.72 1935.98 127.82Q1936.4 127.92 1936.8 127.94Q1938.02 127.99 1938.8 127.45Q1939.58 126.9 1940.09 125.8Q1940.59 124.69 1940.97 123.1Q1941.29 121.86 1941.63 120.1Q1941.97 118.34 1942.31 116.39Q1942.66 114.45 1942.95 112.69L1948.37 112.92L1947.72 128.14ZM1775.74 105.49L1777.93 105.59Q1780.2 105.68 1781.22 106.54Q1781.46 106.74 1781.64 106.99Q1782.22 107.79 1782.17 109.06Q1782.11 110.55 1781.33 111.33Q1781.12 111.54 1780.85 111.69Q1779.63 112.43 1777.18 112.33L1775.45 112.25L1775.74 105.49ZM1831.76 112.63Q1830.92 113.31 1828.72 113.21L1825.55 113.08L1825.78 107.63L1828.61 107.75Q1830.8 107.85 1831.76 108.5Q1832.06 108.7 1832.26 108.97Q1832.71 109.59 1832.67 110.56Q1832.62 111.73 1832.02 112.39Q1831.9 112.52 1831.76 112.63ZM1760.92 108.1Q1761.37 106.37 1761.52 104.98L1765.41 105.15L1764.84 118.4L1756.86 118.06Q1757.68 116.8 1758.44 115.13Q1759.2 113.46 1759.84 111.65Q1760.48 109.84 1760.92 108.1ZM1793.67 108.45Q1793.82 108.96 1793.88 109.15L1795.58 114.41L1790.16 114.18L1792.33 109.08Q1792.48 108.68 1792.73 107.98Q1792.98 107.29 1793.18 106.55Q1793.26 106.84 1793.39 107.39Q1793.52 107.94 1793.67 108.45ZM1825.21 121.08L1825.47 114.87L1828.76 115.01Q1831.14 115.11 1832.02 115.98Q1832.36 116.31 1832.56 116.7Q1832.89 117.35 1832.85 118.19Q1832.81 119.23 1832.31 119.97Q1832.12 120.25 1831.86 120.48Q1830.94 121.33 1828.66 121.23L1825.21 121.08ZM1716.53 115.13Q1715.5 116.37 1712.83 116.26L1709.57 116.12L1709.83 109.95L1712.78 110.08Q1714.99 110.17 1716.11 110.9Q1716.43 111.1 1716.66 111.39Q1717.21 112.09 1717.16 113.27Q1717.11 114.42 1716.53 115.13Z" fill="#2D2F30" fill-opacity="1.000000" fill-rule="evenodd"/>
</svg>
