<svg width="24.858521" height="24.974609" viewBox="0 0 24.8585 24.9746" fill="none" xmlns="http://www.w3.org/2000/svg" xmlns:xlink="http://www.w3.org/1999/xlink">
	<desc>
			Created with Pixso.
	</desc>
	<defs/>
	<path id="Vector" d="M17.34 16.05C17.84 15.79 18.37 15.72 18.68 15.91C19.16 16.21 23.19 18.89 23.53 19.12C23.87 19.36 24.03 20.04 23.56 20.7C23.1 21.37 20.96 24 20.05 23.97C19.14 23.94 15.36 23.86 8.23 16.73C1.11 9.6 1.02 5.82 1 4.91C0.97 4 3.59 1.86 4.26 1.4C4.93 0.93 5.6 1.11 5.84 1.43C6.11 1.8 8.76 5.82 9.05 6.28C9.25 6.59 9.18 7.12 8.91 7.62C8.64 8.13 7.54 10.05 7.54 10.05C7.54 10.05 8.32 11.38 10.95 14.01C13.58 16.64 14.91 17.42 14.91 17.42C14.91 17.42 16.84 16.32 17.34 16.05Z" stroke="#00000000" stroke-opacity="1.000000" stroke-width="2.000000"/>
</svg>
