<svg width="453.000000" height="158.000000" viewBox="0 0 453 158" fill="none" xmlns="http://www.w3.org/2000/svg" xmlns:xlink="http://www.w3.org/1999/xlink">
	<desc>
			Created with Pixso.
	</desc>
	<defs/>
	<path id="ГИМС" d="M387.57 123.76Q398.05 128.4 410.58 128.4Q422.62 128.4 432.63 124.19Q439.17 121.45 444.37 117.1Q447.13 114.79 449.52 112.02L437.76 100.81Q432.16 106.92 425.22 109.81Q418.94 112.43 411.58 112.43Q402.66 112.43 395.38 108.99Q394.42 108.54 393.49 108.03Q389.25 105.68 386 102.36Q383.15 99.45 381.05 95.79Q380.38 94.61 379.81 93.38Q376.58 86.44 376.58 77.98Q376.58 69.58 379.79 62.68Q380.37 61.44 381.05 60.24Q383.2 56.48 386.14 53.5Q389.34 50.27 393.49 47.97Q394.42 47.46 395.38 47.01Q402.66 43.56 411.58 43.56Q419.09 43.56 425.47 46.26Q432.26 49.13 437.76 55.05L449.52 43.97Q446.95 41 443.96 38.55Q438.93 34.44 432.7 31.8Q422.75 27.6 410.72 27.6Q398.3 27.6 387.89 32.18Q385.87 33.07 383.92 34.13Q377.21 37.77 372.11 42.98Q368.11 47.06 365.09 52.11Q363.38 54.96 362.1 58Q358.22 67.17 358.22 77.98Q358.22 89.12 362.28 98.51Q363.47 101.27 365.02 103.89Q367.92 108.78 371.76 112.78Q376.92 118.16 383.79 121.9Q385.64 122.91 387.57 123.76ZM48.65 44.38L97.21 44.38L97.35 29L30.87 29L30.87 127L48.78 127L48.65 44.38ZM131.68 29L113.77 29L113.77 127L130.69 127L183.33 57.54L183.33 127L201.24 127L201.24 29L184.32 29L131.68 98.59L131.68 29ZM319.57 62.02L319.71 127L337.07 127L336.8 29L321.97 29L283.58 93.81L244.82 29L229.85 29L229.85 127L247.04 127L247.04 62.87L279.24 115.78L287.38 115.78L319.57 62.02Z" fill="#58AEE6" fill-opacity="1.000000" fill-rule="evenodd"/>
	<path id="Vector" d="M4 128L4 154L30 154" stroke="#58AEE6" stroke-opacity="1.000000" stroke-width="8.000000" stroke-linejoin="round" stroke-linecap="round"/>
</svg>
