<svg width="53.100830" height="70.000000" viewBox="0 0 53.1008 70" fill="none" xmlns="http://www.w3.org/2000/svg" xmlns:xlink="http://www.w3.org/1999/xlink">
	<desc>
			Created with Pixso.
	</desc>
	<defs/>
	<path id="Vector" d="M52.39 26.55L51.71 26.55C51.71 30.13 50.95 33.67 49.47 36.93C47.99 40.2 45.82 43.1 43.12 45.46C40.79 47.5 38.84 49.94 37.37 52.67C35.9 55.4 34.96 58.39 34.61 61.48C34.44 63.42 33.55 65.23 32.12 66.55C30.68 67.86 28.8 68.59 26.85 68.59L26.23 68.59C24.28 68.59 22.4 67.86 20.97 66.55C19.97 65.66 19.24 64.51 18.83 63.24C18.65 62.7 18.54 62.14 18.48 61.57L18.48 61.48C18.35 60.25 18.11 59.03 17.79 57.83C17.62 57.22 17.43 56.61 17.21 55.99C15.73 51.94 13.25 48.32 9.99 45.49C7.29 43.13 5.12 40.21 3.63 36.94C2.15 33.67 1.38 30.12 1.38 26.53C1.38 26.25 1.4 25.96 1.4 25.68C1.84 12.36 12.86 1.56 26.18 1.37L26.55 1.37C33.22 1.37 39.63 4.02 44.35 8.74C49.07 13.47 51.72 19.87 51.72 26.55L53.1 26.55C53.1 23.06 52.41 19.6 51.08 16.38C49.74 13.16 47.79 10.23 45.32 7.76C42.85 5.3 39.92 3.34 36.7 2.01C33.48 0.68 30.02 -0.01 26.53 0L26.16 0C12.08 0.21 0.49 11.55 0.01 25.62C0 25.93 0 26.24 0 26.53C-0.01 30.32 0.8 34.07 2.36 37.52C3.93 40.96 6.22 44.04 9.07 46.53C12.15 49.2 14.5 52.62 15.89 56.46C16.11 57.03 16.28 57.62 16.44 58.2C16.75 59.32 16.97 60.47 17.11 61.63L17.11 61.71L17.8 61.63L17.11 61.69C17.17 62.37 17.31 63.04 17.52 63.68C18.01 65.18 18.88 66.52 20.03 67.59C21.72 69.14 23.93 70 26.23 70L26.85 70C29.15 69.99 31.35 69.13 33.04 67.58C34.73 66.04 35.78 63.91 35.98 61.63L35.29 61.56L35.97 61.64C36.31 58.73 37.19 55.91 38.59 53.34C39.98 50.75 41.82 48.44 44.03 46.51C46.88 44.03 49.16 40.96 50.72 37.52C52.28 34.08 53.09 30.34 53.08 26.56L52.39 26.55Z" fill="#FFFFFF" fill-opacity="1.000000" fill-rule="nonzero"/>
	<path id="Vector" d="M30.68 62.51C30.64 62.53 28.97 63.4 26.57 63.4C25.11 63.4 23.67 63.08 22.34 62.48C22.25 62.44 22.16 62.43 22.06 62.43C21.97 62.43 21.87 62.46 21.79 62.5C21.7 62.54 21.63 62.6 21.57 62.67C21.51 62.74 21.46 62.83 21.43 62.92C21.36 63.11 21.36 63.32 21.43 63.51C21.5 63.71 21.64 63.86 21.82 63.96C23.31 64.64 24.93 64.99 26.57 64.99C29.36 64.99 31.24 63.96 31.3 63.93C31.47 63.83 31.6 63.66 31.66 63.46C31.72 63.27 31.71 63.06 31.63 62.87C31.46 62.48 31.03 62.31 30.68 62.51Z" fill="#FFFFFF" fill-opacity="1.000000" fill-rule="nonzero"/>
	<path id="Vector" d="M32.23 56.43C32.22 56.45 29.94 57.37 26.58 57.37C24.62 57.37 22.67 57.05 20.81 56.42C20.43 56.29 20.03 56.53 19.92 56.95C19.82 57.38 20.02 57.82 20.39 57.94C22.39 58.61 24.48 58.96 26.58 58.96C30.22 58.96 32.67 57.94 32.73 57.93C33.09 57.78 33.27 57.31 33.14 56.9C33.11 56.81 33.07 56.72 33.01 56.65C32.95 56.57 32.87 56.51 32.79 56.47C32.7 56.42 32.61 56.4 32.51 56.39C32.42 56.39 32.32 56.4 32.23 56.43Z" fill="#FFFFFF" fill-opacity="1.000000" fill-rule="nonzero"/>
	<path id="Vector" d="M44.83 20.23L41.91 18.51L41.91 13.73C41.91 13.48 41.85 13.23 41.72 13C41.6 12.78 41.43 12.59 41.22 12.45L33.07 7.3C32.84 7.14 32.56 7.06 32.27 7.06C32.04 7.06 31.81 7.11 31.6 7.2L26.71 9.58L21.79 7.2C21.59 7.11 21.37 7.06 21.14 7.06C20.85 7.06 20.57 7.14 20.32 7.3L12.2 12.45C11.98 12.59 11.8 12.78 11.68 13C11.55 13.22 11.49 13.48 11.49 13.73L11.49 18.51L8.58 20.23C8.35 20.37 8.16 20.56 8.03 20.79C7.9 21.02 7.83 21.28 7.83 21.54L7.83 31.7C7.83 31.96 7.9 32.22 8.03 32.45C8.16 32.68 8.35 32.87 8.58 33.01L11.49 34.71L11.49 39.51C11.49 39.76 11.55 40.01 11.68 40.23C11.8 40.46 11.98 40.64 12.2 40.78L20.32 45.94C20.57 46.1 20.85 46.18 21.14 46.18C21.37 46.18 21.59 46.13 21.79 46.02L26.71 43.66L31.6 46.02C31.81 46.13 32.04 46.18 32.27 46.18C32.56 46.18 32.84 46.1 33.07 45.94L41.22 40.78C41.43 40.64 41.6 40.45 41.73 40.23C41.85 40.01 41.91 39.76 41.91 39.51L41.91 34.71L44.83 33.01C45.06 32.87 45.25 32.68 45.38 32.45C45.51 32.22 45.58 31.96 45.58 31.7L45.58 21.54C45.58 21.28 45.51 21.02 45.38 20.79C45.25 20.56 45.06 20.37 44.83 20.23ZM21.26 8.77L21.14 8.56L20.79 8.03L21.26 8.77ZM21.15 44.39L13.24 39.37L13.24 34.61L16.97 32.23L20.22 34.3L20.22 37.46C19.86 37.66 19.58 37.97 19.42 38.34C19.25 38.71 19.22 39.13 19.32 39.52C19.42 39.92 19.65 40.27 19.97 40.51C20.29 40.76 20.69 40.9 21.09 40.9C21.5 40.9 21.89 40.76 22.21 40.51C22.54 40.27 22.76 39.92 22.86 39.52C22.96 39.13 22.93 38.71 22.77 38.34C22.61 37.97 22.32 37.66 21.97 37.46L21.97 34.18C21.97 33.93 21.9 33.68 21.78 33.45C21.66 33.23 21.49 33.04 21.27 32.9L18.6 31.2L21.27 29.51C21.48 29.37 21.66 29.18 21.78 28.96C21.9 28.74 21.96 28.49 21.97 28.24L21.97 20.38C22.32 20.18 22.6 19.88 22.76 19.51C22.92 19.14 22.95 18.73 22.85 18.34C22.75 17.95 22.52 17.6 22.21 17.35C21.89 17.11 21.5 16.97 21.09 16.97C20.69 16.97 20.3 17.11 19.98 17.35C19.66 17.6 19.43 17.95 19.33 18.34C19.23 18.73 19.27 19.14 19.43 19.51C19.59 19.88 19.86 20.18 20.22 20.38L20.22 28.11L12.28 33.15L9.58 31.56L9.58 21.67L12.37 20.02L15.87 22.23L15.87 26.09L14.52 26.95C14.26 26.8 13.96 26.72 13.66 26.72C13.3 26.72 12.95 26.83 12.66 27.03C12.36 27.22 12.12 27.51 11.99 27.84C11.85 28.17 11.81 28.54 11.88 28.89C11.95 29.24 12.13 29.56 12.38 29.82C12.63 30.07 12.96 30.24 13.31 30.31C13.66 30.38 14.03 30.35 14.36 30.21C14.69 30.07 14.97 29.84 15.17 29.54C15.37 29.24 15.48 28.89 15.48 28.53L15.48 28.41L16.92 27.49C17.14 27.36 17.31 27.17 17.43 26.95C17.55 26.73 17.62 26.48 17.61 26.23L17.61 22.1C17.62 21.85 17.55 21.6 17.43 21.38C17.31 21.15 17.14 20.97 16.92 20.83L13.25 18.51L13.25 13.86L16.92 11.53L19.31 13.04L19.31 13.16C19.31 13.52 19.42 13.87 19.62 14.17C19.82 14.46 20.1 14.7 20.43 14.83C20.76 14.97 21.13 15.01 21.48 14.94C21.83 14.87 22.16 14.69 22.41 14.44C22.66 14.19 22.84 13.86 22.91 13.51C22.98 13.16 22.94 12.79 22.8 12.46C22.67 12.13 22.43 11.85 22.13 11.65C21.84 11.45 21.48 11.34 21.13 11.34C20.82 11.34 20.52 11.42 20.26 11.57L18.56 10.5L21.18 8.83L25.82 11.09L25.82 42.15L21.15 44.39ZM41.14 33.15L33.18 28.11L33.18 20.38C33.53 20.18 33.81 19.88 33.97 19.51C34.13 19.14 34.16 18.73 34.06 18.34C33.96 17.95 33.74 17.6 33.42 17.35C33.1 17.11 32.71 16.97 32.31 16.97C31.9 16.97 31.51 17.11 31.19 17.35C30.87 17.6 30.65 17.95 30.55 18.34C30.45 18.73 30.48 19.14 30.64 19.51C30.8 19.88 31.08 20.18 31.43 20.38L31.43 28.24C31.43 28.49 31.5 28.74 31.62 28.97C31.75 29.19 31.92 29.37 32.14 29.51L34.81 31.2L32.14 32.9C31.92 33.04 31.74 33.23 31.62 33.45C31.5 33.67 31.43 33.92 31.43 34.18L31.43 37.46C31.15 37.62 30.91 37.85 30.75 38.12C30.58 38.4 30.5 38.72 30.5 39.04C30.49 39.36 30.57 39.68 30.73 39.96C30.89 40.24 31.12 40.47 31.4 40.63C31.68 40.79 32 40.88 32.32 40.87C32.64 40.87 32.95 40.79 33.23 40.62C33.51 40.46 33.74 40.23 33.89 39.95C34.05 39.67 34.13 39.35 34.13 39.03C34.12 38.71 34.03 38.39 33.86 38.12C33.7 37.84 33.46 37.62 33.18 37.46L33.18 34.3L36.44 32.23L40.17 34.61L40.17 39.37L32.25 44.39L27.6 42.15L27.6 11.09L32.25 8.83L34.86 10.5L33.18 11.57C32.91 11.42 32.62 11.34 32.31 11.34C31.95 11.34 31.6 11.45 31.3 11.65C31 11.85 30.77 12.13 30.63 12.46C30.5 12.79 30.46 13.16 30.53 13.51C30.6 13.86 30.77 14.19 31.03 14.44C31.28 14.69 31.61 14.87 31.96 14.94C32.31 15.01 32.67 14.97 33.01 14.83C33.34 14.7 33.62 14.46 33.82 14.17C34.02 13.87 34.13 13.52 34.13 13.16L34.13 13.04L36.52 11.53L40.19 13.86L40.19 18.51L36.5 20.83C36.29 20.97 36.11 21.15 35.99 21.37C35.86 21.6 35.8 21.85 35.8 22.1L35.8 26.23C35.8 26.48 35.86 26.73 35.99 26.95C36.11 27.17 36.29 27.36 36.5 27.49L37.95 28.41L37.95 28.53C37.95 28.89 38.05 29.24 38.25 29.54C38.45 29.84 38.73 30.07 39.07 30.21C39.4 30.35 39.76 30.38 40.11 30.31C40.47 30.24 40.79 30.07 41.04 29.82C41.3 29.56 41.47 29.24 41.54 28.89C41.61 28.54 41.57 28.17 41.44 27.84C41.3 27.51 41.07 27.22 40.77 27.03C40.47 26.83 40.12 26.72 39.76 26.72C39.46 26.72 39.17 26.8 38.91 26.95L37.56 26.09L37.56 22.23L41.06 20.02L43.84 21.67L43.84 31.56L41.14 33.15Z" fill="#FFFFFF" fill-opacity="1.000000" fill-rule="nonzero"/>
</svg>
