<svg width="86.857178" height="33.000000" viewBox="0 0 86.8572 33" fill="none" xmlns="http://www.w3.org/2000/svg" xmlns:xlink="http://www.w3.org/1999/xlink">
	<desc>
			Created with Pixso.
	</desc>
	<defs/>
	<path id="Vector" d="M15.92 27L16.97 27C19.3 27 21.18 25.12 21.2 22.79C21.2 22.79 21.24 18.25 21.2 15.96C21.16 13.66 19.29 11.82 17 11.81L15.95 11.81C13.62 11.81 11.74 13.69 11.72 16.01L11.72 22.85C11.76 25.14 13.63 26.98 15.92 27ZM14.87 15.7C14.88 15.28 15.05 14.88 15.34 14.59C15.64 14.3 16.04 14.13 16.46 14.13C16.88 14.13 17.28 14.3 17.58 14.59C17.87 14.88 18.04 15.28 18.05 15.7L18.05 23.05C18.04 23.47 17.87 23.87 17.58 24.16C17.28 24.46 16.88 24.62 16.46 24.62C16.04 24.62 15.64 24.46 15.34 24.16C15.05 23.87 14.88 23.47 14.87 23.05L14.87 15.7ZM4.5 27L8.22 27L8.22 18.57L12.44 7L8.93 7L6.37 14.68L3.81 7L0 7L4.5 18.57L4.5 27ZM26.5 27C27.99 26.85 29.39 26.2 30.47 25.15L30.47 26.74L33.54 26.74L33.54 11.81L30.47 11.81L30.47 23.38C30.47 23.38 29.42 24.61 28.42 24.61C27.42 24.61 27.37 23.82 27.37 23.82L27.37 11.81L24.12 11.81L24.12 24.95C24.2 25.52 24.49 26.04 24.93 26.41C25.36 26.79 25.92 27 26.5 27Z" fill="#000000" fill-opacity="1.000000" fill-rule="nonzero"/>
	<path id="Vector" d="M78.37 14.84C78.37 14.84 78.37 13.2 77.01 13.2L76.9 13.2C75.54 13.2 75.54 14.84 75.54 14.84L75.54 16.97L78.37 16.97L78.37 14.84Z" fill="#61C3FF" fill-opacity="1.000000" fill-rule="nonzero"/>
	<path id="Vector" d="M78.94 0.49C78.9 0.49 78.86 0.49 78.81 0.49C78.81 0.49 69.88 0 60.92 0C51.97 0 43.03 0.46 43.03 0.46C39.13 0.33 35.86 3.39 35.73 7.28C35.73 7.36 35.73 7.44 35.73 7.52C35.28 10.47 35.03 13.46 35 16.45C35.03 19.47 35.27 22.49 35.73 25.47C35.72 29.37 38.89 32.53 42.79 32.53C42.87 32.53 42.95 32.53 43.03 32.53C43.03 32.53 51.83 33 60.92 33C70.02 33 78.81 32.53 78.81 32.53C82.72 32.66 85.99 29.6 86.12 25.71C86.12 25.63 86.12 25.55 86.12 25.47C86.57 22.49 86.82 19.47 86.85 16.45C86.82 13.43 86.58 10.41 86.12 7.42C86.06 3.53 82.84 0.42 78.94 0.49ZM50.34 8.36L46.78 8.36L46.78 26.65L43.27 26.65L43.27 8.36L39.71 8.36L39.71 5.35L50.41 5.35L50.34 8.36ZM59.58 26.65L56.66 26.65L56.66 25.26C55.65 26.19 54.37 26.76 53 26.88C52.47 26.9 51.96 26.71 51.55 26.37C51.15 26.03 50.89 25.55 50.81 25.03L50.81 10.67L53.85 10.67L53.85 24.09C53.85 24.09 53.85 24.79 54.82 24.79C55.78 24.79 56.77 23.64 56.77 23.64L56.77 10.67L59.7 10.67L59.58 26.65ZM71.01 23.17C71.01 23.17 71.01 26.88 68.33 26.88C67.71 26.89 67.11 26.75 66.56 26.48C66.01 26.21 65.53 25.82 65.17 25.33L65.17 26.65L62.01 26.65L62.01 5.35L65.17 5.35L65.17 12.26C65.97 11.35 67.11 10.79 68.33 10.69C70.28 10.69 71.01 12.31 71.01 14.4L71.01 23.17ZM77.85 24.42C79.31 24.42 79.31 22.79 79.31 22.79L79.31 21.15L82.47 21.15L82.47 23.69C82.05 25.72 80.16 27.12 78.08 26.93C75.93 27.12 73.95 25.76 73.37 23.69L73.37 14.62C73.43 12.36 75.32 10.58 77.59 10.65C77.75 10.65 77.92 10.66 78.08 10.69C80.18 10.39 82.13 11.84 82.43 13.94C82.46 14.16 82.48 14.39 82.47 14.62L82.44 14.62L82.44 19.32L76.39 19.32L76.39 22.79C76.39 22.79 76.39 24.42 77.85 24.42Z" fill="#61C3FF" fill-opacity="1.000000" fill-rule="nonzero"/>
	<path id="Vector" d="M66.69 13.2L66.58 13.2C66.31 13.21 66.04 13.28 65.8 13.39C65.56 13.51 65.34 13.67 65.17 13.88L65.17 22.97C65.34 23.16 65.56 23.31 65.81 23.42C66.05 23.52 66.31 23.57 66.58 23.57C68 23.57 68 22.05 68 22.05L68 14.71C68 14.71 67.86 13.2 66.69 13.2Z" fill="#61C3FF" fill-opacity="1.000000" fill-rule="nonzero"/>
</svg>
