<svg width="35.419922" height="46.919922" viewBox="0 0 35.4199 46.9199" fill="none" xmlns="http://www.w3.org/2000/svg" xmlns:xlink="http://www.w3.org/1999/xlink">
	<desc>
			Created with Pixso.
	</desc>
	<defs/>
	<path id="Vector" d="M17.7 0.45C8.19 0.45 0.45 8.19 0.45 17.7C0.45 29.66 16.03 45.37 16.69 46.04C16.96 46.3 17.32 46.46 17.7 46.46C18.09 46.46 18.45 46.3 18.72 46.04C19.38 45.37 34.96 29.66 34.96 17.7C34.96 8.19 27.22 0.45 17.7 0.45ZM16.38 41.48C12.07 36.66 3.33 25.87 3.33 17.7C3.33 9.78 9.78 3.33 17.7 3.33C25.63 3.33 32.08 9.78 32.08 17.7C32.08 25.86 23.34 36.66 19.03 41.48C18.32 42.28 17.09 42.28 16.38 41.48Z" fill="#FFFFFF" fill-opacity="1.000000" fill-rule="evenodd"/>
	<path id="Vector" d="M0.17 15.22Q0 16.45 0 17.7Q0 21.92 2.48 27.28Q4.47 31.55 7.95 36.37Q10.47 39.86 13.53 43.31Q14.52 44.43 15.47 45.43Q15.98 45.98 16.36 46.36Q16.51 46.5 16.68 46.61Q16.82 46.71 16.98 46.77Q17.15 46.84 17.33 46.88Q17.52 46.91 17.7 46.91Q17.89 46.91 18.08 46.88Q18.26 46.84 18.43 46.77Q18.61 46.7 18.76 46.6Q18.91 46.49 19.05 46.36Q19.43 45.98 19.94 45.43Q20.89 44.43 21.88 43.31Q24.94 39.86 27.46 36.37Q30.94 31.55 32.93 27.28Q35.41 21.92 35.41 17.7Q35.41 16.45 35.24 15.23Q35.17 14.68 35.05 14.14Q34.88 13.31 34.64 12.51Q34.37 11.65 34.02 10.82Q33.74 10.16 33.42 9.54Q32.95 8.65 32.39 7.81Q31.95 7.16 31.46 6.56Q30.88 5.84 30.22 5.19Q29.57 4.53 28.85 3.95Q28.25 3.46 27.6 3.02Q26.76 2.46 25.87 1.99Q25.25 1.67 24.59 1.39Q23.76 1.04 22.9 0.77Q22.1 0.53 21.27 0.36Q20.73 0.24 20.19 0.17Q18.96 0 17.7 0Q16.45 0 15.23 0.17Q14.68 0.24 14.14 0.36Q13.31 0.53 12.5 0.77Q11.65 1.04 10.82 1.39Q10.16 1.67 9.54 1.99Q8.65 2.46 7.81 3.02Q7.16 3.46 6.56 3.95Q5.84 4.53 5.19 5.19Q4.53 5.84 3.95 6.56Q3.46 7.16 3.02 7.81Q2.46 8.65 1.99 9.54Q1.67 10.16 1.39 10.82Q1.04 11.65 0.77 12.51Q0.53 13.31 0.36 14.14Q0.24 14.68 0.17 15.22ZM17.7 0.45C8.19 0.45 0.45 8.19 0.45 17.7C0.45 29.66 16.03 45.37 16.69 46.04C16.96 46.3 17.32 46.46 17.7 46.46C18.09 46.46 18.45 46.3 18.72 46.04C19.38 45.37 34.96 29.66 34.96 17.7C34.96 8.19 27.22 0.45 17.7 0.45ZM16.38 41.48C12.07 36.66 3.33 25.87 3.33 17.7C3.33 9.78 9.78 3.33 17.7 3.33C25.63 3.33 32.08 9.78 32.08 17.7C32.08 25.86 23.34 36.66 19.03 41.48C18.32 42.28 17.09 42.28 16.38 41.48ZM5.19 24.02Q3.79 20.49 3.79 17.7Q3.79 16.17 4.11 14.71Q4.38 13.48 4.89 12.29Q5.1 11.79 5.35 11.31Q5.72 10.6 6.17 9.93Q6.51 9.43 6.89 8.96Q7.35 8.39 7.87 7.87Q8.39 7.35 8.96 6.89Q9.43 6.51 9.93 6.17Q10.6 5.72 11.31 5.35Q11.79 5.1 12.29 4.89Q13.47 4.38 14.71 4.11Q16.17 3.79 17.7 3.79Q19.24 3.79 20.7 4.11Q21.94 4.38 23.12 4.89Q23.62 5.1 24.11 5.35Q24.81 5.72 25.48 6.17Q25.98 6.51 26.45 6.89Q27.02 7.35 27.54 7.87Q28.06 8.39 28.52 8.96Q28.9 9.43 29.24 9.93Q29.69 10.6 30.06 11.3Q30.31 11.79 30.53 12.29Q31.03 13.47 31.3 14.71Q31.62 16.17 31.62 17.7Q31.62 20.48 30.22 24.01Q29.01 27.07 26.78 30.6Q24.96 33.49 22.53 36.6Q20.71 38.92 18.69 41.18Q18.57 41.31 18.43 41.4Q18.34 41.46 18.23 41.51Q18.12 41.56 17.99 41.59Q17.85 41.62 17.7 41.62Q17.56 41.62 17.42 41.59Q17.29 41.56 17.18 41.51Q17.07 41.46 16.98 41.4Q16.84 41.31 16.72 41.18Q14.7 38.92 12.88 36.6Q10.45 33.5 8.63 30.6Q6.4 27.07 5.19 24.02Z" fill="#FFFFFF" fill-opacity="1.000000" fill-rule="evenodd"/>
</svg>
