	<svg width="10.000000" height="6.000000" viewBox="0 0 10 6" fill="none" xmlns="http://www.w3.org/2000/svg" xmlns:xlink="http://www.w3.org/1999/xlink">
	<desc>
			Created with Pixso.
	</desc>
	<defs/>
	<path id="Vector" d="M8.71 0.23C8.85 0.08 9.04 0 9.24 0C9.44 0 9.63 0.08 9.77 0.23C9.84 0.3 9.9 0.39 9.94 0.48C9.98 0.58 10 0.68 10 0.79C10 0.89 9.98 0.99 9.94 1.09C9.9 1.18 9.84 1.27 9.77 1.34L5.53 5.76C5.39 5.91 5.19 6 5 6C4.8 6 4.6 5.91 4.46 5.76L0.22 1.34C0.15 1.27 0.09 1.18 0.05 1.09C0.01 0.99 0 0.89 0 0.79C0 0.68 0.01 0.58 0.05 0.48C0.09 0.39 0.15 0.3 0.22 0.23C0.36 0.08 0.55 0 0.75 0C0.95 0 1.14 0.08 1.28 0.23L5 3.85L8.71 0.23Z" fill="#C2C2C2" fill-opacity="1.000000" fill-rule="nonzero"/>
</svg>
