<svg width="335.000000" height="40.000000" viewBox="0 0 335 40" fill="none" xmlns="http://www.w3.org/2000/svg" xmlns:xlink="http://www.w3.org/1999/xlink">
	<desc>
			Created with Pixso.
	</desc>
	<defs/>
	<path id="Vector" d="M2 23L2 38L17 38" stroke="#58AEE6" stroke-opacity="1.000000" stroke-width="4.000000" stroke-linejoin="round" stroke-linecap="round"/>
	<path id="Начать обучение" d="M162.83 26.25Q165.13 27.3 167.91 27.3Q170.72 27.3 173.05 26.23Q173.38 26.08 173.71 25.9Q175.2 25.09 176.33 23.92Q177.14 23.08 177.76 22.04Q178.11 21.45 178.38 20.82Q179.23 18.84 179.23 16.49Q179.23 14.18 178.4 12.21Q178.12 11.56 177.76 10.95Q177.13 9.9 176.31 9.05Q175.19 7.9 173.71 7.1Q173.36 6.91 173.01 6.75Q170.7 5.7 167.91 5.7Q165.16 5.7 162.87 6.73Q162.49 6.9 162.13 7.1Q160.68 7.87 159.59 8.99Q158.72 9.87 158.08 10.96Q157.64 11.69 157.34 12.47Q156.6 14.33 156.6 16.49Q156.6 18.68 157.35 20.57Q157.66 21.32 158.08 22.03Q158.72 23.11 159.57 23.98Q160.67 25.11 162.13 25.9Q162.47 26.09 162.83 26.25ZM37.59 27L37.59 6L33.69 6L33.69 14.67L22.84 14.67L22.84 6L18.93 6L18.93 27L22.84 27L22.84 17.99L33.69 17.99L33.69 27L37.59 27ZM44.82 27L46.89 22.13L57.4 22.13L59.49 27L63.57 27L54.09 6L50.25 6L40.81 27L44.82 27ZM81.67 27L81.67 6L77.79 6L77.79 15.72Q76.91 16.12 75.99 16.37Q74.38 16.82 72.64 16.82Q70.23 16.82 68.94 15.66Q68.74 15.47 68.57 15.26Q67.66 14.14 67.66 12.27L67.66 6L63.79 6L63.79 12.68Q63.79 15.63 65.22 17.45Q65.55 17.88 65.96 18.25Q68.14 20.18 72.15 20.18Q74.83 20.18 77.79 19.08L77.79 27L81.67 27ZM88.89 27L90.96 22.13L101.47 22.13L103.56 27L107.64 27L98.16 6L94.32 6L84.88 27L88.89 27ZM118.09 9.29L125.04 9.29L125.04 6L107.28 6L107.28 9.29L114.22 9.29L114.22 27L118.09 27L118.09 9.29ZM143.9 14.8Q141.88 13.11 138.09 13.11L132.28 13.11L132.28 6L128.44 6L128.44 27L137.46 27Q141.48 27 143.7 25.15Q144.26 24.68 144.68 24.12Q145.92 22.43 145.92 19.82Q145.92 17.14 144.61 15.52Q144.29 15.13 143.9 14.8ZM199.93 6L183.58 6L183.58 27L193.03 27Q197.02 27 199.17 25.3Q199.9 24.73 200.38 24Q201.33 22.55 201.33 20.48Q201.33 18.37 200.34 16.96Q199.93 16.39 199.37 15.94Q197.41 14.37 193.63 14.37L187.42 14.37L187.42 9.2L199.93 9.2L199.93 6ZM213.76 22.94L222.87 6L219.04 6L212.64 18.32L206.43 6L202.26 6L210.64 21.66L210.31 22.17Q209.44 23.54 208.24 23.95Q207.74 24.12 207.19 24.12Q206.37 24.12 205.14 23.73L204.18 26.78Q205.55 27.37 206.95 27.43Q207.11 27.44 207.27 27.44Q208.08 27.44 208.85 27.25Q209.91 26.98 210.88 26.32Q212.55 25.19 213.76 22.94ZM242.41 27L242.41 6L238.53 6L238.53 15.72Q237.65 16.12 236.74 16.37Q235.12 16.82 233.38 16.82Q230.97 16.82 229.68 15.66Q229.48 15.47 229.31 15.26Q228.4 14.14 228.4 12.27L228.4 6L224.53 6L224.53 12.68Q224.53 15.63 225.96 17.45Q226.29 17.88 226.7 18.25Q228.88 20.18 232.89 20.18Q235.57 20.18 238.53 19.08L238.53 27L242.41 27ZM264.03 27L264.03 23.73L252.19 23.73L252.19 17.93L262.32 17.93L262.32 14.73L252.19 14.73L252.19 9.26L263.61 9.26L263.61 6L248.28 6L248.28 27L264.03 27ZM287.04 27L287.04 6L283.14 6L283.14 14.67L272.29 14.67L272.29 6L268.38 6L268.38 27L272.29 27L272.29 17.99L283.14 17.99L283.14 27L287.04 27ZM296.8 6L292.96 6L292.96 27L296.58 27L307.86 12.11L307.86 27L311.7 27L311.7 6L308.08 6L296.8 20.91L296.8 6ZM333.33 27L333.33 23.73L321.49 23.73L321.49 17.93L331.62 17.93L331.62 14.73L321.49 14.73L321.49 9.26L332.91 9.26L332.91 6L317.58 6L317.58 27L333.33 27ZM171.12 23.22Q169.66 23.87 167.91 23.87Q166.22 23.87 164.79 23.26Q164.45 23.11 164.13 22.93Q163.35 22.49 162.73 21.89Q162.01 21.2 161.5 20.29Q161.29 19.92 161.12 19.53Q160.54 18.14 160.54 16.49Q160.54 14.86 161.12 13.47Q161.28 13.08 161.5 12.71Q162.02 11.78 162.76 11.07Q163.37 10.49 164.13 10.06Q164.45 9.88 164.79 9.74Q166.22 9.12 167.91 9.12Q169.66 9.12 171.12 9.77Q171.41 9.9 171.69 10.06Q172.47 10.5 173.1 11.1Q173.82 11.8 174.34 12.71Q174.55 13.08 174.71 13.47Q175.29 14.86 175.29 16.49Q175.29 18.14 174.71 19.53Q174.54 19.92 174.34 20.29Q173.83 21.18 173.13 21.86Q172.49 22.48 171.69 22.93Q171.41 23.09 171.12 23.22ZM52.14 9.89L56.1 19.08L48.21 19.08L52.14 9.89ZM96.21 9.89L100.17 19.08L92.28 19.08L96.21 9.89ZM140.8 22.94Q139.56 23.99 137.29 23.99L132.28 23.99L132.28 16.07L137.29 16.07Q140.17 16.07 141.3 17.48Q142.03 18.39 142.03 19.88Q142.03 21.48 141.25 22.48Q141.05 22.73 140.8 22.94ZM196.24 23.13Q195.06 23.99 192.81 23.99L187.42 23.99L187.42 17.36L192.81 17.36Q195.88 17.36 196.9 18.81Q197.41 19.53 197.41 20.61Q197.41 21.68 196.92 22.42Q196.65 22.82 196.24 23.13Z" fill="#2D2F30" fill-opacity="1.000000" fill-rule="evenodd"/>
</svg>
