<svg width="30.000000" height="30.000000" viewBox="0 0 30 30" fill="none" xmlns="http://www.w3.org/2000/svg" xmlns:xlink="http://www.w3.org/1999/xlink">
	<desc>
			Created with Pixso.
	</desc>
	<defs/>
	<path id="Vector" d="M15 0C10.13 0 6.17 3.95 6.17 8.82L6.17 21.17C6.17 26.04 10.13 30 15 30C19.86 30 23.82 26.04 23.82 21.17L23.82 8.82C23.82 3.95 19.86 0 15 0ZM22.02 21.17C22.02 25.04 18.87 28.2 15 28.2C11.12 28.2 7.97 25.04 7.97 21.17L7.97 8.82C7.97 4.95 11.12 1.79 15 1.79C18.87 1.79 22.02 4.95 22.02 8.82L22.02 21.17Z" fill="#FFFFFF" fill-opacity="1.000000" fill-rule="nonzero"/>
	<path id="Vector" d="M15 5.96C14.5 5.96 14.1 6.37 14.1 6.86L14.1 11.01C14.1 11.5 14.5 11.91 15 11.91C15.49 11.91 15.9 11.5 15.9 11.01L15.9 6.86C15.9 6.37 15.49 5.96 15 5.96Z" fill="#FFFFFF" fill-opacity="1.000000" fill-rule="nonzero"/>
</svg>
