<svg width="396.058716" height="396.190430" viewBox="0 0 396.059 396.19" fill="none" xmlns="http://www.w3.org/2000/svg" xmlns:xlink="http://www.w3.org/1999/xlink">
	<desc>
			Created with Pixso.
	</desc>
	<defs/>
	<path id="Vector" d="M198.05 234.17C196.92 234.17 195.82 233.76 194.96 233.01C191.73 230.18 188.61 227.53 185.86 225.18L185.85 225.17C177.79 218.3 170.83 212.37 165.99 206.53C160.58 200 158.05 193.8 158.05 187.04C158.05 180.46 160.31 174.4 164.4 169.96C168.54 165.47 174.22 163 180.4 163C185.02 163 189.25 164.46 192.97 167.33C194.85 168.79 196.55 170.57 198.05 172.64C199.55 170.57 201.26 168.79 203.14 167.33C206.86 164.46 211.09 163 215.71 163C221.88 163 227.57 165.47 231.71 169.96C235.8 174.4 238.05 180.46 238.05 187.04C238.05 193.8 235.53 200 230.12 206.53C225.28 212.37 218.32 218.3 210.26 225.17C207.51 227.52 204.39 230.18 201.15 233.01C200.29 233.76 199.19 234.17 198.05 234.17ZM180.4 167.68C175.55 167.68 171.09 169.62 167.85 173.14C164.55 176.71 162.74 181.64 162.74 187.04C162.74 192.73 164.85 197.82 169.6 203.54C174.18 209.07 181 214.88 188.89 221.61L188.9 221.62C191.66 223.97 194.79 226.64 198.05 229.48C201.32 226.63 204.46 223.96 207.22 221.6C215.11 214.88 221.93 209.07 226.51 203.54C231.25 197.82 233.37 192.73 233.37 187.04C233.37 181.64 231.56 176.71 228.26 173.14C225.02 169.62 220.56 167.68 215.71 167.68C212.15 167.68 208.89 168.81 206 171.04C203.43 173.03 201.64 175.54 200.59 177.3C200.06 178.2 199.11 178.74 198.05 178.74C197 178.74 196.05 178.2 195.51 177.3C194.46 175.54 192.68 173.03 190.11 171.04C187.22 168.81 183.96 167.68 180.4 167.68Z" fill="#2D2F30" fill-opacity="1.000000" fill-rule="nonzero"/>
	<path id="[Copy] Очень крутая автошкола / Очень крутая автошкола /Очень крутая автошкола" d="M174.87 377.3C174.31 378.37 173.98 379.64 173.88 381.11Q173.74 383.33 174.36 385.02C174.77 386.15 175.46 387.05 176.42 387.72C177.37 388.4 178.62 388.78 180.17 388.89Q182.5 389.04 184.07 388.23Q184.76 387.87 185.31 387.35Q186 386.71 186.47 385.83Q187.3 384.24 187.45 382.02Q187.59 379.81 186.98 378.11Q186.62 377.13 186 376.38Q185.53 375.82 184.91 375.38C183.95 374.71 182.69 374.32 181.15 374.22Q178.82 374.06 177.26 374.88C176.22 375.43 175.42 376.24 174.87 377.3ZM183.65 378.22Q184.43 379.56 184.28 381.8Q184.13 384.05 183.19 385.27Q182.94 385.59 182.63 385.82Q181.74 386.46 180.33 386.37C179.05 386.28 178.16 385.8 177.66 384.91C177.16 384.02 176.95 382.82 177.05 381.32Q177.2 379.09 178.12 377.85C178.74 377.03 179.69 376.66 180.98 376.75Q182.35 376.84 183.13 377.56Q183.44 377.84 183.65 378.22Z" fill="#2D2F30" fill-opacity="1.000000" fill-rule="evenodd"/>
	<path id="[Copy] Очень крутая автошкола / Очень крутая автошкола /Очень крутая автошкола" d="M156.03 370.27L153.08 369.67L150.24 383.66L153.2 384.26L154.47 377.99Q155.56 377.84 156.42 377.83C156.99 377.82 157.55 377.88 158.1 377.99Q159.22 378.22 159.59 378.82Q159.95 379.42 159.74 380.44L158.74 385.39L161.71 385.99L162.88 380.2Q163.15 378.87 162.69 377.87Q162.54 377.55 162.32 377.26C161.71 376.48 160.75 375.95 159.44 375.69Q159.22 375.64 159 375.61Q158.17 375.48 157.33 375.49Q156.26 375.49 154.94 375.67L156.03 370.27Z" fill="#2D2F30" fill-opacity="1.000000" fill-rule="evenodd"/>
	<path id="[Copy] Очень крутая автошкола / Очень крутая автошкола /Очень крутая автошкола" d="M140.37 365.55L132.58 362.96L131.78 365.33L136.72 366.97L135.56 370.47L130.97 368.94L130.18 371.29L134.77 372.82L133.78 375.8L128.85 374.16L128.06 376.51L135.86 379.11L140.37 365.55Z" fill="#2D2F30" fill-opacity="1.000000" fill-rule="evenodd"/>
	<path id="[Copy] Очень крутая автошкола / Очень крутая автошкола /Очень крутая автошкола" d="M114.17 354.27L111.44 352.96L105.25 365.83L107.97 367.14L110.4 362.09L115.5 364.55L113.07 369.59L115.79 370.9L121.99 358.03L119.27 356.72L116.6 362.28L111.5 359.82L114.17 354.27Z" fill="#2D2F30" fill-opacity="1.000000" fill-rule="evenodd"/>
	<path id="[Copy] Очень крутая автошкола / Очень крутая автошкола /Очень крутая автошкола" d="M93.51 358.38L101.31 346.42L97.82 344.15Q95.24 342.47 93.42 342.67C92.21 342.81 91.22 343.48 90.45 344.66Q89.92 345.46 89.79 346.32Q89.74 346.6 89.74 346.88C89.73 347.65 89.98 348.43 90.5 349.21Q91.27 350.38 92.97 351.49L93.97 352.14L90.98 356.74L93.51 358.38ZM94.51 345.48Q95.41 345.54 96.57 346.29L97.42 346.85L95.33 350.06L94.67 349.64Q93.43 348.83 92.91 348.06C92.56 347.55 92.59 346.97 93.01 346.33Q93.42 345.7 93.97 345.53Q94.23 345.46 94.51 345.48Z" fill="#2D2F30" fill-opacity="1.000000" fill-rule="evenodd"/>
	<path id="[Copy] Очень крутая автошкола / Очень крутая автошкола /Очень крутая автошкола" d="" fill="#2D2F30" fill-opacity="1.000000" fill-rule="evenodd"/>
	<path id="[Copy] Очень крутая автошкола / Очень крутая автошкола /Очень крутая автошкола" d="M67.04 317.54L64.6 315.12L63.26 324.25L54.74 325.45L57.02 327.72L65.53 326.41L60.66 331.33L62.8 333.45L72.86 323.32L70.72 321.19L65.62 326.33L67.04 317.54Z" fill="#2D2F30" fill-opacity="1.000000" fill-rule="evenodd"/>
	<path id="[Copy] Очень крутая автошкола / Очень крутая автошкола /Очень крутая автошкола" d="M42.75 308.23Q42.59 309.96 44.3 312.13L47.11 315.72L58.35 306.9L56.48 304.53L52.49 307.67L51.69 306.64Q50.4 305.01 49.14 304.46C48.29 304.1 47.48 304.01 46.69 304.18C45.9 304.36 45.19 304.7 44.54 305.21Q43.28 306.2 42.9 307.45Q42.78 307.83 42.75 308.23ZM47.2 311.82L46.35 310.73Q45.5 309.65 45.67 308.77Q45.8 308.11 46.5 307.56Q47.18 307.03 47.83 307.05Q48.05 307.06 48.27 307.13Q49.13 307.4 49.92 308.41L50.54 309.2L47.2 311.82Z" fill="#2D2F30" fill-opacity="1.000000" fill-rule="evenodd"/>
	<path id="[Copy] Очень крутая автошкола / Очень крутая автошкола /Очень крутая автошкола" d="M42.21 286.22C41.41 286.18 40.52 286.22 39.55 286.36L28.62 287.85L30.24 290.51L36.66 289.5C36.97 289.45 37.33 289.39 37.74 289.32C38.15 289.24 38.48 289.18 38.73 289.13L38.78 289.21C38.61 289.41 38.41 289.67 38.18 290C37.95 290.33 37.77 290.59 37.65 290.77L33.76 296.26L35.43 298.99L41.61 289.43C42.1 289.33 42.56 289.33 42.99 289.41C43.42 289.49 43.81 289.81 44.16 290.38Q44.42 290.81 44.66 291.34C44.81 291.7 44.91 292.05 44.97 292.39L47.19 291.04C47.08 290.69 46.95 290.33 46.78 289.95C46.61 289.57 46.43 289.23 46.25 288.94Q45.38 287.5 44.39 286.88C43.74 286.47 43.01 286.25 42.21 286.22Z" fill="#2D2F30" fill-opacity="1.000000" fill-rule="evenodd"/>
	<path id="[Copy] Очень крутая автошкола / Очень крутая автошкола /Очень крутая автошкола" d="M35.57 268.67L34.31 265.92L23.62 270.82L22 267.3L19.71 268.35L24.2 278.15L26.5 277.1L24.88 273.57L35.57 268.67Z" fill="#2D2F30" fill-opacity="1.000000" fill-rule="evenodd"/>
	<path id="[Copy] Очень крутая автошкола / Очень крутая автошкола /Очень крутая автошкола" d="M23.89 246.13L26.8 244.1L25.81 241L13.7 250.19L14.83 253.71L30.02 254.14L29.03 251.03L25.47 251.08L23.89 246.13ZM18.1 250.1C18.4 249.89 18.65 249.72 18.84 249.59L21.68 247.59L22.82 251.13L19.35 251.17C19.19 251.17 18.93 251.17 18.56 251.18C18.2 251.2 17.81 251.21 17.4 251.22C16.99 251.23 16.65 251.25 16.37 251.26C16.61 251.12 16.88 250.94 17.19 250.73C17.5 250.52 17.81 250.31 18.1 250.1Z" fill="#2D2F30" fill-opacity="1.000000" fill-rule="evenodd"/>
	<path id="[Copy] Очень крутая автошкола / Очень крутая автошкола /Очень крутая автошкола" d="M23.7 229.18L17.7 226.9L17.35 225.06L22.74 224.05L22.19 221.08L8.15 223.71L9 228.27Q9.47 230.78 10.77 231.98Q11.23 232.42 11.79 232.65Q12.76 233.06 14 232.82Q15.14 232.61 15.85 232.09Q16.55 231.57 16.91 230.92C17.15 230.48 17.31 230.06 17.4 229.65L24.31 232.48L23.7 229.18ZM12.16 229.39C11.8 229.02 11.56 228.45 11.41 227.69L11.14 226.22L14.93 225.51L15.2 226.9Q15.43 228.16 15.01 228.88Q14.87 229.12 14.67 229.3Q14.28 229.66 13.66 229.78C13.01 229.9 12.51 229.77 12.16 229.39Z" fill="#2D2F30" fill-opacity="1.000000" fill-rule="evenodd"/>
	<path id="[Copy] Очень крутая автошкола / Очень крутая автошкола /Очень крутая автошкола" d="" fill="#2D2F30" fill-opacity="1.000000" fill-rule="evenodd"/>
	<path id="[Copy] Очень крутая автошкола / Очень крутая автошкола /Очень крутая автошкола" d="M17.82 186.45L21.24 185.49L21.31 182.23L6.86 186.96L6.77 190.66L20.99 196.03L21.07 192.77L17.7 191.65L17.82 186.45ZM11.05 188.32C11.4 188.22 11.69 188.14 11.92 188.08L15.26 187.11L15.17 190.83L11.88 189.74C11.73 189.68 11.48 189.6 11.13 189.49C10.78 189.38 10.41 189.26 10.02 189.14C9.63 189.02 9.3 188.92 9.04 188.85C9.31 188.79 9.62 188.71 9.99 188.61C10.35 188.51 10.7 188.41 11.05 188.32Z" fill="#2D2F30" fill-opacity="1.000000" fill-rule="evenodd"/>
	<path id="[Copy] Очень крутая автошкола / Очень крутая автошкола /Очень крутая автошкола" d="M10.86 161.32C10.19 162.2 9.71 163.59 9.43 165.48L8.79 169.87L22.92 171.95L23.69 166.67Q24.05 164.25 23.17 162.71C22.58 161.68 21.64 161.07 20.36 160.88Q19.26 160.72 18.53 160.96C18.05 161.11 17.66 161.37 17.37 161.72C17.08 162.06 16.85 162.46 16.69 162.93L16.59 162.91C16.57 162.2 16.32 161.61 15.82 161.15C15.32 160.69 14.67 160.4 13.86 160.28Q12.5 160.08 11.6 160.64Q11.18 160.89 10.86 161.32ZM14.94 164.1C15.17 164.47 15.22 165.09 15.09 165.96L14.83 167.71L11.68 167.24L11.91 165.66Q12.1 164.37 12.55 163.83C12.85 163.47 13.26 163.33 13.81 163.41C14.33 163.49 14.71 163.72 14.94 164.1ZM20.88 168.6L17.2 168.06L17.48 166.2Q17.69 164.77 18.25 164.3C18.63 163.99 19.08 163.87 19.61 163.95C20.19 164.03 20.63 164.28 20.93 164.69C21.22 165.09 21.3 165.74 21.17 166.64L20.88 168.6Z" fill="#2D2F30" fill-opacity="1.000000" fill-rule="evenodd"/>
	<path id="[Copy] Очень крутая автошкола / Очень крутая автошкола /Очень крутая автошкола" d="M28.11 148.15L28.9 145.23L17.55 142.16L18.56 138.41L16.13 137.75L13.31 148.16L15.74 148.82L16.76 145.07L28.11 148.15Z" fill="#2D2F30" fill-opacity="1.000000" fill-rule="evenodd"/>
	<path id="[Copy] Очень крутая автошкола / Очень крутая автошкола /Очень крутая автошкола" d="M35.78 118.5C34.95 117.63 33.86 116.91 32.49 116.34Q30.44 115.49 28.63 115.54C27.43 115.56 26.36 115.92 25.41 116.62C24.47 117.31 23.7 118.37 23.11 119.8Q22.22 121.96 22.48 123.7Q22.6 124.47 22.91 125.16Q23.29 126.02 23.98 126.75Q25.22 128.05 27.27 128.9Q29.32 129.75 31.13 129.71Q32.17 129.68 33.08 129.33Q33.76 129.07 34.37 128.63C35.32 127.93 36.09 126.87 36.69 125.44Q37.58 123.28 37.31 121.54C37.12 120.38 36.61 119.37 35.78 118.5ZM32.09 126.52Q30.57 126.82 28.5 125.97Q26.41 125.1 25.56 123.82Q25.34 123.48 25.22 123.11Q24.9 122.07 25.44 120.76C25.93 119.58 26.68 118.89 27.68 118.7C28.68 118.51 29.88 118.7 31.27 119.28Q33.34 120.13 34.21 121.4C34.79 122.25 34.84 123.27 34.34 124.47Q33.82 125.73 32.88 126.24Q32.52 126.44 32.09 126.52Z" fill="#2D2F30" fill-opacity="1.000000" fill-rule="evenodd"/>
	<path id="[Copy] Очень крутая автошкола / Очень крутая автошкола /Очень крутая автошкола" d="M44.75 109.42L54.11 94.09L41.92 86.65L40.34 89.23L50.38 95.36L48.07 99.14L38.03 93.01L36.44 95.61L46.48 101.74L44.17 105.53L34.13 99.4L32.56 101.97L44.75 109.42Z" fill="#2D2F30" fill-opacity="1.000000" fill-rule="evenodd"/>
	<path id="[Copy] Очень крутая автошкола / Очень крутая автошкола /Очень крутая автошкола" d="M67.85 77.87L70.06 75.23L60.85 74.66L58.94 66.27L56.87 68.73L58.88 77.1L53.58 72.65L51.64 74.97L62.58 84.15L64.52 81.83L58.97 77.18L67.85 77.87Z" fill="#2D2F30" fill-opacity="1.000000" fill-rule="evenodd"/>
	<path id="[Copy] Очень крутая автошкола / Очень крутая автошкола /Очень крутая автошкола" d="M84.74 57.37C84.36 56.23 83.67 55.12 82.67 54.03Q81.17 52.39 79.51 51.67C78.41 51.19 77.29 51.06 76.14 51.29C74.99 51.52 73.84 52.15 72.7 53.2Q70.98 54.78 70.49 56.47Q70.26 57.22 70.25 57.97Q70.24 58.92 70.55 59.86Q71.13 61.56 72.63 63.2Q74.13 64.84 75.78 65.57Q76.73 65.99 77.71 66.05Q78.44 66.1 79.18 65.96C80.34 65.73 81.48 65.09 82.62 64.05Q84.35 62.47 84.83 60.78C85.16 59.65 85.13 58.51 84.74 57.37ZM78 63.09Q76.5 62.72 74.98 61.07Q73.46 59.4 73.23 57.88Q73.17 57.48 73.22 57.09Q73.37 56.01 74.41 55.06C75.36 54.19 76.32 53.88 77.31 54.13C78.3 54.38 79.3 55.07 80.32 56.18Q81.83 57.83 82.09 59.35C82.26 60.36 81.86 61.3 80.91 62.18Q79.9 63.1 78.84 63.17Q78.42 63.19 78 63.09Z" fill="#2D2F30" fill-opacity="1.000000" fill-rule="evenodd"/>
	<path id="[Copy] Очень крутая автошкола / Очень крутая автошкола /Очень крутая автошкола" d="M103.34 48.35L105.82 46.63L97.67 34.9L90.27 40.04Q91.24 41.87 92.07 43.53Q92.89 45.19 93.49 46.43C93.88 47.26 94.17 47.87 94.34 48.27Q95.04 49.83 95.13 50.51C95.2 50.96 95.07 51.3 94.75 51.52Q94.5 51.69 94.26 51.78C94.1 51.84 93.94 51.9 93.77 51.96L95.18 53.99Q95.85 53.8 96.49 53.35Q97.47 52.67 97.83 51.87C98.07 51.33 98.13 50.74 98.04 50.09C97.93 49.45 97.72 48.73 97.39 47.96C97.19 47.48 96.94 46.94 96.65 46.34C96.36 45.73 96.05 45.1 95.71 44.44Q95.2 43.43 94.69 42.48C94.35 41.83 94.04 41.24 93.76 40.69L96.63 38.7L103.34 48.35Z" fill="#2D2F30" fill-opacity="1.000000" fill-rule="evenodd"/>
	<path id="[Copy] Очень крутая автошкола / Очень крутая автошкола /Очень крутая автошкола" d="M121.6 34.49L124.09 37.03L126.98 35.53L115.89 25.13L112.61 26.83L114.73 41.88L117.63 40.38L116.99 36.89L121.6 34.49ZM116.72 29.46C116.97 29.72 117.18 29.93 117.34 30.1L119.79 32.57L116.49 34.28L115.87 30.87C115.85 30.71 115.8 30.45 115.73 30.09C115.65 29.73 115.58 29.35 115.5 28.95C115.42 28.55 115.35 28.22 115.28 27.95C115.46 28.15 115.69 28.39 115.94 28.67C116.2 28.94 116.46 29.2 116.72 29.46Z" fill="#2D2F30" fill-opacity="1.000000" fill-rule="evenodd"/>
	<path id="[Copy] Очень крутая автошкола / Очень крутая автошкола /Очень крутая автошкола" d="" fill="#2D2F30" fill-opacity="1.000000" fill-rule="evenodd"/>
	<path id="[Copy] Очень крутая автошкола / Очень крутая автошкола /Очень крутая автошкола" d="" fill="#2D2F30" fill-opacity="1.000000" fill-rule="evenodd"/>
	<path id="[Copy] Очень крутая автошкола / Очень крутая автошкола /Очень крутая автошкола" d="" fill="#2D2F30" fill-opacity="1.000000" fill-rule="evenodd"/>
	<path id="[Copy] Очень крутая автошкола / Очень крутая автошкола /Очень крутая автошкола" d="M188.7 4.77L186.1 5.05L183.32 22.87L185.91 22.59L188.7 4.77Z" fill="#2D2F30" fill-opacity="1.000000" fill-rule="evenodd"/>
	<path id="[Copy] Очень крутая автошкола / Очень крутая автошкола /Очень крутая автошкола" d="" fill="#2D2F30" fill-opacity="1.000000" fill-rule="evenodd"/>
	<path id="[Copy] Очень крутая автошкола / Очень крутая автошкола /Очень крутая автошкола" d="" fill="#2D2F30" fill-opacity="1.000000" fill-rule="evenodd"/>
	<path id="[Copy] Очень крутая автошкола / Очень крутая автошкола /Очень крутая автошкола" d="" fill="#2D2F30" fill-opacity="1.000000" fill-rule="evenodd"/>
	<path id="[Copy] Очень крутая автошкола / Очень крутая автошкола /Очень крутая автошкола" d="M257.91 27.67C258.68 26.75 259.27 25.57 259.67 24.15Q260.28 22.01 260.02 20.23C259.85 19.04 259.37 18.01 258.57 17.16C257.78 16.3 256.64 15.66 255.15 15.24Q252.9 14.6 251.2 15.07Q250.44 15.27 249.8 15.66Q248.99 16.14 248.35 16.91Q247.2 18.29 246.59 20.43Q245.99 22.56 246.24 24.36Q246.38 25.38 246.84 26.25Q247.18 26.9 247.69 27.45C248.49 28.31 249.63 28.96 251.12 29.38Q253.37 30.02 255.07 29.54C256.2 29.22 257.15 28.6 257.91 27.67ZM249.51 24.94Q249.04 23.46 249.65 21.31Q250.26 19.14 251.44 18.14Q251.75 17.88 252.1 17.72Q253.1 17.28 254.46 17.67C255.69 18.02 256.46 18.68 256.77 19.65C257.08 20.62 257.02 21.84 256.61 23.29Q256 25.44 254.84 26.45C254.07 27.13 253.06 27.29 251.81 26.94Q250.5 26.56 249.88 25.69Q249.64 25.36 249.51 24.94Z" fill="#2D2F30" fill-opacity="1.000000" fill-rule="evenodd"/>
	<path id="[Copy] Очень крутая автошкола / Очень крутая автошкола /Очень крутая автошкола" d="M274.1 38.15L276.87 39.35L282.53 26.23L279.76 25.04L277.22 30.91Q276.13 30.83 275.28 30.67C274.72 30.55 274.18 30.39 273.67 30.17Q272.62 29.71 272.39 29.05Q272.15 28.38 272.57 27.42L274.57 22.79L271.79 21.6L269.45 27.01Q268.91 28.27 269.16 29.34Q269.23 29.68 269.39 30C269.82 30.9 270.66 31.61 271.88 32.14Q272.09 32.23 272.3 32.31Q273.08 32.6 273.91 32.77Q274.96 32.99 276.29 33.08L274.1 38.15Z" fill="#2D2F30" fill-opacity="1.000000" fill-rule="evenodd"/>
	<path id="[Copy] Очень крутая автошкола / Очень крутая автошкола /Очень крутая автошкола" d="M288.57 46.03L295.66 50.18L296.93 48.02L292.44 45.39L294.3 42.22L298.47 44.66L299.73 42.52L295.55 40.08L297.14 37.37L301.63 40L302.88 37.86L295.79 33.7L288.57 46.03Z" fill="#2D2F30" fill-opacity="1.000000" fill-rule="evenodd"/>
	<path id="[Copy] Очень крутая автошкола / Очень крутая автошкола /Очень крутая автошкола" d="M312.2 62.69L314.59 64.54L323.33 53.24L320.93 51.39L317.51 55.82L313.03 52.36L316.46 47.93L314.07 46.08L305.34 57.38L307.72 59.23L311.49 54.35L315.97 57.81L312.2 62.69Z" fill="#2D2F30" fill-opacity="1.000000" fill-rule="evenodd"/>
	<path id="[Copy] Очень крутая автошкола / Очень крутая автошкола /Очень крутая автошкола" d="M332.52 62.14L322.45 72.28L325.41 75.21Q327.59 77.38 329.41 77.54C330.63 77.65 331.74 77.21 332.73 76.2Q333.41 75.52 333.71 74.71Q333.81 74.45 333.87 74.18C334.04 73.42 333.95 72.61 333.6 71.74Q333.08 70.43 331.65 69.01L330.79 68.16L334.66 64.27L332.52 62.14ZM328.91 74.58Q328.05 74.34 327.07 73.36L326.34 72.65L329.05 69.92L329.6 70.47Q330.65 71.51 331.01 72.38C331.24 72.95 331.1 73.51 330.56 74.05Q330.03 74.58 329.46 74.63Q329.19 74.66 328.91 74.58Z" fill="#2D2F30" fill-opacity="1.000000" fill-rule="evenodd"/>
	<path id="[Copy] Очень крутая автошкола / Очень крутая автошкола /Очень крутая автошкола" d="" fill="#2D2F30" fill-opacity="1.000000" fill-rule="evenodd"/>
	<path id="[Copy] Очень крутая автошкола / Очень крутая автошкола /Очень крутая автошкола" d="M350.12 107.23L352.02 110.1L355.18 101.43L363.77 101.98L361.99 99.3L353.39 98.85L359.16 95.03L357.5 92.51L345.59 100.4L347.26 102.92L353.29 98.92L350.12 107.23Z" fill="#2D2F30" fill-opacity="1.000000" fill-rule="evenodd"/>
	<path id="[Copy] Очень крутая автошкола / Очень крутая автошкола /Очень крутая автошкола" d="M372.18 121.45Q372.69 119.78 371.47 117.31L369.44 113.22L356.64 119.56L357.98 122.26L362.53 120.01L363.11 121.17Q364.03 123.04 365.16 123.83C365.91 124.36 366.69 124.61 367.5 124.6C368.3 124.59 369.07 124.4 369.82 124.04Q371.25 123.33 371.88 122.17Q372.07 121.83 372.18 121.45ZM368.56 117.03L369.17 118.26Q369.78 119.49 369.43 120.32Q369.17 120.94 368.37 121.34Q367.6 121.71 366.97 121.56Q366.75 121.51 366.55 121.4Q365.77 120.95 365.2 119.8L364.75 118.91L368.56 117.03Z" fill="#2D2F30" fill-opacity="1.000000" fill-rule="evenodd"/>
	<path id="[Copy] Очень крутая автошкола / Очень крутая автошкола /Очень крутая автошкола" d="M368.24 143.02C369.02 143.22 369.9 143.36 370.88 143.43L381.88 144.23L380.84 141.29L374.35 140.96C374.04 140.94 373.67 140.92 373.26 140.91C372.84 140.89 372.5 140.89 372.25 140.89L372.22 140.8C372.43 140.64 372.68 140.42 372.97 140.15C373.27 139.88 373.49 139.66 373.65 139.51L378.59 134.94L377.52 131.92L369.5 140C369 139.99 368.55 139.9 368.14 139.74C367.73 139.57 367.42 139.17 367.2 138.54Q367.03 138.07 366.91 137.5C366.83 137.12 366.8 136.75 366.82 136.41L364.37 137.27C364.4 137.63 364.46 138.02 364.55 138.42C364.64 138.83 364.74 139.2 364.85 139.52Q365.41 141.11 366.25 141.92C366.81 142.45 367.47 142.82 368.24 143.02Z" fill="#2D2F30" fill-opacity="1.000000" fill-rule="evenodd"/>
	<path id="[Copy] Очень крутая автошкола / Очень крутая автошкола /Очень крутая автошкола" d="M371.23 161.55L371.9 164.5L383.37 161.9L384.23 165.68L386.69 165.13L384.3 154.61L381.84 155.17L382.7 158.95L371.23 161.55Z" fill="#2D2F30" fill-opacity="1.000000" fill-rule="evenodd"/>
	<path id="[Copy] Очень крутая автошкола / Очень крутая автошкола /Очень крутая автошкола" d="M378.1 185.8L374.83 187.19L375.17 190.43L388.91 183.91L388.52 180.23L373.73 176.71L374.07 179.95L377.56 180.63L378.1 185.8ZM384.57 183.1C384.24 183.24 383.97 183.35 383.75 183.44L380.56 184.82L380.17 181.12L383.57 181.79C383.73 181.83 383.99 181.88 384.35 181.94C384.71 182.01 385.09 182.07 385.49 182.15C385.89 182.22 386.23 182.27 386.5 182.31C386.25 182.41 385.94 182.52 385.59 182.67C385.25 182.81 384.91 182.95 384.57 183.1Z" fill="#2D2F30" fill-opacity="1.000000" fill-rule="evenodd"/>
	<path id="[Copy] Очень крутая автошкола / Очень крутая автошкола /Очень крутая автошкола" d="M374.92 203.37L380.32 206.84L380.28 208.72L374.8 208.59L374.73 211.61L389.01 211.94L389.12 207.3Q389.18 204.74 388.15 203.3Q387.79 202.77 387.29 202.43Q386.42 201.83 385.16 201.81Q384 201.78 383.2 202.14Q382.4 202.5 381.92 203.07C381.6 203.45 381.35 203.83 381.18 204.21L375 200.01L374.92 203.37ZM386.26 205.54C386.53 205.98 386.65 206.59 386.63 207.36L386.6 208.86L382.74 208.77L382.77 207.35Q382.8 206.07 383.36 205.46Q383.55 205.25 383.78 205.12Q384.24 204.85 384.87 204.86C385.52 204.88 385.99 205.1 386.26 205.54Z" fill="#2D2F30" fill-opacity="1.000000" fill-rule="evenodd"/>
	<path id="[Copy] Очень крутая автошкола / Очень крутая автошкола /Очень крутая автошкола" d="" fill="#2D2F30" fill-opacity="1.000000" fill-rule="evenodd"/>
	<path id="[Copy] Очень крутая автошкола / Очень крутая автошкола /Очень крутая автошкола" d="M372.31 245.21L368.77 245.46L368.04 248.63L383.15 246.93L383.98 243.32L371.14 235.19L370.4 238.37L373.48 240.14L372.31 245.21ZM379.32 244.75C378.95 244.78 378.66 244.8 378.42 244.81L374.96 245.08L375.79 241.45L378.79 243.19C378.93 243.28 379.15 243.41 379.47 243.58C379.8 243.76 380.14 243.95 380.49 244.15C380.85 244.35 381.15 244.51 381.4 244.63C381.12 244.64 380.8 244.65 380.42 244.67C380.05 244.7 379.68 244.72 379.32 244.75Z" fill="#2D2F30" fill-opacity="1.000000" fill-rule="evenodd"/>
	<path id="[Copy] Очень крутая автошкола / Очень крутая автошкола /Очень крутая автошкола" d="M373.66 272.4C374.5 271.67 375.25 270.41 375.92 268.62L377.46 264.46L364.07 259.5L362.21 264.5Q361.37 266.79 361.91 268.48C362.27 269.61 363.06 270.4 364.27 270.85Q365.32 271.24 366.08 271.16C366.58 271.1 367.02 270.94 367.37 270.66C367.73 270.38 368.04 270.03 368.3 269.61L368.39 269.65C368.25 270.35 368.38 270.98 368.78 271.53C369.17 272.08 369.75 272.5 370.51 272.78Q371.8 273.26 372.8 272.91Q373.26 272.74 373.66 272.4ZM370.25 268.83C370.1 268.42 370.18 267.8 370.49 266.97L371.1 265.32L374.09 266.43L373.53 267.93Q373.08 269.15 372.53 269.59C372.16 269.88 371.73 269.93 371.21 269.74C370.71 269.55 370.39 269.25 370.25 268.83ZM365.37 263.19L368.85 264.49L368.2 266.25Q367.7 267.6 367.05 267.94C366.61 268.17 366.15 268.2 365.65 268.01C365.1 267.81 364.72 267.47 364.51 267.01C364.31 266.55 364.36 265.9 364.68 265.05L365.37 263.19Z" fill="#2D2F30" fill-opacity="1.000000" fill-rule="evenodd"/>
	<path id="[Copy] Очень крутая автошкола / Очень крутая автошкола /Очень крутая автошкола" d="M354.13 281.64L352.75 284.32L363.21 289.7L361.43 293.15L363.68 294.3L368.61 284.71L366.36 283.56L364.59 287.01L354.13 281.64Z" fill="#2D2F30" fill-opacity="1.000000" fill-rule="evenodd"/>
	<path id="[Copy] Очень крутая автошкола / Очень крутая автошкола /Очень крутая автошкола" d="M340.9 308.59C341.53 309.62 342.46 310.54 343.68 311.38Q345.51 312.63 347.29 312.96C348.47 313.18 349.59 313.05 350.66 312.56C351.72 312.08 352.69 311.2 353.57 309.92Q354.89 307.99 354.98 306.23Q355.03 305.45 354.87 304.72Q354.67 303.79 354.15 302.94Q353.2 301.42 351.37 300.16Q349.54 298.91 347.76 298.58Q346.74 298.39 345.77 298.54Q345.05 298.66 344.36 298.97C343.29 299.45 342.31 300.34 341.44 301.61Q340.12 303.54 340.03 305.3C339.97 306.47 340.26 307.57 340.9 308.59ZM346.16 301.49Q347.71 301.51 349.56 302.78Q351.42 304.05 351.99 305.48Q352.14 305.86 352.18 306.25Q352.28 307.33 351.48 308.5C350.76 309.56 349.89 310.08 348.87 310.06C347.85 310.04 346.71 309.6 345.47 308.76Q343.62 307.49 343.03 306.07C342.64 305.12 342.81 304.11 343.54 303.04Q344.31 301.92 345.33 301.61Q345.72 301.49 346.16 301.49Z" fill="#2D2F30" fill-opacity="1.000000" fill-rule="evenodd"/>
	<path id="[Copy] Очень крутая автошкола / Очень крутая автошкола /Очень крутая автошкола" d="M330.39 315.71L318.11 328.82L328.53 338.58L330.6 336.37L322.01 328.33L325.05 325.09L333.63 333.13L335.71 330.91L327.13 322.87L330.16 319.63L338.75 327.68L340.81 325.47L330.39 315.71Z" fill="#2D2F30" fill-opacity="1.000000" fill-rule="evenodd"/>
	<path id="[Copy] Очень крутая автошкола / Очень крутая автошкола /Очень крутая автошкола" d="M301.11 342.25L298.41 344.39L307.32 346.81L307.49 355.42L310.02 353.42L309.74 344.81L314.04 350.24L316.4 348.37L307.54 337.17L305.18 339.04L309.67 344.72L301.11 342.25Z" fill="#2D2F30" fill-opacity="1.000000" fill-rule="evenodd"/>
	<path id="[Copy] Очень крутая автошкола / Очень крутая автошкола /Очень крутая автошкола" d="M280.08 359.08C280.22 360.27 280.66 361.51 281.41 362.78Q282.54 364.69 284.01 365.74C284.99 366.44 286.07 366.8 287.24 366.81C288.41 366.82 289.66 366.44 290.99 365.65Q293 364.46 293.84 362.91Q294.21 362.22 294.38 361.49Q294.58 360.57 294.47 359.57Q294.26 357.79 293.13 355.88Q292.01 353.97 290.53 352.91Q289.69 352.31 288.75 352.04Q288.05 351.84 287.29 351.83C286.11 351.81 284.86 352.2 283.53 352.98Q281.51 354.17 280.69 355.73C280.14 356.77 279.94 357.88 280.08 359.08ZM287.85 354.88Q289.25 355.55 290.39 357.48Q291.54 359.43 291.45 360.96Q291.42 361.37 291.29 361.73Q290.92 362.76 289.71 363.48C288.6 364.13 287.59 364.23 286.68 363.78C285.76 363.33 284.92 362.46 284.15 361.16Q283.01 359.24 283.08 357.7C283.12 356.67 283.7 355.83 284.82 355.17Q286 354.47 287.05 354.63Q287.46 354.69 287.85 354.88Z" fill="#2D2F30" fill-opacity="1.000000" fill-rule="evenodd"/>
	<path id="[Copy] Очень крутая автошкола / Очень крутая автошкола /Очень крутая автошкола" d="M260.49 363.93L257.71 365.11L263.27 378.27L271.57 374.75Q271 372.76 270.53 370.97Q270.07 369.18 269.74 367.84C269.52 366.95 269.37 366.29 269.27 365.86Q268.91 364.19 268.96 363.51C268.99 363.06 269.19 362.75 269.54 362.6Q269.82 362.48 270.07 362.44C270.24 362.42 270.42 362.39 270.6 362.37L269.63 360.09Q268.94 360.14 268.22 360.45Q267.12 360.91 266.6 361.63C266.26 362.11 266.07 362.67 266.04 363.32C266 363.98 266.07 364.72 266.23 365.55C266.33 366.06 266.46 366.63 266.62 367.28C266.78 367.93 266.95 368.62 267.15 369.34Q267.44 370.42 267.75 371.46C267.95 372.16 268.13 372.81 268.29 373.4L265.07 374.76L260.49 363.93Z" fill="#2D2F30" fill-opacity="1.000000" fill-rule="evenodd"/>
	<path id="[Copy] Очень крутая автошкола / Очень крутая автошкола /Очень крутая автошкола" d="M239.83 373.8L237.91 370.81L234.78 371.68L243.5 384.14L247.07 383.14L248.07 367.97L244.92 368.85L244.84 372.4L239.83 373.8ZM243.58 379.73C243.38 379.43 243.22 379.17 243.1 378.97L241.21 376.06L244.79 375.06L244.7 378.52C244.69 378.68 244.68 378.95 244.68 379.31C244.68 379.68 244.68 380.07 244.67 380.47C244.67 380.88 244.67 381.23 244.68 381.5C244.54 381.26 244.37 380.98 244.18 380.66C243.98 380.35 243.78 380.04 243.58 379.73Z" fill="#2D2F30" fill-opacity="1.000000" fill-rule="evenodd"/>
	<path id="[Copy] Очень крутая автошкола / Очень крутая автошкола /Очень крутая автошкола" d="" fill="#2D2F30" fill-opacity="1.000000" fill-rule="evenodd"/>
	<path id="[Copy] Очень крутая автошкола / Очень крутая автошкола /Очень крутая автошкола" d="" fill="#2D2F30" fill-opacity="1.000000" fill-rule="evenodd"/>
	<path id="[Copy] Очень крутая автошкола / Очень крутая автошкола /Очень крутая автошкола" d="" fill="#2D2F30" fill-opacity="1.000000" fill-rule="evenodd"/>
</svg>
