<svg width="143.000000" height="41.000000" viewBox="0 0 143 41" fill="none" xmlns="http://www.w3.org/2000/svg" xmlns:xlink="http://www.w3.org/1999/xlink">
	<desc>
			Created with Pixso.
	</desc>
	<defs/>
	<rect id="Rectangle 1" y="18.500000" width="140.000000" height="4.000000" fill="#58AEE6" fill-opacity="1.000000"/>
	<path id="18 500 ₽" d="M36.26 25.74C36.25 29.5 32.47 32.32 27.22 32.32C21.97 32.32 18.19 29.5 18.2 25.74C18.19 22.82 20.4 20.45 23.25 19.99L23.25 19.82C20.77 19.32 19.05 17.21 19.06 14.67C19.05 11.07 22.51 8.4 27.22 8.4C31.93 8.4 35.38 11.07 35.4 14.67C35.38 17.22 33.65 19.32 31.21 19.82L31.21 19.99C34.01 20.45 36.25 22.82 36.26 25.74ZM89.25 20.38C89.25 28.05 85.71 32.5 79.86 32.5C74 32.5 70.44 28.03 70.46 20.38C70.47 12.75 74.02 8.4 79.86 8.4C85.69 8.4 89.27 12.77 89.25 20.38ZM112.28 20.38C112.27 28.05 108.74 32.5 102.88 32.5C97.02 32.5 93.46 28.03 93.49 20.38C93.5 12.75 97.04 8.4 102.88 8.4C108.71 8.4 112.29 12.77 112.28 20.38ZM7.38 8.72L12 8.72L12 32L7.09 32L7.09 13.39L6.95 13.39L1.62 16.74L1.62 12.37L7.38 8.72ZM66.3 24.24C66.32 28.94 62.79 32.32 57.61 32.32C52.79 32.32 49.28 29.44 49.19 25.42L53.96 25.42C54.07 27.22 55.65 28.45 57.61 28.45C59.92 28.45 61.57 26.78 61.57 24.36C61.57 21.92 59.88 20.22 57.54 20.21C56.17 20.21 54.78 20.82 54.07 21.78L49.69 21L50.79 8.72L65.02 8.72L65.02 12.75L54.85 12.75L54.25 18.57L54.38 18.57C55.2 17.42 56.96 16.57 59 16.57C63.2 16.57 66.32 19.78 66.3 24.24ZM126.2 28.57L126.2 32L131.02 32L131.02 28.57L135.95 28.57L135.95 25.46L131.02 25.46L131.02 22.97L133.1 22.97C135.32 22.97 137.08 22.64 138.37 21.98Q140.16 21.06 141 19.6Q141.07 19.48 141.13 19.35C141.69 18.27 141.97 17.1 141.97 15.87C141.97 13.78 141.29 12.13 139.94 10.94Q137.91 9.14 133.49 9.14L126.2 9.14L126.2 19L123.63 19L123.63 22.97L126.2 22.97L126.2 25.46L123.63 25.46L123.63 28.57L126.2 28.57ZM23.86 15.17C23.86 17.02 25.26 18.3 27.22 18.3C29.18 18.3 30.58 17.02 30.58 15.17C30.58 13.37 29.2 12.11 27.22 12.11C25.23 12.11 23.86 13.36 23.86 15.17ZM75.47 20.38C75.46 25.75 77.19 28.42 79.86 28.42C82.52 28.42 84.25 25.75 84.23 20.38C84.23 15.1 82.5 12.44 79.86 12.44C77.2 12.44 75.48 15.1 75.47 20.38ZM98.5 20.38C98.49 25.75 100.21 28.42 102.88 28.42C105.54 28.42 107.27 25.75 107.25 20.38C107.25 15.1 105.53 12.44 102.88 12.44C100.22 12.44 98.5 15.1 98.5 20.38ZM135.87 18.3C135.07 18.77 133.99 19 132.63 19L131.02 19L131.02 13.11L133.24 13.11C135.79 13.11 137.07 14.08 137.07 16.03C137.07 17.07 136.67 17.83 135.87 18.3ZM23.31 25.35C23.31 27.32 24.88 28.7 27.22 28.7C29.55 28.7 31.13 27.32 31.13 25.35C31.13 23.34 29.47 21.88 27.22 21.88C24.96 21.88 23.31 23.34 23.31 25.35Z" fill="#2D2F30" fill-opacity="1.000000" fill-rule="evenodd"/>
</svg>
