<svg width="24.000000" height="24.000000" viewBox="0 0 24 24" fill="none" xmlns="http://www.w3.org/2000/svg" xmlns:xlink="http://www.w3.org/1999/xlink">
	<desc>
			Created with Pixso.
	</desc>
	<defs/>
	<path id="Vector" d="M18.64 6.21C18.53 6.11 18.39 6.04 18.25 6.01C18.1 5.98 17.95 5.99 17.81 6.04L5.65 10.04C5.32 10.15 5.1 10.45 5.08 10.8C5.07 11.15 5.26 11.46 5.58 11.6L8.59 12.92L9.5 17.12C9.53 17.3 9.62 17.46 9.81 17.5C10 17.55 10.13 17.45 10.28 17.34L12.51 15.67L15.12 17.81C15.27 17.93 15.45 18 15.64 18C15.73 18 15.83 17.98 15.91 17.95C16.19 17.86 16.39 17.63 16.46 17.35L18.89 7.02C18.92 6.88 18.92 6.73 18.87 6.58C18.83 6.44 18.75 6.31 18.64 6.21ZM10.47 13.67C10.47 13.67 10.47 13.68 10.47 13.68L9.96 15.44L9.4 12.84L13.26 10.69L10.56 13.51C10.52 13.56 10.49 13.61 10.47 13.67ZM10.63 16.06L10.86 15.26L11.08 14.5L11.86 15.14L10.63 16.06ZM18.1 6.83L15.67 17.16C15.67 17.17 15.66 17.18 15.65 17.18C15.64 17.19 15.63 17.18 15.63 17.18L12.78 14.84L12.78 14.84L11.45 13.76L15.7 9.32C15.77 9.25 15.81 9.15 15.81 9.06C15.82 8.96 15.79 8.86 15.73 8.79C15.67 8.71 15.59 8.66 15.49 8.64C15.4 8.62 15.3 8.63 15.21 8.68L8.92 12.18L5.91 10.86C5.9 10.85 5.89 10.85 5.89 10.84C5.89 10.82 5.9 10.82 5.91 10.82L18.07 6.81C18.07 6.81 18.08 6.8 18.09 6.81C18.1 6.82 18.1 6.83 18.1 6.83Z" fill="#FFFFFF" fill-opacity="1.000000" fill-rule="nonzero"/>
	<rect id="Frame 18" rx="11.250000" width="22.500000" height="22.500000" transform="translate(0.750000 0.750000)" stroke="#FFFFFF" stroke-opacity="1.000000" stroke-width="1.500000"/>
</svg>
