<svg width="40.000000" height="40.000000" viewBox="0 0 40 40" fill="none" xmlns="http://www.w3.org/2000/svg" xmlns:xlink="http://www.w3.org/1999/xlink">
	<desc>
			Created with Pixso.
	</desc>
	<defs/>
	<path id="Vector" d="M31.07 10.36C30.88 10.19 30.66 10.08 30.42 10.03C30.18 9.97 29.93 9.99 29.69 10.06L9.43 16.74C8.88 16.93 8.5 17.42 8.47 18C8.45 18.58 8.77 19.11 9.31 19.34L14.32 21.53L15.83 28.55C15.89 28.84 16.04 29.1 16.35 29.18C16.67 29.26 16.89 29.08 17.13 28.91L20.85 26.12L25.2 29.68C25.45 29.89 25.76 30 26.07 30C26.23 29.99 26.38 29.97 26.52 29.92C26.98 29.77 27.32 29.39 27.43 28.92L31.48 11.7C31.54 11.46 31.53 11.21 31.46 10.98C31.38 10.74 31.25 10.53 31.07 10.36ZM17.45 22.79C17.45 22.8 17.45 22.8 17.45 22.81L16.61 25.74L15.67 21.4L22.11 17.83L17.61 22.53C17.54 22.6 17.48 22.69 17.45 22.79ZM17.72 26.77L18.1 25.44L18.46 24.17L19.77 25.24L17.72 26.77ZM30.16 11.39L26.11 28.61C26.11 28.62 26.11 28.63 26.09 28.64C26.07 28.65 26.06 28.64 26.05 28.63L21.3 24.74L21.3 24.74L19.09 22.94L26.17 15.53C26.29 15.41 26.35 15.26 26.36 15.1C26.37 14.94 26.32 14.78 26.22 14.65C26.12 14.52 25.98 14.43 25.82 14.4C25.66 14.37 25.5 14.39 25.36 14.47L14.87 20.3L9.85 18.1C9.83 18.09 9.82 18.09 9.83 18.06C9.83 18.04 9.84 18.04 9.85 18.03L30.12 11.35C30.12 11.35 30.14 11.34 30.15 11.36C30.17 11.37 30.17 11.38 30.16 11.39Z" fill="#2D2F30" fill-opacity="1.000000" fill-rule="nonzero"/>
	<rect id="Frame 18" rx="18.750000" width="37.500000" height="37.500000" transform="translate(1.250000 1.250000)" stroke="#2D2F30" stroke-opacity="1.000000" stroke-width="2.500000"/>
</svg>
