<svg width="30.000000" height="30.000000" viewBox="0 0 30 30" fill="none" xmlns="http://www.w3.org/2000/svg" xmlns:xlink="http://www.w3.org/1999/xlink">
	<desc>
			Created with Pixso.
	</desc>
	<defs/>
	<path id="Vector" d="M19.91 18.51C20.42 18.24 20.94 18.17 21.25 18.37C21.73 18.66 25.76 21.34 26.1 21.58C26.44 21.81 26.6 22.49 26.14 23.16C25.67 23.82 23.53 26.45 22.62 26.42C21.71 26.39 17.93 26.31 10.81 19.18C3.68 12.05 3.6 8.27 3.57 7.37C3.54 6.46 6.17 4.31 6.83 3.85C7.5 3.39 8.18 3.56 8.41 3.89C8.68 4.26 11.33 8.27 11.62 8.73C11.82 9.05 11.75 9.57 11.48 10.07C11.22 10.58 10.11 12.51 10.11 12.51C10.11 12.51 10.89 13.83 13.52 16.47C16.15 19.1 17.48 19.88 17.48 19.88C17.48 19.88 19.41 18.77 19.91 18.51Z" stroke="#58AEE6" stroke-opacity="1.000000" stroke-width="1.428571"/>
</svg>
