<svg width="180.000000" height="180.000000" viewBox="0 0 180 180" fill="none" xmlns="http://www.w3.org/2000/svg" xmlns:xlink="http://www.w3.org/1999/xlink">
	<desc>
			Created with Pixso.
	</desc>
	<defs/>
	<path id="Vector" d="M115.84 76.55L115.16 76.55C115.16 80.13 114.4 83.67 112.92 86.93C111.44 90.2 109.27 93.1 106.57 95.46C104.24 97.5 102.29 99.94 100.82 102.67C99.35 105.4 98.41 108.39 98.06 111.48C97.89 113.42 97 115.23 95.57 116.55C94.13 117.86 92.25 118.59 90.3 118.59L89.67 118.59C87.73 118.59 85.85 117.87 84.42 116.55C83.42 115.66 82.69 114.51 82.28 113.24C82.1 112.7 81.99 112.14 81.93 111.57L81.93 111.48C81.8 110.25 81.56 109.03 81.24 107.83C81.06 107.22 80.88 106.61 80.66 105.99C79.18 101.94 76.7 98.32 73.44 95.49C70.74 93.13 68.57 90.21 67.08 86.94C65.6 83.67 64.83 80.12 64.83 76.53C64.83 76.25 64.85 75.96 64.85 75.68C65.29 62.36 76.31 51.56 89.63 51.37L90 51.37C96.67 51.37 103.08 54.02 107.8 58.74C112.52 63.47 115.17 69.87 115.17 76.55L116.55 76.55C116.55 73.06 115.86 69.6 114.53 66.38C113.19 63.16 111.24 60.23 108.77 57.76C106.3 55.3 103.37 53.34 100.15 52.01C96.92 50.68 93.47 49.99 89.98 50L89.61 50C75.53 50.21 63.94 61.55 63.46 75.62C63.44 75.93 63.44 76.24 63.44 76.53C63.44 80.32 64.25 84.07 65.81 87.52C67.38 90.96 69.67 94.04 72.52 96.53C75.6 99.2 77.95 102.62 79.34 106.46C79.56 107.03 79.73 107.62 79.89 108.2C80.2 109.32 80.42 110.47 80.56 111.63L80.56 111.71L81.25 111.63L80.56 111.69C80.62 112.37 80.76 113.04 80.97 113.68C81.46 115.18 82.32 116.52 83.48 117.59C85.17 119.14 87.38 120 89.67 120L90.3 120C92.59 119.99 94.8 119.13 96.49 117.59C98.18 116.04 99.23 113.91 99.43 111.63L98.74 111.56L99.42 111.64C99.76 108.73 100.64 105.91 102.04 103.34C103.43 100.75 105.27 98.44 107.48 96.51C110.33 94.03 112.61 90.96 114.17 87.52C115.73 84.08 116.54 80.34 116.53 76.56L115.84 76.55Z" fill="#2D2F30" fill-opacity="1.000000" fill-rule="evenodd"/>
	<path id="Vector" d="M94.13 112.51C94.09 112.53 92.42 113.4 90.02 113.4C88.56 113.4 87.12 113.09 85.79 112.48C85.7 112.44 85.61 112.43 85.51 112.43C85.42 112.43 85.32 112.46 85.24 112.5C85.15 112.54 85.08 112.6 85.02 112.67C84.95 112.75 84.91 112.83 84.88 112.92C84.81 113.11 84.81 113.32 84.88 113.51C84.95 113.71 85.09 113.87 85.27 113.96C86.76 114.64 88.38 114.99 90.02 114.99C92.81 114.99 94.69 113.96 94.75 113.94C94.92 113.83 95.05 113.66 95.11 113.46C95.17 113.27 95.16 113.06 95.08 112.87C94.91 112.48 94.48 112.31 94.13 112.51Z" fill="#2D2F30" fill-opacity="1.000000" fill-rule="evenodd"/>
	<path id="Vector" d="M95.68 106.43C95.67 106.45 93.39 107.37 90.03 107.37C88.07 107.37 86.12 107.05 84.25 106.42C83.88 106.29 83.48 106.53 83.37 106.95C83.27 107.38 83.47 107.82 83.84 107.94C85.84 108.62 87.93 108.96 90.03 108.96C93.67 108.96 96.12 107.94 96.17 107.93C96.54 107.78 96.72 107.31 96.59 106.9C96.56 106.81 96.52 106.72 96.46 106.65C96.4 106.57 96.32 106.51 96.24 106.47C96.15 106.42 96.06 106.4 95.96 106.39C95.87 106.39 95.77 106.4 95.68 106.43Z" fill="#2D2F30" fill-opacity="1.000000" fill-rule="evenodd"/>
	<path id="Vector" d="M108.28 70.23L105.36 68.51L105.36 63.73C105.36 63.48 105.3 63.23 105.17 63C105.05 62.78 104.88 62.59 104.67 62.45L96.52 57.3C96.28 57.14 96.01 57.06 95.72 57.06C95.49 57.06 95.26 57.11 95.05 57.2L90.15 59.58L85.24 57.2C85.04 57.11 84.81 57.06 84.59 57.06C84.3 57.06 84.02 57.14 83.77 57.3L75.64 62.45C75.43 62.59 75.25 62.78 75.13 63C75 63.22 74.94 63.48 74.94 63.73L74.94 68.51L72.03 70.23C71.8 70.37 71.61 70.56 71.48 70.79C71.35 71.02 71.28 71.28 71.28 71.54L71.28 81.7C71.28 81.96 71.35 82.22 71.48 82.45C71.61 82.68 71.8 82.87 72.03 83.01L74.94 84.71L74.94 89.51C74.94 89.76 75 90.01 75.13 90.23C75.25 90.46 75.43 90.64 75.64 90.78L83.77 95.94C84.02 96.1 84.3 96.18 84.59 96.18C84.82 96.18 85.04 96.13 85.24 96.02L90.15 93.66L95.05 96.02C95.26 96.13 95.49 96.18 95.72 96.18C96.01 96.18 96.28 96.1 96.52 95.94L104.67 90.78C104.88 90.64 105.05 90.45 105.18 90.23C105.3 90.01 105.36 89.76 105.36 89.51L105.36 84.71L108.28 83.01C108.51 82.87 108.7 82.68 108.83 82.45C108.96 82.22 109.03 81.96 109.03 81.7L109.03 71.54C109.03 71.28 108.96 71.02 108.83 70.79C108.7 70.56 108.51 70.37 108.28 70.23ZM84.71 58.77L84.59 58.56L84.24 58.03L84.71 58.77ZM84.6 94.39L76.69 89.37L76.69 84.61L80.42 82.23L83.67 84.3L83.67 87.46C83.31 87.66 83.03 87.97 82.87 88.34C82.7 88.71 82.67 89.13 82.77 89.52C82.87 89.92 83.1 90.27 83.42 90.51C83.74 90.76 84.14 90.9 84.54 90.9C84.95 90.9 85.34 90.76 85.66 90.51C85.99 90.27 86.21 89.92 86.31 89.52C86.41 89.13 86.38 88.71 86.22 88.34C86.06 87.97 85.77 87.66 85.42 87.46L85.42 84.18C85.42 83.93 85.35 83.68 85.23 83.45C85.11 83.23 84.93 83.04 84.72 82.9L82.05 81.2L84.72 79.51C84.93 79.37 85.11 79.18 85.23 78.96C85.35 78.74 85.41 78.49 85.42 78.24L85.42 70.38C85.77 70.18 86.05 69.88 86.21 69.51C86.37 69.14 86.4 68.73 86.3 68.34C86.2 67.95 85.97 67.6 85.65 67.35C85.34 67.11 84.94 66.97 84.54 66.97C84.14 66.97 83.75 67.11 83.43 67.35C83.11 67.6 82.88 67.95 82.78 68.34C82.68 68.73 82.72 69.14 82.88 69.51C83.04 69.88 83.31 70.18 83.67 70.38L83.67 78.11L75.73 83.15L73.03 81.56L73.03 71.67L75.82 70.02L79.32 72.23L79.32 76.09L77.97 76.95C77.71 76.8 77.41 76.72 77.11 76.72C76.75 76.72 76.4 76.83 76.1 77.03C75.81 77.22 75.57 77.51 75.44 77.84C75.3 78.17 75.26 78.54 75.33 78.89C75.4 79.24 75.58 79.56 75.83 79.82C76.08 80.07 76.41 80.24 76.76 80.31C77.11 80.38 77.48 80.35 77.81 80.21C78.14 80.07 78.42 79.84 78.62 79.54C78.82 79.24 78.93 78.89 78.93 78.53L78.93 78.41L80.37 77.49C80.58 77.36 80.76 77.17 80.88 76.95C81 76.73 81.07 76.48 81.06 76.23L81.06 72.1C81.07 71.85 81 71.6 80.88 71.38C80.76 71.15 80.58 70.97 80.37 70.83L76.7 68.51L76.7 63.86L80.37 61.53L82.76 63.04L82.76 63.16C82.76 63.52 82.87 63.87 83.07 64.17C83.27 64.46 83.55 64.7 83.88 64.83C84.21 64.97 84.58 65.01 84.93 64.94C85.28 64.87 85.6 64.69 85.86 64.44C86.11 64.19 86.29 63.86 86.36 63.51C86.43 63.16 86.39 62.79 86.25 62.46C86.11 62.13 85.88 61.85 85.58 61.65C85.29 61.45 84.93 61.34 84.58 61.34C84.27 61.34 83.97 61.42 83.71 61.57L82.01 60.5L84.63 58.83L89.27 61.09L89.27 92.15L84.6 94.39ZM104.59 83.15L96.63 78.11L96.63 70.38C96.98 70.18 97.26 69.88 97.42 69.51C97.58 69.14 97.61 68.73 97.51 68.34C97.41 67.95 97.19 67.6 96.87 67.35C96.55 67.11 96.16 66.97 95.75 66.97C95.35 66.97 94.96 67.11 94.64 67.35C94.32 67.6 94.1 67.95 94 68.34C93.9 68.73 93.93 69.14 94.09 69.51C94.25 69.88 94.53 70.18 94.88 70.38L94.88 78.24C94.88 78.49 94.95 78.74 95.07 78.97C95.2 79.19 95.37 79.37 95.59 79.51L98.26 81.2L95.59 82.9C95.37 83.04 95.19 83.23 95.07 83.45C94.95 83.67 94.88 83.92 94.88 84.18L94.88 87.46C94.6 87.62 94.36 87.85 94.2 88.12C94.03 88.4 93.95 88.72 93.95 89.04C93.94 89.36 94.02 89.68 94.18 89.96C94.34 90.24 94.57 90.47 94.85 90.63C95.13 90.79 95.44 90.88 95.77 90.87C96.09 90.87 96.4 90.79 96.68 90.62C96.96 90.46 97.19 90.23 97.34 89.95C97.5 89.67 97.58 89.35 97.58 89.03C97.57 88.71 97.48 88.39 97.31 88.12C97.15 87.84 96.91 87.62 96.63 87.46L96.63 84.3L99.89 82.23L103.62 84.61L103.62 89.37L95.69 94.39L91.05 92.15L91.05 61.09L95.69 58.83L98.31 60.5L96.63 61.57C96.36 61.42 96.07 61.34 95.76 61.34C95.4 61.34 95.05 61.45 94.75 61.65C94.45 61.85 94.22 62.13 94.08 62.46C93.95 62.79 93.91 63.16 93.98 63.51C94.05 63.86 94.22 64.19 94.48 64.44C94.73 64.69 95.05 64.87 95.41 64.94C95.76 65.01 96.12 64.97 96.46 64.83C96.79 64.7 97.07 64.46 97.27 64.17C97.47 63.87 97.58 63.52 97.58 63.16L97.58 63.04L99.97 61.53L103.64 63.86L103.64 68.51L99.95 70.83C99.74 70.97 99.56 71.15 99.43 71.37C99.31 71.6 99.25 71.85 99.25 72.1L99.25 76.23C99.25 76.48 99.31 76.73 99.43 76.95C99.56 77.17 99.74 77.36 99.95 77.49L101.39 78.41L101.39 78.53C101.39 78.89 101.5 79.24 101.7 79.54C101.9 79.84 102.18 80.07 102.52 80.21C102.85 80.35 103.21 80.38 103.56 80.31C103.92 80.24 104.24 80.07 104.49 79.82C104.75 79.56 104.92 79.24 104.99 78.89C105.06 78.54 105.02 78.17 104.89 77.84C104.75 77.51 104.52 77.22 104.22 77.03C103.92 76.83 103.57 76.72 103.21 76.72C102.91 76.72 102.62 76.8 102.36 76.95L101.01 76.09L101.01 72.23L104.51 70.02L107.29 71.67L107.29 81.56L104.59 83.15Z" fill="#2D2F30" fill-opacity="1.000000" fill-rule="evenodd"/>
	<path id="Vector" d="M89.51 0C91.97 -0.02 93.92 1.9 93.94 4.33C93.94 4.34 93.94 4.35 93.94 4.36C93.94 6.78 92.02 8.71 89.57 8.73C87.11 8.75 85.18 6.84 85.16 4.4C85.16 4.39 85.16 4.37 85.16 4.36C85.16 1.93 87.06 0.01 89.51 0ZM80.82 9.26C80.54 9.29 80.3 9.08 80.27 8.79L79.46 1.66L76.93 1.95C76.66 1.98 76.44 1.81 76.41 1.55C76.41 1.54 76.41 1.52 76.41 1.5C76.41 1.28 76.58 1.08 76.83 1.05L82.92 0.37C83.17 0.34 83.4 0.52 83.43 0.77C83.43 0.78 83.43 0.8 83.43 0.82C83.43 1.05 83.25 1.24 83.02 1.26L80.46 1.55L81.26 8.68C81.26 8.7 81.26 8.72 81.26 8.75C81.26 9.01 81.09 9.23 80.82 9.26ZM100.25 9.31C99.99 9.27 99.83 9.05 99.83 8.81C99.83 8.78 99.84 8.75 99.84 8.72L101.05 1.11C101.1 0.83 101.34 0.63 101.63 0.68C101.88 0.72 102.05 0.93 102.05 1.18C102.05 1.21 102.05 1.23 102.04 1.26L101.55 4.34L106.23 5.08L106.72 2.01C106.77 1.73 107.02 1.54 107.3 1.58C107.56 1.62 107.72 1.83 107.72 2.08C107.72 2.11 107.72 2.14 107.71 2.17L106.5 9.78C106.45 10.06 106.22 10.25 105.92 10.21C105.67 10.17 105.5 9.95 105.5 9.71C105.5 9.68 105.51 9.65 105.51 9.62L106.09 5.97L101.41 5.22L100.83 8.88C100.78 9.16 100.53 9.35 100.25 9.31ZM89.53 0.92C87.62 0.93 86.2 2.39 86.2 4.34C86.2 4.36 86.2 4.37 86.2 4.38C86.21 6.36 87.66 7.82 89.58 7.81C91.48 7.79 92.9 6.31 92.9 4.36C92.9 4.35 92.9 4.34 92.9 4.32C92.88 2.36 91.44 0.9 89.53 0.92ZM73.45 10.44C71.03 10.96 68.74 9.5 68.22 7.11C68.15 6.78 68.12 6.46 68.12 6.14C68.12 4.13 69.5 2.36 71.58 1.9C72.86 1.62 74.17 1.91 75.12 2.68C75.3 2.82 75.37 2.92 75.4 3.05C75.41 3.08 75.41 3.11 75.41 3.13C75.41 3.34 75.25 3.54 75.03 3.59C74.87 3.62 74.72 3.59 74.58 3.48C73.75 2.81 72.81 2.58 71.79 2.8C70.18 3.15 69.15 4.49 69.15 6.08C69.15 6.34 69.18 6.61 69.24 6.89C69.65 8.8 71.39 9.94 73.26 9.53C74.28 9.31 75.04 8.7 75.51 7.76C75.59 7.59 75.72 7.5 75.88 7.47C76.13 7.41 76.39 7.57 76.44 7.8C76.45 7.83 76.45 7.86 76.45 7.9C76.45 7.99 76.42 8.1 76.34 8.26C75.82 9.34 74.74 10.15 73.45 10.44ZM115.07 11.7C115.09 11.77 115.09 11.83 115.09 11.89C115.09 11.94 115.09 11.99 115.08 12.03C115.01 12.28 114.73 12.44 114.48 12.37C114.26 12.31 114.14 12.15 114.1 11.93L113.84 10.28L109.65 9.14L108.63 10.45C108.49 10.62 108.29 10.7 108.08 10.64C107.87 10.58 107.73 10.38 107.73 10.17C107.73 10.13 107.73 10.09 107.74 10.05C107.77 9.96 107.82 9.87 107.9 9.76L113.01 3.28C113.17 3.09 113.35 3.02 113.56 3.07C113.77 3.13 113.89 3.28 113.93 3.53L115.07 11.7ZM113.17 4.52L110.24 8.37L113.7 9.31L113.17 4.52ZM60.7 4.91C63.02 4.1 65.48 5.29 66.29 7.58C66.46 8.07 66.54 8.56 66.54 9.05C66.54 10.85 65.41 12.52 63.58 13.16C61.26 13.97 58.81 12.79 58 10.48C57.83 9.99 57.75 9.49 57.75 9.01C57.75 7.2 58.87 5.55 60.7 4.91ZM122.45 9.89C122.5 10 122.53 10.1 122.53 10.19C122.53 10.25 122.51 10.3 122.49 10.35C122.44 10.48 122.34 10.57 122.15 10.65L117.22 12.93C116.97 13.04 116.82 13.07 116.65 13C116.49 12.93 116.38 12.75 116.38 12.57C116.38 12.51 116.4 12.45 116.42 12.39C116.47 12.27 116.55 12.19 116.65 12.15L121.46 9.93L119.77 5.7C119.74 5.64 119.73 5.56 119.73 5.5C119.73 5.44 119.74 5.38 119.76 5.33C119.86 5.09 120.13 4.98 120.35 5.07C120.5 5.13 120.57 5.22 120.63 5.38L122.45 9.89ZM61.01 5.78C59.6 6.27 58.76 7.5 58.76 8.89C58.76 9.3 58.83 9.71 58.98 10.13C59.63 12 61.47 12.92 63.29 12.28C64.69 11.8 65.52 10.56 65.52 9.16C65.52 8.75 65.45 8.33 65.3 7.92C64.66 6.07 62.82 5.15 61.01 5.78ZM124.77 6.9C124.96 6.98 125.07 7.16 125.07 7.36C125.07 7.43 125.06 7.51 125.03 7.58L122.09 14.68C121.98 14.95 121.69 15.08 121.43 14.97C121.23 14.89 121.12 14.71 121.12 14.51C121.12 14.44 121.14 14.37 121.16 14.3L124.11 7.19C124.22 6.92 124.51 6.79 124.77 6.9ZM53.26 17.52C52.99 17.65 52.71 17.53 52.58 17.27L49.31 10.47C49.27 10.39 49.25 10.31 49.25 10.23C49.25 10.04 49.36 9.86 49.55 9.77L51.76 8.7C53.21 8 54.62 8.42 55.26 9.74C55.44 10.11 55.52 10.48 55.52 10.84C55.52 11.78 54.94 12.63 53.89 13.14L52.12 13.99L53.48 16.83C53.52 16.91 53.54 16.99 53.54 17.07C53.54 17.26 53.44 17.44 53.26 17.52ZM126.8 16.35C126.82 16.4 126.83 16.45 126.83 16.5C126.83 16.56 126.82 16.62 126.79 16.68C126.69 16.92 126.42 17.04 126.2 16.95C126.03 16.88 125.94 16.76 125.84 16.5L123.96 11.4C123.92 11.29 123.89 11.19 123.89 11.11C123.89 11.05 123.9 11 123.93 10.95C123.98 10.82 124.09 10.72 124.28 10.65L128.77 8.75C128.93 8.68 129.04 8.67 129.19 8.73C129.36 8.8 129.46 8.96 129.46 9.14C129.46 9.2 129.45 9.27 129.42 9.33C129.38 9.43 129.28 9.53 129.15 9.59L124.96 11.37L126.8 16.35ZM51.73 13.18L53.48 12.34C54.15 12.02 54.51 11.52 54.51 10.94C54.51 10.7 54.45 10.45 54.33 10.2C53.91 9.33 53.07 9.07 52.13 9.52L50.37 10.37L51.73 13.18ZM138.82 14.21C138.96 14.29 139.04 14.43 139.04 14.59C139.04 14.69 139.01 14.79 138.96 14.88L135.03 21.52C134.89 21.76 134.6 21.86 134.34 21.71C134.18 21.61 134.1 21.45 134.1 21.28C134.1 21.19 134.12 21.1 134.17 21.01L137.26 15.78L133.38 17.75C133.12 17.88 132.92 17.89 132.73 17.78C132.53 17.66 132.46 17.49 132.45 17.2L132.3 12.85L129.21 18.08C129.06 18.32 128.76 18.41 128.52 18.27C128.35 18.17 128.27 18.01 128.27 17.84C128.27 17.75 128.3 17.66 128.35 17.57L132.27 10.93C132.42 10.68 132.7 10.59 132.93 10.73C133.13 10.84 133.2 11 133.2 11.39L133.4 16.65L138.09 14.28C138.45 14.1 138.62 14.09 138.82 14.21ZM45.5 22.02C45.25 22.17 44.95 22.08 44.8 21.83L40.84 15.41C40.78 15.32 40.76 15.22 40.76 15.12C40.76 14.95 40.84 14.79 41.01 14.68L45.57 11.87C45.83 11.71 46.14 11.8 46.29 12.05L50.25 18.47C50.31 18.57 50.34 18.67 50.34 18.77C50.34 18.93 50.26 19.08 50.1 19.18C49.86 19.33 49.56 19.25 49.4 19L45.64 12.89L41.88 15.2L45.65 21.31C45.7 21.4 45.73 21.5 45.73 21.59C45.73 21.76 45.65 21.92 45.5 22.02ZM147.8 20.8C147.93 20.9 147.99 21.05 147.99 21.2C147.99 21.31 147.96 21.41 147.9 21.49L143.17 27.61C142.99 27.84 142.69 27.9 142.45 27.72C142.33 27.62 142.26 27.48 142.26 27.33C142.26 27.21 142.3 27.1 142.38 26.99L146.21 22.04L138.24 24.2C138.05 24.25 137.94 24.23 137.81 24.13C137.68 24.03 137.61 23.88 137.61 23.73C137.61 23.62 137.65 23.52 137.71 23.44L142.44 17.33C142.62 17.09 142.92 17.04 143.16 17.22C143.28 17.31 143.35 17.46 143.35 17.6C143.35 17.72 143.31 17.84 143.23 17.94L139.4 22.89L147.37 20.73C147.55 20.68 147.67 20.7 147.8 20.8ZM36.45 30.99C36.24 31.16 35.94 31.13 35.76 30.93C35.69 30.84 35.66 30.75 35.64 30.66L33.54 18.43C33.53 18.41 33.53 18.39 33.53 18.37C33.53 18.22 33.6 18.07 33.73 17.95C33.93 17.79 34.25 17.8 34.42 18.01C34.49 18.1 34.52 18.19 34.53 18.28L36.64 30.5C36.65 30.52 36.65 30.54 36.65 30.56C36.65 30.71 36.58 30.88 36.45 30.99ZM150 35.03C149.19 34.16 148.79 33.08 148.79 32.01C148.79 30.86 149.26 29.71 150.19 28.84C151.97 27.16 154.69 27.25 156.38 29.06C157.15 29.87 157.56 30.92 157.56 31.97C157.56 32.14 157.55 32.32 157.53 32.49C157.49 32.72 157.44 32.83 157.35 32.92C157.17 33.09 156.88 33.07 156.7 32.88C156.6 32.78 156.55 32.66 156.55 32.52C156.55 32.49 156.56 32.46 156.56 32.43C156.59 32.25 156.6 32.07 156.6 31.89C156.6 31.06 156.3 30.32 155.72 29.7C154.4 28.29 152.33 28.25 150.9 29.59C150.14 30.3 149.76 31.21 149.76 32.12C149.76 32.93 150.06 33.75 150.68 34.41C151.39 35.16 152.31 35.5 153.36 35.43C153.54 35.42 153.69 35.48 153.8 35.6C153.89 35.69 153.93 35.81 153.93 35.93C153.93 36.05 153.89 36.17 153.8 36.25C153.7 36.34 153.58 36.38 153.36 36.4C152.16 36.5 150.9 35.99 150 35.03ZM31.21 32.72C31.35 32.76 31.44 32.81 31.51 32.87C31.61 32.96 31.66 33.1 31.66 33.23C31.66 33.35 31.63 33.47 31.55 33.55C31.39 33.73 31.2 33.76 30.98 33.7L29.38 33.19L26.5 36.43L27.21 37.93C27.25 38.01 27.27 38.1 27.27 38.18C27.27 38.29 27.23 38.41 27.14 38.5C26.96 38.7 26.65 38.71 26.46 38.54C26.39 38.48 26.33 38.39 26.27 38.27L22.76 30.81C22.71 30.71 22.69 30.62 22.69 30.53C22.69 30.42 22.73 30.32 22.81 30.22C22.96 30.06 23.15 30.02 23.39 30.1L31.21 32.72ZM23.93 31.22L26.07 35.56L28.46 32.88L23.93 31.22ZM165.1 40.11C165.64 40.89 165.9 41.77 165.9 42.64C165.9 44.01 165.25 45.35 164.03 46.21C162.03 47.6 159.34 47.13 157.94 45.12C157.4 44.35 157.14 43.49 157.14 42.63C157.14 41.31 157.75 40.02 158.91 39.16L157.61 37.3L154.58 39.41C154.34 39.58 154.03 39.54 153.87 39.31C153.8 39.22 153.77 39.12 153.77 39.02C153.77 38.86 153.86 38.7 154.01 38.6L160.31 34.19C160.55 34.02 160.86 34.06 161.03 34.3C161.09 34.38 161.12 34.48 161.12 34.58C161.12 34.74 161.03 34.9 160.88 35.01L158.34 36.79L159.68 38.7C161.58 37.77 163.85 38.33 165.1 40.11ZM25.36 39.04C25.53 38.8 25.83 38.75 26.08 38.93L27.54 39.97C27.69 40.08 27.77 40.24 27.77 40.4C27.77 40.5 27.74 40.59 27.68 40.69C27.51 40.91 27.2 40.96 26.96 40.79L25.8 39.96L22.24 44.94L23.39 45.76C23.54 45.87 23.62 46.03 23.62 46.19C23.62 46.29 23.59 46.38 23.53 46.48C23.36 46.7 23.05 46.75 22.81 46.58L21.35 45.53C21.2 45.42 21.13 45.27 21.13 45.11C21.13 45 21.16 44.9 21.23 44.8L21.3 44.69C21.1 43.02 19.74 41.31 17.06 39.38L16.66 39.1C16.51 38.99 16.43 38.84 16.43 38.67C16.43 38.57 16.47 38.47 16.53 38.38L18.61 35.47C18.79 35.23 19.11 35.18 19.35 35.35L25.07 39.45L25.36 39.04ZM17.52 38.53C20.23 40.49 21.62 42.1 21.98 43.75L24.48 40.26L19.07 36.38L17.52 38.53ZM158.7 44.6C159.79 46.16 161.83 46.48 163.44 45.35C164.44 44.65 164.96 43.62 164.96 42.56C164.96 41.9 164.76 41.24 164.35 40.65C163.25 39.09 161.22 38.76 159.62 39.88C158.61 40.58 158.08 41.63 158.08 42.69C158.08 43.35 158.28 44.01 158.7 44.6ZM11.31 46.4C12.45 44.23 15.06 43.41 17.22 44.54C18.72 45.33 19.57 46.82 19.57 48.39C19.57 49.08 19.4 49.79 19.06 50.45C17.95 52.56 15.45 53.36 13.31 52.33L12.26 54.34L15.53 56.05C15.72 56.15 15.82 56.33 15.82 56.51C15.82 56.59 15.81 56.66 15.77 56.74C15.63 57 15.33 57.07 15.07 56.94L8.26 53.37C8.07 53.28 7.96 53.1 7.96 52.92C7.96 52.84 7.98 52.76 8.02 52.69C8.15 52.44 8.46 52.35 8.72 52.49L11.47 53.92L12.55 51.86C11.43 51.02 10.81 49.75 10.81 48.43C10.81 47.75 10.97 47.05 11.31 46.4ZM18.25 50.01C18.51 49.51 18.64 48.98 18.64 48.46C18.64 47.25 17.95 46.1 16.72 45.45C14.99 44.55 13.02 45.13 12.14 46.81C11.87 47.33 11.74 47.86 11.74 48.39C11.74 49.59 12.42 50.74 13.63 51.37C15.38 52.28 17.36 51.7 18.25 50.01ZM165.4 56.4C165.44 56.48 165.46 56.57 165.46 56.64C165.46 56.83 165.36 57 165.16 57.1L163.56 57.91C163.3 58.04 163 57.96 162.87 57.7C162.83 57.63 162.81 57.55 162.81 57.48C162.81 57.29 162.92 57.11 163.11 57.01L164.38 56.37L161.62 50.91L160.35 51.55C160.09 51.68 159.79 51.6 159.66 51.34C159.62 51.27 159.61 51.19 159.61 51.12C159.61 50.93 159.71 50.75 159.9 50.65L161.5 49.85C161.78 49.71 162.08 49.82 162.21 50.08L162.27 50.19C163.85 50.79 165.99 50.38 168.95 48.89L169.38 48.67C169.64 48.54 169.95 48.63 170.08 48.9L171.69 52.09C171.73 52.16 171.75 52.25 171.75 52.33C171.75 52.52 171.64 52.7 171.46 52.79L165.18 55.96L165.4 56.4ZM169.48 49.7C166.49 51.19 164.42 51.68 162.79 51.24L164.73 55.07L170.68 52.07L169.48 49.7ZM13.67 62.32C12.85 64.65 10.4 65.83 8.09 65.02C6.28 64.39 5.16 62.74 5.16 60.93C5.16 60.44 5.24 59.93 5.42 59.43C5.85 58.2 6.78 57.24 7.93 56.82C8.15 56.75 8.27 56.74 8.39 56.78C8.57 56.84 8.69 57.03 8.69 57.22C8.69 57.27 8.68 57.32 8.66 57.38C8.61 57.53 8.5 57.65 8.33 57.71C7.32 58.06 6.63 58.74 6.29 59.72C6.16 60.11 6.09 60.5 6.09 60.87C6.09 62.27 6.98 63.53 8.43 64.04C10.28 64.69 12.16 63.81 12.8 62C12.93 61.63 12.99 61.27 12.99 60.91C12.99 60.31 12.81 59.72 12.46 59.15C12.41 59.06 12.38 58.96 12.38 58.87C12.38 58.81 12.39 58.75 12.41 58.69C12.49 58.45 12.76 58.31 12.99 58.39C13.11 58.43 13.2 58.52 13.33 58.71C13.72 59.32 13.92 60.06 13.92 60.83C13.92 61.32 13.84 61.83 13.67 62.32ZM168.2 64.28C168.1 64.39 168.01 64.45 167.93 64.48C167.69 64.57 167.39 64.44 167.3 64.2C167.28 64.13 167.26 64.07 167.26 64.01C167.26 63.87 167.33 63.74 167.44 63.62L168.62 62.45L167.08 58.39L165.43 58.33C165.2 58.32 165.03 58.21 164.95 58.01C164.93 57.95 164.92 57.89 164.92 57.84C164.92 57.64 165.04 57.45 165.23 57.38C165.32 57.35 165.42 57.33 165.56 57.34L173.8 57.68C174.05 57.69 174.22 57.79 174.29 58C174.32 58.06 174.33 58.12 174.33 58.17C174.33 58.31 174.26 58.44 174.14 58.56L168.2 64.28ZM172.89 58.53L168.05 58.42L169.33 61.77L172.89 58.53ZM2.03 71.03C2.08 70.76 2.35 70.58 2.6 70.63L10.21 71.96C10.47 72 10.65 72.2 10.65 72.45C10.65 72.48 10.65 72.51 10.64 72.54C10.59 72.82 10.33 72.99 10.04 72.94L3.87 71.86L9.49 77.9C9.6 78.01 9.64 78.11 9.64 78.22C9.64 78.25 9.64 78.28 9.63 78.32C9.58 78.6 9.32 78.77 9.06 78.73L1.45 77.4C1.19 77.35 1.01 77.15 1.01 76.91C1.01 76.88 1.02 76.84 1.02 76.81C1.07 76.54 1.34 76.36 1.63 76.41L7.8 77.49L2.17 71.45C2.07 71.34 2.02 71.25 2.02 71.13C2.02 71.1 2.03 71.07 2.03 71.03ZM0.4 81.71C0.41 81.44 0.64 81.26 0.93 81.27L8.64 81.66C8.91 81.67 9.13 81.88 9.13 82.16C9.13 82.17 9.13 82.18 9.12 82.18C9.11 82.47 8.87 82.67 8.59 82.66L2.52 82.35L6.06 84.88C6.29 85.04 6.4 85.2 6.4 85.4C6.4 85.41 6.4 85.42 6.4 85.43C6.38 85.66 6.26 85.81 6.01 85.95L2.23 88.11L8.3 88.42C8.57 88.43 8.79 88.64 8.79 88.91C8.79 88.92 8.79 88.93 8.79 88.94C8.77 89.23 8.53 89.43 8.25 89.41L0.54 89.03C0.26 89.01 0.05 88.82 0.05 88.57C0.05 88.56 0.05 88.55 0.06 88.54C0.07 88.31 0.18 88.17 0.52 87.99L5.08 85.37L0.8 82.32C0.5 82.1 0.4 81.95 0.4 81.74C0.4 81.73 0.4 81.72 0.4 81.71ZM7.85 91.68C7.92 91.6 8.02 91.55 8.15 91.54C8.41 91.51 8.64 91.7 8.66 91.94C8.67 91.96 8.67 91.97 8.67 91.99C8.67 92.14 8.6 92.27 8.43 92.46L4.8 96.5C4.66 96.66 4.55 96.73 4.41 96.75C4.27 96.76 4.14 96.71 3.98 96.57L0.21 93.48C0.07 93.38 0.01 93.28 0 93.13C0 93.11 0 93.1 0 93.09C0 92.85 0.17 92.66 0.41 92.64C0.53 92.63 0.66 92.67 0.77 92.76L4.31 95.64L7.85 91.68ZM171.41 92.2C171.43 91.9 171.67 91.71 171.96 91.72L179.5 92.13C179.78 92.15 180 92.36 180 92.65C180 92.66 180 92.67 179.99 92.68L179.71 98.03C179.69 98.34 179.45 98.54 179.15 98.53L171.62 98.12C171.33 98.11 171.12 97.9 171.12 97.62C171.12 97.61 171.12 97.6 171.12 97.59C171.13 97.31 171.38 97.11 171.67 97.12L178.84 97.51L179.07 93.11L171.91 92.72C171.62 92.71 171.41 92.49 171.41 92.22C171.41 92.21 171.41 92.2 171.41 92.2ZM0.44 97.89C0.44 97.87 0.44 97.86 0.44 97.84C0.44 97.58 0.64 97.37 0.92 97.34L8.57 96.63C8.87 96.6 9.11 96.8 9.14 97.08C9.14 97.1 9.14 97.11 9.14 97.13C9.14 97.39 8.94 97.6 8.66 97.63L1.01 98.34C0.71 98.36 0.46 98.17 0.44 97.89ZM4.17 98.54C4.29 98.38 4.42 98.3 4.56 98.29C4.7 98.28 4.82 98.33 4.98 98.46L9.29 101.75C9.51 101.92 9.6 102.04 9.62 102.22C9.62 102.23 9.62 102.25 9.62 102.26C9.62 102.49 9.43 102.69 9.19 102.71C9.06 102.72 8.95 102.69 8.87 102.62L4.66 99.4L1.71 102.86C1.62 102.98 1.5 103.04 1.38 103.05C1.13 103.07 0.9 102.89 0.88 102.64C0.88 102.63 0.88 102.61 0.88 102.59C0.88 102.46 0.92 102.37 1.02 102.26L4.17 98.54ZM170.66 101.22C170.7 100.92 170.96 100.76 171.25 100.81L178.71 101.99C178.97 102.03 179.15 102.24 179.15 102.5C179.15 102.53 179.15 102.56 179.14 102.59L178.76 105.01C178.51 106.6 177.36 107.52 175.92 107.29C174.64 107.09 173.85 106.11 173.85 104.8C173.85 104.62 173.87 104.43 173.9 104.24L174.21 102.29L171.1 101.79C170.83 101.75 170.65 101.54 170.65 101.3C170.65 101.27 170.65 101.24 170.66 101.22ZM175.1 102.43L174.79 104.35C174.77 104.49 174.76 104.62 174.76 104.74C174.76 105.57 175.23 106.13 176.07 106.27C177.02 106.42 177.71 105.88 177.88 104.84L178.18 102.92L175.1 102.43ZM9.18 104.25C9.29 104.15 9.38 104.11 9.47 104.09C9.72 104.03 10 104.21 10.05 104.46C10.06 104.5 10.07 104.54 10.07 104.58C10.07 104.75 9.98 104.89 9.83 105L8.49 106L9.43 110.24L11.06 110.53C11.28 110.57 11.44 110.71 11.49 110.92C11.5 110.96 11.5 110.99 11.5 111.02C11.5 111.25 11.34 111.45 11.12 111.5C11.03 111.52 10.93 111.52 10.79 111.5L2.68 109.98C2.43 109.93 2.29 109.81 2.24 109.59C2.23 109.55 2.23 109.52 2.23 109.48C2.23 109.32 2.31 109.18 2.48 109.06L9.18 104.25ZM3.71 109.27L8.48 110.07L7.7 106.57L3.71 109.27ZM176.92 113.97C176.27 116.34 173.9 117.71 171.55 117.07C169.59 116.54 168.32 114.81 168.32 112.87C168.32 112.48 168.37 112.08 168.48 111.69C169.12 109.31 171.48 107.96 173.84 108.6C175.81 109.13 177.08 110.85 177.08 112.78C177.08 113.17 177.02 113.57 176.92 113.97ZM176.02 113.74C176.11 113.43 176.15 113.11 176.15 112.81C176.15 111.32 175.17 110.03 173.58 109.6C171.67 109.08 169.87 110.08 169.37 111.94C169.28 112.25 169.24 112.55 169.24 112.85C169.24 114.34 170.24 115.64 171.83 116.07C173.72 116.58 175.52 115.58 176.02 113.74ZM13.98 118.62C14 118.68 14.01 118.73 14.01 118.79C14.01 119 13.87 119.18 13.66 119.26L6.36 121.75C6.09 121.84 5.81 121.72 5.71 121.44C5.69 121.39 5.69 121.33 5.69 121.28C5.69 121.07 5.82 120.87 6.04 120.8L8.98 119.8L7.45 115.31L4.51 116.32C4.24 116.41 3.95 116.28 3.86 116.01C3.84 115.95 3.83 115.9 3.83 115.84C3.83 115.63 3.97 115.44 4.18 115.37L11.48 112.88C11.75 112.79 12.03 112.91 12.13 113.19C12.15 113.24 12.16 113.29 12.16 113.35C12.16 113.56 12.02 113.75 11.81 113.83L8.3 115.02L9.83 119.51L13.34 118.31C13.6 118.22 13.89 118.35 13.98 118.62ZM165 121.69C165.93 119.4 168.44 118.36 170.71 119.28C172.41 119.98 173.43 121.57 173.43 123.29C173.43 123.86 173.32 124.44 173.08 125.01C172.59 126.21 171.6 127.13 170.43 127.48C170.22 127.54 170.09 127.54 169.97 127.5C169.8 127.43 169.7 127.25 169.7 127.07C169.7 127.01 169.71 126.95 169.74 126.89C169.8 126.73 169.91 126.63 170.09 126.57C171.11 126.27 171.83 125.63 172.22 124.67C172.4 124.23 172.49 123.79 172.49 123.36C172.49 122.03 171.68 120.8 170.31 120.24C168.5 119.5 166.57 120.28 165.84 122.05C165.68 122.47 165.59 122.88 165.59 123.29C165.59 123.84 165.74 124.38 166.03 124.91C166.08 125 166.1 125.09 166.1 125.18C166.1 125.25 166.09 125.31 166.06 125.38C165.96 125.62 165.69 125.74 165.46 125.65C165.35 125.6 165.26 125.51 165.15 125.31C164.82 124.74 164.66 124.08 164.66 123.39C164.66 122.83 164.77 122.25 165 121.69ZM10.45 131.92C10.09 131.25 9.92 130.53 9.92 129.83C9.92 128.27 10.76 126.78 12.24 125.99C14.39 124.85 17.01 125.65 18.16 127.82C18.52 128.49 18.7 129.21 18.7 129.91C18.7 131.47 17.86 132.95 16.37 133.74C14.21 134.89 11.61 134.1 10.45 131.92ZM11.26 131.48C12.16 133.18 14.13 133.76 15.87 132.83C17.08 132.18 17.76 131.05 17.76 129.84C17.76 129.31 17.62 128.76 17.34 128.24C16.45 126.56 14.46 125.99 12.72 126.92C11.52 127.55 10.85 128.69 10.85 129.89C10.85 130.42 10.98 130.96 11.26 131.48ZM161.75 128.45C161.88 128.2 162.18 128.12 162.44 128.25L168.77 131.65L169.97 129.41C170.1 129.17 170.37 129.08 170.59 129.2C170.74 129.28 170.82 129.43 170.82 129.6C170.82 129.67 170.8 129.75 170.76 129.83L167.86 135.22C167.74 135.45 167.47 135.53 167.25 135.42C167.1 135.34 167.02 135.19 167.02 135.03C167.02 134.95 167.03 134.87 167.07 134.8L168.29 132.53L161.97 129.14C161.79 129.04 161.68 128.87 161.68 128.68C161.68 128.61 161.7 128.53 161.75 128.45ZM164.28 141.03C162.89 143.06 160.2 143.57 158.19 142.19C156.95 141.34 156.28 139.99 156.28 138.6C156.28 137.75 156.53 136.87 157.06 136.1C158.45 134.07 161.12 133.57 163.14 134.95C164.39 135.8 165.06 137.15 165.06 138.53C165.06 139.39 164.81 140.25 164.28 141.03ZM163.51 140.52C163.92 139.92 164.12 139.26 164.12 138.61C164.12 137.54 163.58 136.5 162.57 135.81C160.93 134.69 158.9 135.04 157.82 136.63C157.41 137.22 157.22 137.87 157.22 138.51C157.22 139.59 157.76 140.64 158.78 141.34C160.4 142.45 162.43 142.1 163.51 140.52ZM22.77 135.5C22.83 135.58 22.86 135.68 22.86 135.77C22.86 135.94 22.77 136.1 22.62 136.21L16.68 140.23L18.11 142.34C18.17 142.43 18.2 142.53 18.2 142.62C18.2 142.77 18.13 142.9 18.01 142.99C17.81 143.12 17.52 143.07 17.37 142.85L13.93 137.78C13.88 137.7 13.85 137.61 13.85 137.52C13.85 137.37 13.92 137.23 14.04 137.14C14.26 137 14.53 137.06 14.67 137.28L16.12 139.41L22.06 135.38C22.3 135.21 22.61 135.25 22.77 135.5ZM27.22 141.47C27.93 142.31 28.28 143.32 28.28 144.31C28.28 145.55 27.74 146.77 26.7 147.64C24.83 149.21 22.12 148.98 20.53 147.08C19.86 146.28 19.5 145.3 19.5 144.33C19.5 144.08 19.52 143.83 19.57 143.59C19.62 143.37 19.67 143.25 19.77 143.17C19.96 143.01 20.25 143.05 20.42 143.25C20.5 143.34 20.54 143.46 20.54 143.58C20.54 143.62 20.54 143.66 20.53 143.7C20.48 143.95 20.46 144.19 20.46 144.42C20.46 145.18 20.72 145.87 21.23 146.48C22.46 147.95 24.53 148.11 26.03 146.85C26.88 146.14 27.31 145.18 27.31 144.21C27.31 143.45 27.05 142.7 26.51 142.05C25.84 141.26 24.95 140.87 23.89 140.89C23.71 140.89 23.57 140.82 23.46 140.69C23.39 140.6 23.35 140.49 23.35 140.38C23.35 140.25 23.4 140.13 23.5 140.04C23.6 139.96 23.72 139.92 23.95 139.92C25.15 139.88 26.37 140.46 27.22 141.47ZM150.74 144.18C150.94 143.97 151.25 143.98 151.46 144.17L157.05 149.48C157.16 149.59 157.21 149.72 157.21 149.86C157.21 149.98 157.17 150.1 157.08 150.2C156.88 150.4 156.56 150.4 156.36 150.21L154.1 148.06L150.84 151.5L153.09 153.64C153.2 153.75 153.26 153.88 153.26 154.02C153.26 154.14 153.21 154.26 153.12 154.36C152.92 154.57 152.61 154.56 152.4 154.37L146.81 149.05C146.7 148.95 146.64 148.82 146.64 148.68C146.64 148.56 146.69 148.44 146.78 148.34C146.98 148.14 147.3 148.14 147.5 148.33L150.19 150.88L153.45 147.45L150.77 144.89C150.66 144.79 150.6 144.66 150.6 144.52C150.6 144.4 150.65 144.28 150.74 144.18ZM28.47 155.57C27.53 154.69 27.05 153.52 27.05 152.35C27.05 151.28 27.44 150.22 28.23 149.38C29.89 147.59 32.62 147.49 34.42 149.17C35.37 150.05 35.84 151.21 35.84 152.38C35.84 153.44 35.45 154.5 34.66 155.35C32.99 157.14 30.27 157.24 28.47 155.57ZM29.09 154.88C30.5 156.19 32.54 156.1 33.89 154.65C34.54 153.95 34.87 153.1 34.87 152.26C34.87 151.38 34.51 150.51 33.78 149.84C32.39 148.53 30.32 148.65 28.98 150.09C28.33 150.79 28.01 151.63 28.01 152.46C28.01 153.34 28.37 154.21 29.09 154.88ZM140.34 155.03C140.21 154.97 140.12 154.91 140.06 154.84C139.99 154.76 139.95 154.64 139.95 154.53C139.95 154.39 140.01 154.25 140.12 154.16C140.29 154.01 140.49 154 140.7 154.1L142.21 154.82L145.52 152L145.02 150.42C145 150.36 144.99 150.3 144.99 150.24C144.99 150.1 145.04 149.96 145.16 149.86C145.37 149.69 145.68 149.72 145.85 149.92C145.91 149.99 145.95 150.08 146 150.21L148.45 158.09C148.47 158.16 148.48 158.23 148.48 158.3C148.48 158.44 148.42 158.56 148.31 158.66C148.14 158.8 147.95 158.81 147.73 158.7L140.34 155.03ZM147.34 157.52L145.82 152.92L143.08 155.25L147.34 157.52ZM137.48 162.2C137.28 162.17 137.15 162.1 137.08 161.98C137.03 161.9 137.01 161.82 137.01 161.72C137.01 161.66 137.01 161.6 137.03 161.52L137.93 156.18C137.98 155.9 138.05 155.77 138.2 155.67C138.4 155.54 138.69 155.61 138.83 155.82C138.88 155.9 138.91 155.98 138.91 156.06C138.91 156.09 138.91 156.12 138.9 156.14L138.01 161.37L142.45 162.36C142.59 162.39 142.71 162.47 142.77 162.57C142.82 162.64 142.85 162.73 142.85 162.82C142.85 162.97 142.77 163.11 142.64 163.2C142.52 163.28 142.4 163.29 142.24 163.25L137.48 162.2ZM42.81 156.09C42.95 156.19 43.01 156.33 43.01 156.48C43.01 156.59 42.98 156.7 42.9 156.81L38.39 162.86C38.22 163.09 37.9 163.15 37.66 162.97L35.69 161.5C34.9 160.91 34.49 160.14 34.49 159.36C34.49 158.87 34.65 158.38 34.99 157.93C35.87 156.75 37.34 156.59 38.63 157.56L40.22 158.74L42.1 156.21C42.27 155.97 42.59 155.92 42.81 156.09ZM39.68 159.46L38.12 158.29C37.27 157.67 36.41 157.76 35.83 158.54C35.6 158.84 35.49 159.17 35.49 159.48C35.49 159.96 35.74 160.42 36.25 160.8L37.81 161.96L39.68 159.46ZM50.36 160.9C50.52 161 50.6 161.15 50.6 161.32C50.6 161.42 50.57 161.52 50.52 161.61L46.65 168.09C46.5 168.34 46.2 168.43 45.93 168.27L41.33 165.53C41.16 165.43 41.07 165.26 41.07 165.09C41.07 165 41.1 164.9 41.15 164.81L45.01 158.33C45.16 158.08 45.46 157.98 45.71 158.14C45.87 158.23 45.95 158.39 45.95 158.56C45.95 158.65 45.92 158.75 45.87 158.84L42.2 165.01L45.98 167.26L49.66 161.1C49.81 160.84 50.11 160.76 50.36 160.9ZM138.64 165.81C138.41 165.96 138.1 165.89 137.94 165.64L133.74 159.2C133.67 159.11 133.64 159 133.64 158.9C133.64 158.74 133.72 158.58 133.87 158.49C134.11 158.33 134.41 158.41 134.57 158.66L138.77 165.09C138.83 165.19 138.86 165.29 138.86 165.39C138.86 165.56 138.79 165.71 138.64 165.81ZM129.69 162.14C129.58 162.12 129.5 162.06 129.42 161.95C129.37 161.87 129.35 161.78 129.35 161.68C129.35 161.53 129.42 161.39 129.54 161.31C129.69 161.21 129.84 161.2 130.12 161.27L135.38 162.59C135.59 162.64 135.7 162.71 135.78 162.82C135.83 162.9 135.85 162.98 135.85 163.08C135.85 163.14 135.84 163.21 135.82 163.29L134.85 168.06C134.82 168.23 134.77 168.33 134.64 168.42C134.42 168.56 134.15 168.49 134.01 168.27C133.96 168.2 133.94 168.11 133.94 168.02C133.94 167.98 133.94 167.94 133.95 167.9L134.85 163.43L129.69 162.14ZM124.62 173.23C124.38 173.34 124.11 173.23 123.99 172.96L120.72 165.97C120.68 165.9 120.67 165.82 120.67 165.74C120.67 165.56 120.77 165.39 120.95 165.3C121.21 165.18 121.5 165.3 121.62 165.55L124.2 171.05L124.77 166.74C124.8 166.45 124.91 166.28 125.1 166.19C125.31 166.09 125.5 166.13 125.74 166.28L129.42 168.61L126.85 163.11C126.81 163.04 126.8 162.96 126.8 162.89C126.8 162.7 126.9 162.52 127.08 162.43C127.35 162.31 127.63 162.43 127.75 162.69L131.02 169.67C131.06 169.76 131.08 169.84 131.08 169.92C131.08 170.1 130.99 170.25 130.82 170.33C130.61 170.43 130.44 170.4 130.11 170.18L125.66 167.38L124.97 172.58C124.91 172.98 124.83 173.13 124.62 173.23ZM62.43 164.79C62.62 164.87 62.73 165.05 62.73 165.24C62.73 165.31 62.72 165.37 62.7 165.43C62.65 165.54 62.58 165.6 62.52 165.66L52.64 173.17C52.5 173.27 52.31 173.3 52.12 173.22C51.94 173.15 51.82 172.96 51.82 172.77C51.82 172.71 51.83 172.65 51.86 172.59C51.9 172.48 51.97 172.41 52.05 172.36L61.91 164.84C62.05 164.75 62.25 164.72 62.43 164.79ZM114.51 176.71C114.24 176.8 113.96 176.65 113.88 176.41L111.5 169.06C111.48 169 111.47 168.94 111.47 168.88C111.47 168.66 111.59 168.48 111.81 168.4C112.08 168.32 112.36 168.47 112.45 168.75L114.38 174.71L117.09 166.91C117.15 166.72 117.23 166.64 117.39 166.59C117.66 166.51 117.94 166.66 118.02 166.9L120.4 174.25C120.42 174.31 120.43 174.37 120.43 174.43C120.43 174.64 120.31 174.83 120.09 174.9C119.82 174.99 119.54 174.84 119.45 174.56L117.52 168.6L114.81 176.4C114.75 176.58 114.66 176.66 114.51 176.71ZM66.55 168.72C66.53 168.64 66.52 168.57 66.52 168.51C66.52 168.47 66.53 168.42 66.53 168.38C66.6 168.14 66.88 167.97 67.12 168.03C67.35 168.08 67.47 168.24 67.52 168.47L67.81 170.11L72.03 171.15L73.02 169.82C73.15 169.65 73.34 169.56 73.56 169.61C73.78 169.67 73.93 169.88 73.93 170.09C73.93 170.13 73.92 170.17 73.91 170.2C73.89 170.29 73.84 170.38 73.76 170.5L68.8 177.08C68.64 177.28 68.47 177.36 68.25 177.31C68.04 177.25 67.92 177.1 67.88 176.86L66.55 168.72ZM74.87 170.98C74.61 170.94 74.43 170.74 74.43 170.47C74.43 170.44 74.43 170.42 74.44 170.39L74.68 168.61C74.72 168.32 74.95 168.12 75.24 168.16C75.5 168.19 75.67 168.41 75.67 168.67C75.67 168.69 75.67 168.72 75.67 168.74L75.48 170.15L81.55 170.98L81.74 169.57C81.78 169.28 82.01 169.07 82.3 169.11C82.56 169.15 82.73 169.37 82.73 169.62C82.73 169.65 82.73 169.68 82.73 169.7L82.49 171.48C82.45 171.78 82.19 171.97 81.9 171.93L81.77 171.91C80.38 172.87 79.5 174.88 79.06 178.15L78.99 178.63C78.95 178.92 78.71 179.12 78.42 179.08L74.87 178.6C74.61 178.57 74.42 178.35 74.42 178.09C74.42 178.06 74.42 178.04 74.42 178.01L75.37 171.04L74.87 170.98ZM101.29 170.49C103.73 170.12 105.92 171.73 106.29 174.15C106.32 174.38 106.34 174.61 106.34 174.84C106.34 176.97 104.81 178.79 102.6 179.13C101.3 179.32 100.02 178.95 99.11 178.13C98.95 177.97 98.88 177.86 98.86 177.74C98.86 177.72 98.85 177.7 98.85 177.68C98.85 177.46 99.03 177.26 99.26 177.22C99.43 177.2 99.57 177.24 99.71 177.36C100.49 178.09 101.42 178.37 102.44 178.22C104.15 177.96 105.31 176.57 105.31 174.88C105.31 174.69 105.29 174.5 105.26 174.31C104.97 172.37 103.31 171.12 101.41 171.41C100.39 171.56 99.59 172.12 99.05 173.03C98.96 173.19 98.83 173.27 98.67 173.3C98.41 173.34 98.17 173.17 98.13 172.93C98.13 172.9 98.13 172.88 98.13 172.86C98.13 172.75 98.16 172.64 98.26 172.48C98.85 171.43 99.98 170.69 101.29 170.49ZM68.61 175.85L71.45 171.93L67.97 171.07L68.61 175.85ZM78.09 178.14C78.55 174.82 79.33 172.85 80.61 171.76L76.36 171.18L75.46 177.78L78.09 178.14ZM88.42 180C85.98 180.01 84.03 178.09 84.01 175.66Q84.01 175.64 84.01 175.63C84.01 173.21 85.92 171.28 88.36 171.26C90.74 171.24 92.62 173.07 92.72 175.44L94.99 175.42L94.96 171.73L94.96 171.73C94.96 171.44 95.17 171.21 95.46 171.2C95.75 171.2 95.96 171.43 95.96 171.73L96.02 179.41L96.02 179.42C96.02 179.71 95.82 179.94 95.52 179.94C95.24 179.94 95.02 179.71 95.02 179.42L95 176.32L92.66 176.34C92.35 178.43 90.6 179.98 88.42 180ZM88.35 172.18C86.46 172.2 85.05 173.68 85.05 175.63C85.05 175.64 85.05 175.66 85.05 175.67C85.06 177.63 86.51 179.09 88.4 179.07C90.3 179.06 91.72 177.59 91.72 175.65C91.72 175.63 91.72 175.62 91.72 175.61C91.71 173.64 90.26 172.17 88.35 172.18Z" fill="#2D2F30" fill-opacity="1.000000" fill-rule="evenodd"/>
</svg>
