<svg width="15.399902" height="20.399902" viewBox="0 0 15.3999 20.3999" fill="none" xmlns="http://www.w3.org/2000/svg" xmlns:xlink="http://www.w3.org/1999/xlink">
	<desc>
			Created with Pixso.
	</desc>
	<defs/>
	<path id="Vector" d="M7.69 0.19C3.56 0.19 0.19 3.56 0.19 7.69C0.19 12.89 6.96 19.72 7.25 20.01C7.37 20.13 7.53 20.2 7.69 20.2C7.86 20.2 8.02 20.13 8.14 20.01C8.42 19.72 15.2 12.89 15.2 7.69C15.2 3.56 11.83 0.19 7.69 0.19ZM8.27 18.04C7.96 18.38 7.43 18.38 7.12 18.04C5.25 15.94 1.44 11.25 1.44 7.69C1.44 4.25 4.25 1.44 7.69 1.44C11.14 1.44 13.95 4.25 13.95 7.69C13.95 11.24 10.14 15.94 8.27 18.04Z" fill="#2D2F30" fill-opacity="1.000000" fill-rule="nonzero"/>
	<path id="Vector" d="M0.17 6.04Q0 6.85 0 7.69Q0 9.53 1.08 11.86Q1.94 13.71 3.45 15.81Q4.55 17.33 5.88 18.83Q6.57 19.61 7.11 20.15Q7.17 20.22 7.25 20.26Q7.31 20.3 7.38 20.33Q7.46 20.36 7.53 20.38Q7.61 20.39 7.69 20.39Q7.78 20.39 7.86 20.38Q7.93 20.36 8.01 20.33Q8.09 20.3 8.15 20.26Q8.22 20.21 8.28 20.15Q8.82 19.61 9.51 18.83Q10.84 17.33 11.94 15.81Q13.45 13.71 14.31 11.86Q15.39 9.53 15.39 7.69Q15.39 6.85 15.22 6.04Q15.07 5.36 14.79 4.7Q14.52 4.06 14.14 3.48Q13.71 2.82 13.14 2.25Q12.57 1.68 11.91 1.25Q11.33 0.87 10.69 0.6Q10.03 0.32 9.35 0.17Q8.54 0 7.69 0Q6.85 0 6.04 0.17Q5.36 0.32 4.7 0.6Q4.06 0.87 3.48 1.25Q2.82 1.68 2.25 2.25Q1.68 2.82 1.25 3.48Q0.87 4.06 0.6 4.7Q0.32 5.36 0.17 6.04ZM7.69 0.19C3.56 0.19 0.19 3.56 0.19 7.69C0.19 12.89 6.96 19.72 7.25 20.01C7.37 20.13 7.53 20.2 7.69 20.2C7.86 20.2 8.02 20.13 8.14 20.01C8.42 19.72 15.2 12.89 15.2 7.69C15.2 3.56 11.83 0.19 7.69 0.19ZM8.27 18.04C7.96 18.38 7.43 18.38 7.12 18.04C5.25 15.94 1.44 11.25 1.44 7.69C1.44 4.25 4.25 1.44 7.69 1.44C11.14 1.44 13.95 4.25 13.95 7.69C13.95 11.24 10.14 15.94 8.27 18.04ZM2.25 10.44Q1.64 8.9 1.64 7.69Q1.64 7.03 1.79 6.39Q1.9 5.86 2.12 5.34Q2.33 4.84 2.63 4.39Q2.97 3.87 3.42 3.42Q3.87 2.97 4.39 2.63Q4.84 2.33 5.34 2.12Q5.86 1.9 6.39 1.79Q7.03 1.64 7.69 1.64Q8.36 1.64 9 1.79Q9.53 1.9 10.05 2.12Q10.55 2.33 11 2.63Q11.52 2.97 11.97 3.42Q12.42 3.87 12.76 4.39Q13.06 4.84 13.27 5.34Q13.49 5.86 13.6 6.39Q13.75 7.03 13.75 7.69Q13.75 8.9 13.14 10.44Q12.61 11.76 11.64 13.3Q10.85 14.56 9.79 15.91Q9 16.92 8.12 17.9Q8.04 18 7.93 18.05Q7.82 18.09 7.69 18.09Q7.57 18.09 7.46 18.05Q7.35 18 7.27 17.9Q6.39 16.92 5.6 15.91Q4.54 14.56 3.75 13.3Q2.78 11.77 2.25 10.44Z" fill="#2D2F30" fill-opacity="1.000000" fill-rule="evenodd"/>
</svg>
