<svg width="40.000000" height="40.000000" viewBox="0 0 40 40" fill="none" xmlns="http://www.w3.org/2000/svg" xmlns:xlink="http://www.w3.org/1999/xlink">
	<desc>
			Created with Pixso.
	</desc>
	<defs/>
	<path id="Combined-Shape-path" d="M21.16 26.61C21.16 26.61 21.59 26.56 21.81 26.33C22.01 26.11 22.01 25.71 22.01 25.71C22.01 25.71 21.98 23.84 22.87 23.56C23.74 23.29 24.86 25.37 26.05 26.18C26.95 26.78 27.63 26.65 27.63 26.65L30.81 26.61C30.81 26.61 32.48 26.51 31.69 25.22C31.62 25.12 31.23 24.27 29.32 22.54C27.33 20.72 27.6 21.01 30 17.87C31.46 15.96 32.05 14.79 31.86 14.29C31.69 13.81 30.61 13.94 30.61 13.94L27.03 13.96C27.03 13.96 26.77 13.93 26.57 14.04C26.38 14.15 26.25 14.42 26.25 14.42C26.25 14.42 25.69 15.9 24.93 17.16C23.34 19.81 22.7 19.96 22.44 19.79C21.83 19.41 21.98 18.25 21.98 17.42C21.98 14.85 22.38 13.77 21.21 13.49C20.82 13.4 20.54 13.34 19.54 13.33C18.26 13.32 17.18 13.34 16.57 13.63C16.16 13.82 15.85 14.26 16.04 14.29C16.28 14.32 16.81 14.43 17.09 14.81C17.46 15.3 17.45 16.4 17.45 16.4C17.45 16.4 17.66 19.43 16.96 19.81C16.47 20.06 15.81 19.54 14.39 17.13C13.66 15.89 13.11 14.53 13.11 14.53C13.11 14.53 13.01 14.27 12.82 14.13C12.59 13.97 12.27 13.92 12.27 13.92L8.87 13.94C8.87 13.94 8.36 13.95 8.17 14.17C8 14.36 8.15 14.77 8.15 14.77C8.15 14.77 10.82 20.88 13.83 23.97C16.6 26.79 19.74 26.61 19.74 26.61L21.16 26.61Z" fill="#2D2F30" fill-opacity="1.000000" fill-rule="nonzero"/>
	<rect id="Frame 17" rx="18.750000" width="37.500000" height="37.500000" transform="translate(1.250000 1.250000)" stroke="#2D2F30" stroke-opacity="1.000000" stroke-width="2.500000"/>
</svg>
