<svg width="24.000000" height="24.000000" viewBox="0 0 24 24" fill="none" xmlns="http://www.w3.org/2000/svg" xmlns:xlink="http://www.w3.org/1999/xlink">
	<desc>
			Created with Pixso.
	</desc>
	<defs/>
	<path id="Combined-Shape-path" d="M12.7 15.96C12.7 15.96 12.95 15.93 13.09 15.79C13.21 15.67 13.2 15.43 13.2 15.43C13.2 15.43 13.19 14.3 13.72 14.14C14.24 13.97 14.91 15.22 15.63 15.7C16.17 16.07 16.58 15.99 16.58 15.99L18.49 15.96C18.49 15.96 19.48 15.9 19.01 15.13C18.97 15.07 18.73 14.56 17.59 13.52C16.4 12.43 16.56 12.61 18 10.72C18.87 9.57 19.23 8.87 19.12 8.57C19.01 8.29 18.37 8.36 18.37 8.36L16.22 8.37C16.22 8.37 16.06 8.35 15.94 8.42C15.83 8.49 15.75 8.65 15.75 8.65C15.75 8.65 15.41 9.54 14.96 10.29C14 11.89 13.62 11.97 13.46 11.87C13.1 11.64 13.19 10.95 13.19 10.45C13.19 8.91 13.43 8.26 12.72 8.09C12.49 8.04 12.32 8 11.72 8C10.96 7.99 10.31 8 9.94 8.18C9.69 8.29 9.51 8.55 9.62 8.57C9.76 8.59 10.08 8.66 10.26 8.88C10.48 9.18 10.47 9.84 10.47 9.84C10.47 9.84 10.59 11.66 10.17 11.88C9.88 12.04 9.49 11.72 8.63 10.27C8.2 9.53 7.87 8.71 7.87 8.71C7.87 8.71 7.8 8.56 7.69 8.48C7.55 8.38 7.36 8.35 7.36 8.35L5.32 8.36C5.32 8.36 5.01 8.37 4.9 8.5C4.8 8.62 4.89 8.86 4.89 8.86C4.89 8.86 6.49 12.53 8.3 14.38C9.96 16.07 11.84 15.96 11.84 15.96L12.7 15.96Z" fill="#FFFFFF" fill-opacity="1.000000" fill-rule="nonzero"/>
	<rect id="Frame 17" rx="11.250000" width="22.500000" height="22.500000" transform="translate(0.750000 0.750000)" stroke="#FFFFFF" stroke-opacity="1.000000" stroke-width="1.500000"/>
</svg>
