<svg width="40.833252" height="40.833252" viewBox="0 0 40.8333 40.8333" fill="none" xmlns="http://www.w3.org/2000/svg" xmlns:xlink="http://www.w3.org/1999/xlink">
	<desc>
			Created with Pixso.
	</desc>
	<defs/>
	<rect id="vuesax/linear/whatsapp" width="40.000000" height="40.000000" transform="translate(0.416748 0.416748)" fill="#FFFFFF" fill-opacity="0"/>
	<path id="Vector" d="M20.41 39.58C30.95 39.58 39.58 30.95 39.58 20.41C39.58 9.87 30.95 1.25 20.41 1.25C9.87 1.25 1.25 9.87 1.25 20.41C1.25 23.86 2.2 27.12 3.74 30L2.09 36.33C1.72 37.77 3.04 39.06 4.47 38.66L10.64 36.89C13.51 38.62 16.96 39.58 20.41 39.58Z" stroke="#2D2F30" stroke-opacity="1.000000" stroke-width="2.500000" stroke-linejoin="round"/>
	<path id="Vector" d="M28.82 26.81C28.67 27.12 28.48 27.42 28.23 27.69C27.81 28.16 27.34 28.49 26.82 28.71C26.3 28.92 25.74 29.04 25.13 29.04C24.25 29.04 23.31 28.83 22.32 28.41C21.32 27.98 20.33 27.42 19.35 26.7C18.35 25.98 17.41 25.17 16.51 24.28C15.62 23.39 14.82 22.45 14.1 21.46C13.39 20.48 12.82 19.5 12.41 18.52C11.99 17.54 11.79 16.6 11.79 15.7C11.79 15.12 11.89 14.56 12.1 14.04C12.31 13.51 12.63 13.03 13.09 12.6C13.64 12.05 14.25 11.79 14.89 11.79C15.13 11.79 15.37 11.84 15.59 11.94C15.81 12.05 16.01 12.2 16.17 12.42L18.17 15.25C18.33 15.46 18.44 15.66 18.52 15.85C18.59 16.03 18.64 16.21 18.64 16.38C18.64 16.58 18.58 16.79 18.46 16.99C18.34 17.19 18.18 17.39 17.97 17.6L17.32 18.28C17.22 18.38 17.18 18.49 17.18 18.63C17.18 18.7 17.19 18.76 17.2 18.82C17.23 18.89 17.26 18.95 17.27 19C17.43 19.28 17.7 19.65 18.08 20.1C18.46 20.55 18.88 21.01 19.33 21.46C19.79 21.92 20.24 22.34 20.7 22.73C21.15 23.11 21.52 23.37 21.82 23.53C21.86 23.54 21.91 23.57 21.97 23.59C22.04 23.62 22.11 23.63 22.19 23.63C22.33 23.63 22.45 23.58 22.54 23.48L23.2 22.84C23.41 22.62 23.62 22.46 23.82 22.35C24.02 22.23 24.22 22.17 24.43 22.17C24.6 22.17 24.77 22.21 24.96 22.28C25.15 22.36 25.35 22.47 25.56 22.62L28.42 24.65C28.65 24.8 28.8 24.98 28.9 25.2C28.99 25.41 29.04 25.63 29.04 25.87C29.04 26.18 28.97 26.5 28.82 26.81Z" stroke="#2D2F30" stroke-opacity="1.000000" stroke-width="2.500000"/>
</svg>
