<svg width="24.500000" height="24.500000" viewBox="0 0 24.5 24.5" fill="none" xmlns="http://www.w3.org/2000/svg" xmlns:xlink="http://www.w3.org/1999/xlink">
	<desc>
			Created with Pixso.
	</desc>
	<defs/>
	<rect id="vuesax/linear/whatsapp" width="24.000000" height="24.000000" transform="translate(0.250000 0.250000)" fill="#FFFFFF" fill-opacity="0"/>
	<path id="Vector" d="M12.25 23.75C18.57 23.75 23.75 18.57 23.75 12.25C23.75 5.92 18.57 0.75 12.25 0.75C5.92 0.75 0.75 5.92 0.75 12.25C0.75 14.32 1.32 16.27 2.24 18L1.25 21.8C1.03 22.66 1.82 23.44 2.68 23.19L6.38 22.13C8.1 23.17 10.18 23.75 12.25 23.75Z" stroke="#FFFFFF" stroke-opacity="1.000000" stroke-width="1.500000" stroke-linejoin="round"/>
	<path id="Vector" d="M17.29 16.08C17.2 16.27 17.09 16.45 16.94 16.61C16.68 16.89 16.4 17.09 16.09 17.22C15.78 17.35 15.44 17.42 15.08 17.42C14.55 17.42 13.98 17.3 13.39 17.04C12.79 16.79 12.2 16.45 11.6 16.02C11.01 15.58 10.44 15.1 9.9 14.57C9.37 14.03 8.89 13.47 8.46 12.88C8.03 12.29 7.69 11.7 7.44 11.11C7.19 10.52 7.07 9.96 7.07 9.42C7.07 9.07 7.13 8.73 7.26 8.42C7.38 8.11 7.58 7.82 7.85 7.56C8.18 7.23 8.55 7.07 8.93 7.07C9.08 7.07 9.22 7.1 9.35 7.16C9.49 7.23 9.6 7.32 9.7 7.45L10.9 9.15C10.99 9.27 11.06 9.39 11.11 9.51C11.15 9.62 11.18 9.72 11.18 9.82C11.18 9.95 11.14 10.07 11.07 10.19C11 10.31 10.91 10.43 10.78 10.56L10.39 10.97C10.33 11.02 10.3 11.09 10.3 11.17C10.3 11.22 10.31 11.25 10.32 11.29C10.34 11.33 10.35 11.37 10.36 11.4C10.45 11.57 10.62 11.79 10.84 12.06C11.08 12.33 11.33 12.6 11.59 12.88C11.87 13.15 12.14 13.4 12.42 13.64C12.69 13.87 12.91 14.02 13.09 14.11C13.11 14.12 13.14 14.14 13.18 14.16C13.22 14.17 13.26 14.18 13.31 14.18C13.4 14.18 13.47 14.14 13.52 14.09L13.92 13.7C14.05 13.57 14.17 13.47 14.29 13.41C14.41 13.34 14.53 13.3 14.66 13.3C14.76 13.3 14.86 13.32 14.97 13.37C15.09 13.41 15.21 13.48 15.34 13.57L17.05 14.79C17.19 14.88 17.28 14.99 17.34 15.12C17.39 15.25 17.42 15.38 17.42 15.52C17.42 15.71 17.38 15.9 17.29 16.08Z" stroke="#FFFFFF" stroke-opacity="1.000000" stroke-width="1.500000"/>
</svg>
