<svg width="94.000000" height="94.000000" viewBox="0 0 94 94" fill="none" xmlns="http://www.w3.org/2000/svg" xmlns:xlink="http://www.w3.org/1999/xlink">
	<desc>
			Created with Pixso.
	</desc>
	<defs>
		<clipPath id="clip6_553">
			<rect id="Frame" width="94.000000" height="94.000000" fill="white" fill-opacity="0"/>
		</clipPath>
	</defs>
	<rect id="Frame" width="94.000000" height="94.000000" fill="#FFFFFF" fill-opacity="0"/>
	<g clip-path="url(#clip6_553)">
		<path id="Vector" d="M80.07 13.65C71.24 4.85 59.5 0 46.99 0C34.52 0 22.75 4.84 13.86 13.63C4.96 22.44 0.05 34.15 0.04 46.56L0.04 46.58C0.04 54.09 2.01 61.67 5.76 68.58L0.17 94L25.87 88.15C32.38 91.43 39.65 93.16 46.98 93.16L46.99 93.16C59.47 93.16 71.23 88.32 80.12 79.52C89.03 70.7 93.94 59.01 93.95 46.6C93.95 34.27 89.03 22.57 80.07 13.65L80.07 13.65ZM46.99 85.83L46.98 85.83C40.4 85.82 33.88 84.17 28.13 81.05L26.91 80.39L9.82 84.28L13.53 67.4L12.82 66.17C9.26 60.03 7.38 53.26 7.38 46.57C7.39 24.95 25.16 7.33 46.99 7.33C57.54 7.34 67.45 11.42 74.89 18.84C82.45 26.38 86.62 36.23 86.61 46.59C86.6 68.23 68.83 85.83 46.99 85.83Z" fill="#FFFFFF" fill-opacity="1.000000" fill-rule="evenodd"/>
		<path id="Vector" d="M34.22 26.04L32.16 26.04C31.44 26.04 30.28 26.31 29.29 27.38C28.31 28.45 25.54 31.04 25.54 36.31C25.54 41.57 29.38 46.66 29.92 47.38C30.46 48.09 37.35 59.25 48.27 63.54C57.34 67.1 59.19 66.39 61.16 66.21C63.12 66.04 67.51 63.63 68.41 61.13C69.3 58.63 69.3 56.48 69.03 56.04C68.76 55.59 68.05 55.32 66.97 54.79C65.9 54.25 60.63 51.62 59.65 51.26C58.67 50.9 57.95 50.73 57.23 51.8C56.52 52.87 54.41 55.34 53.78 56.06C53.15 56.77 52.53 56.86 51.45 56.33C50.38 55.79 46.96 54.64 42.85 50.99C39.66 48.16 37.44 44.54 36.82 43.47C36.19 42.39 36.75 41.81 37.29 41.28C37.77 40.8 38.42 40.15 38.96 39.52C39.5 38.9 39.65 38.45 40.01 37.74C40.37 37.02 40.19 36.4 39.92 35.86C39.65 35.33 37.59 30.03 36.63 27.91L36.63 27.91C35.83 26.13 34.98 26.07 34.22 26.04Z" fill="#FFFFFF" fill-opacity="1.000000" fill-rule="evenodd"/>
	</g>
</svg>
