<svg width="16.000000" height="16.000000" viewBox="0 0 16 16" fill="none" xmlns="http://www.w3.org/2000/svg" xmlns:xlink="http://www.w3.org/1999/xlink">
	<desc>
			Created with Pixso.
	</desc>
	<defs/>
	<path id="Vector" d="M13.49 1.43C12.44 0.6 11.82 1.13 11.33 1.64C10.16 2.87 9 4.11 7.84 5.36C7.83 5.37 7.81 5.39 7.79 5.39C7.77 5.4 7.75 5.41 7.72 5.41C7.7 5.4 7.68 5.4 7.66 5.39C7.64 5.38 7.62 5.37 7.61 5.35C6.58 4.26 5.9 2.78 4.72 1.82C4.57 1.65 4.36 1.53 4.14 1.48C3.92 1.43 3.68 1.45 3.47 1.54C2.46 1.96 1.5 2.84 2.26 3.85C2.75 4.49 3.21 5.17 3.67 5.78C4.21 6.49 4.67 7.03 5.2 7.78C5.54 8.25 5.62 8.13 4.9 8.98C4.13 9.8 3.41 10.66 2.74 11.56C2.42 11.96 1.94 12.34 1.87 12.86C1.77 13.66 2.66 14.5 3.35 14.75C4.16 15.03 4.76 14.27 5.26 13.77C5.98 13.02 6.57 12.23 7.27 11.47C7.61 11.1 7.75 11.44 8.14 11.93C8.74 12.68 9.94 14.35 10.74 14.87C11.19 15.19 11.95 14.83 12.29 14.52C12.85 14.02 13.35 13.29 12.78 12.46C11.96 11.24 11.31 10.39 10.51 9.24C9.86 8.3 9.81 8.31 10.35 7.66C10.94 6.96 12.43 5.21 13.37 4.16C14.09 3.36 14.58 2.3 13.49 1.43Z" fill="#2D2F30" fill-opacity="1.000000" fill-rule="nonzero"/>
</svg>
